<svg width="171" height="111" viewBox="0 0 171 111" fill="none" xmlns="http://www.w3.org/2000/svg">
<g clip-path="url(#clip0)">
<path d="M131.009 105.138L139.911 91.896L131.027 106.563L131.045 108.053C130.395 108.058 129.752 108.047 129.114 108.02L129.556 88.8664L129.544 88.7187L129.56 88.6901L129.602 86.8802L119.853 72.7218L129.591 85.5255L129.626 85.9081L129.959 71.4365L121.538 56.7575L129.983 68.8942L129.895 38.9128L129.895 38.813L129.898 38.9111L130.457 62.5406L138.132 52.9423L130.482 64.5762L130.65 77.5207L137.712 64.8873L130.676 79.4238L130.769 86.6216L141.039 69.0235L130.8 89.1326L131.009 105.138Z" fill="#E6E6E6"/>
<path d="M160.969 105.555L169.872 92.3131L160.988 106.98L161.006 108.47C160.356 108.475 159.713 108.464 159.075 108.438L159.517 89.2835L159.505 89.1358L159.521 89.1072L159.563 87.2973L149.814 73.1389L159.552 85.9426L159.586 86.3252L159.92 71.8536L151.499 57.1746L159.944 69.3113L159.856 39.3299L159.856 39.2301L159.859 39.3282L160.418 62.9577L168.093 53.3594L160.443 64.9933L160.611 77.9378L167.673 65.3044L160.636 79.8409L160.73 87.0387L171 69.4405L160.761 89.5497L160.969 105.555Z" fill="#E6E6E6"/>
<path d="M70.9042 0H17.6299V72.0768H70.9042V0Z" fill="#E6E6E6"/>
<path d="M69.0271 2.53984H19.5073V69.537H69.0271V2.53984Z" fill="white"/>
<path d="M62.518 14.291H26.1749C25.8805 14.2906 25.5983 14.1733 25.3903 13.965C25.1823 13.7566 25.0654 13.4742 25.0654 13.1798C25.0654 12.8853 25.1823 12.6029 25.3903 12.3946C25.5983 12.1862 25.8805 12.069 26.1749 12.0686H62.518C62.664 12.0684 62.8086 12.097 62.9436 12.1527C63.0786 12.2085 63.2012 12.2903 63.3045 12.3935C63.4078 12.4967 63.4898 12.6193 63.5457 12.7542C63.6016 12.8891 63.6304 13.0337 63.6304 13.1798C63.6304 13.3258 63.6016 13.4704 63.5457 13.6053C63.4898 13.7402 63.4078 13.8628 63.3045 13.966C63.2012 14.0692 63.0786 14.151 62.9436 14.2068C62.8086 14.2625 62.664 14.2911 62.518 14.291Z" fill="#E6E6E6"/>
<path d="M62.518 25.7203H26.1749C25.8805 25.7199 25.5983 25.6026 25.3903 25.3943C25.1823 25.1859 25.0654 24.9035 25.0654 24.6091C25.0654 24.3146 25.1823 24.0322 25.3903 23.8239C25.5983 23.6155 25.8805 23.4983 26.1749 23.4979H62.518C62.664 23.4977 62.8086 23.5263 62.9436 23.5821C63.0786 23.6378 63.2012 23.7196 63.3045 23.8228C63.4078 23.926 63.4898 24.0486 63.5457 24.1835C63.6016 24.3184 63.6304 24.463 63.6304 24.6091C63.6304 24.7551 63.6016 24.8997 63.5457 25.0347C63.4898 25.1696 63.4078 25.2921 63.3045 25.3953C63.2012 25.4985 63.0786 25.5803 62.9436 25.6361C62.8086 25.6919 62.664 25.7205 62.518 25.7203Z" fill="#E6E6E6"/>
<path d="M62.518 37.1496H26.1749C25.8805 37.1492 25.5983 37.032 25.3903 36.8236C25.1823 36.6153 25.0654 36.3329 25.0654 36.0384C25.0654 35.744 25.1823 35.4615 25.3903 35.2532C25.5983 35.0449 25.8805 34.9276 26.1749 34.9272H62.518C62.664 34.927 62.8086 34.9556 62.9436 35.0114C63.0786 35.0671 63.2012 35.149 63.3045 35.2522C63.4078 35.3554 63.4898 35.4779 63.5457 35.6128C63.6016 35.7477 63.6304 35.8924 63.6304 36.0384C63.6304 36.1845 63.6016 36.3291 63.5457 36.464C63.4898 36.5989 63.4078 36.7214 63.3045 36.8246C63.2012 36.9278 63.0786 37.0097 62.9436 37.0654C62.8086 37.1212 62.664 37.1498 62.518 37.1496Z" fill="#E6E6E6"/>
<path d="M62.518 48.5789H26.1749C25.8805 48.5785 25.5983 48.4613 25.3903 48.2529C25.1823 48.0446 25.0654 47.7622 25.0654 47.4677C25.0654 47.1733 25.1823 46.8909 25.3903 46.6825C25.5983 46.4742 25.8805 46.3569 26.1749 46.3565H62.518C62.664 46.3563 62.8086 46.3849 62.9436 46.4407C63.0786 46.4965 63.2012 46.5783 63.3045 46.6815C63.4078 46.7847 63.4898 46.9072 63.5457 47.0422C63.6016 47.1771 63.6304 47.3217 63.6304 47.4677C63.6304 47.6138 63.6016 47.7584 63.5457 47.8933C63.4898 48.0282 63.4078 48.1508 63.3045 48.254C63.2012 48.3572 63.0786 48.439 62.9436 48.4947C62.8086 48.5505 62.664 48.5791 62.518 48.5789Z" fill="#E6E6E6"/>
<path d="M62.518 60.0082H26.1749C25.8805 60.0078 25.5983 59.8906 25.3903 59.6823C25.1823 59.4739 25.0654 59.1915 25.0654 58.897C25.0654 58.6026 25.1823 58.3202 25.3903 58.1118C25.5983 57.9035 25.8805 57.7862 26.1749 57.7859H62.518C62.664 57.7857 62.8086 57.8143 62.9436 57.87C63.0786 57.9258 63.2012 58.0076 63.3045 58.1108C63.4078 58.214 63.4898 58.3366 63.5457 58.4715C63.6016 58.6064 63.6304 58.751 63.6304 58.897C63.6304 59.0431 63.6016 59.1877 63.5457 59.3226C63.4898 59.4575 63.4078 59.5801 63.3045 59.6833C63.2012 59.7865 63.0786 59.8683 62.9436 59.9241C62.8086 59.9798 62.664 60.0084 62.518 60.0082Z" fill="#E6E6E6"/>
<path d="M56.1699 14.291H26.0162C25.8702 14.2911 25.7256 14.2625 25.5906 14.2068C25.4557 14.151 25.333 14.0692 25.2297 13.966C25.1264 13.8628 25.0444 13.7402 24.9885 13.6053C24.9326 13.4704 24.9038 13.3258 24.9038 13.1798C24.9038 13.0337 24.9326 12.8891 24.9885 12.7542C25.0444 12.6193 25.1264 12.4967 25.2297 12.3935C25.333 12.2903 25.4557 12.2085 25.5906 12.1527C25.7256 12.097 25.8702 12.0684 26.0162 12.0686H56.1699C56.4643 12.069 56.7465 12.1862 56.9545 12.3946C57.1625 12.6029 57.2793 12.8853 57.2793 13.1798C57.2793 13.4742 57.1625 13.7566 56.9545 13.965C56.7465 14.1733 56.4643 14.2906 56.1699 14.291Z" fill="#6C63FF"/>
<path d="M46.8064 25.7203H26.0162C25.7216 25.7203 25.439 25.6032 25.2307 25.3948C25.0223 25.1864 24.9053 24.9038 24.9053 24.6091C24.9053 24.3144 25.0223 24.0317 25.2307 23.8234C25.439 23.615 25.7216 23.4979 26.0162 23.4979H46.8064C46.9524 23.4977 47.097 23.5263 47.2319 23.5821C47.3669 23.6378 47.4895 23.7196 47.5928 23.8228C47.6962 23.926 47.7781 24.0486 47.834 24.1835C47.89 24.3184 47.9187 24.463 47.9187 24.6091C47.9187 24.7551 47.89 24.8997 47.834 25.0347C47.7781 25.1696 47.6962 25.2921 47.5928 25.3953C47.4895 25.4985 47.3669 25.5803 47.2319 25.6361C47.097 25.6919 46.9524 25.7205 46.8064 25.7203Z" fill="#6C63FF"/>
<path d="M35.3797 37.1496H26.0162C25.8702 37.1498 25.7256 37.1212 25.5906 37.0654C25.4557 37.0097 25.333 36.9278 25.2297 36.8246C25.1264 36.7214 25.0444 36.5989 24.9885 36.464C24.9326 36.3291 24.9038 36.1845 24.9038 36.0384C24.9038 35.8924 24.9326 35.7477 24.9885 35.6128C25.0444 35.4779 25.1264 35.3554 25.2297 35.2522C25.333 35.149 25.4557 35.0671 25.5906 35.0114C25.7256 34.9556 25.8702 34.927 26.0162 34.9272H35.3797C35.6741 34.9276 35.9563 35.0449 36.1643 35.2532C36.3723 35.4615 36.4892 35.744 36.4892 36.0384C36.4892 36.3329 36.3723 36.6153 36.1643 36.8236C35.9563 37.032 35.6741 37.1492 35.3797 37.1496Z" fill="#6C63FF"/>
<path d="M59.0266 48.5789H26.0162C25.7216 48.5789 25.439 48.4618 25.2307 48.2534C25.0223 48.0451 24.9053 47.7624 24.9053 47.4677C24.9053 47.173 25.0223 46.8904 25.2307 46.682C25.439 46.4736 25.7216 46.3565 26.0162 46.3565H59.0266C59.3212 46.3565 59.6038 46.4736 59.8121 46.682C60.0204 46.8904 60.1375 47.173 60.1375 47.4677C60.1375 47.7624 60.0204 48.0451 59.8121 48.2534C59.6038 48.4618 59.3212 48.5789 59.0266 48.5789Z" fill="#6C63FF"/>
<path d="M51.7262 60.0082H26.0162C25.8702 60.0084 25.7256 59.9798 25.5906 59.9241C25.4557 59.8683 25.333 59.7865 25.2297 59.6833C25.1264 59.5801 25.0444 59.4575 24.9885 59.3226C24.9326 59.1877 24.9038 59.0431 24.9038 58.897C24.9038 58.751 24.9326 58.6064 24.9885 58.4715C25.0444 58.3366 25.1264 58.214 25.2297 58.1108C25.333 58.0076 25.4557 57.9258 25.5906 57.87C25.7256 57.8143 25.8702 57.7857 26.0162 57.7859H51.7262C51.8722 57.7857 52.0168 57.8143 52.1518 57.87C52.2867 57.9258 52.4093 58.0076 52.5127 58.1108C52.616 58.214 52.6979 58.3366 52.7539 58.4715C52.8098 58.6064 52.8386 58.751 52.8386 58.897C52.8386 59.0431 52.8098 59.1877 52.7539 59.3226C52.6979 59.4575 52.616 59.5801 52.5127 59.6833C52.4093 59.7865 52.2867 59.8683 52.1518 59.9241C52.0168 59.9798 51.8722 60.0084 51.7262 60.0082Z" fill="#6C63FF"/>
<path d="M170.166 108.054H0V108.437H170.166V108.054Z" fill="#3F3D56"/>
<path d="M96.9621 51.9258C96.9621 51.9258 95.7576 43.0909 93.7501 45.5004C91.7427 47.9099 93.7501 51.5242 93.7501 51.5242L95.3561 53.5321L96.9621 52.3274V51.9258Z" fill="#9F616A"/>
<path d="M101.78 54.7369C101.78 54.7369 97.7651 50.3194 96.9622 51.1226C96.1592 51.9258 93.7502 52.3274 94.1517 53.9337C94.5532 55.5401 102.985 60.7607 102.985 60.7607L101.78 54.7369Z" fill="#6C63FF"/>
<path opacity="0.1" d="M101.78 54.7369C101.78 54.7369 97.7651 50.3194 96.9622 51.1226C96.1592 51.9258 93.7502 52.3274 94.1517 53.9337C94.5532 55.5401 102.985 60.7607 102.985 60.7607L101.78 54.7369Z" fill="black"/>
<path d="M124.665 54.3353V57.548C124.665 57.548 125.066 64.7766 122.657 64.375C120.248 63.9734 121.453 57.9496 121.453 57.9496L121.854 54.3353L124.665 54.3353Z" fill="#9F616A"/>
<path d="M123.46 77.6273C123.46 77.6273 127.074 83.2495 128.278 83.6511C129.483 84.0527 135.907 87.667 136.71 91.2812L142.331 98.5098L139.52 102.124C139.52 102.124 126.672 88.4702 123.059 87.2654C119.445 86.0606 115.832 80.0368 115.832 80.0368L123.46 77.6273Z" fill="#9F616A"/>
<path d="M94.9547 68.3908C94.9547 68.3908 87.3264 69.5956 88.5308 74.4146C89.7353 79.2337 101.379 89.2733 101.379 89.2733L101.78 91.6828L106.197 92.486L108.204 90.4781L107.802 89.2733C107.802 89.2733 102.985 84.8559 102.583 83.2495C102.182 81.6432 97.7652 75.2178 95.7577 74.8162L98.5681 73.2099L94.9547 68.3908Z" fill="#9F616A"/>
<path d="M141.126 98.5098C141.126 98.5098 139.52 96.1003 141.929 96.5019C144.338 96.9035 145.944 97.3051 145.944 98.9114C145.944 100.518 143.937 111.762 141.528 110.959C139.119 110.156 141.126 106.542 141.126 106.542C141.126 106.542 139.922 103.329 139.119 102.927C138.316 102.526 138.316 100.518 139.119 100.518C139.922 100.518 141.528 99.313 141.126 98.5098Z" fill="#2F2E41"/>
<path d="M106.999 89.6749C106.999 89.6749 106.999 87.667 108.605 89.6749C110.211 91.6828 111.014 93.2892 109.408 94.4939C107.802 95.6987 102.181 98.5098 102.181 98.5098C102.181 98.5098 96.1589 99.7146 96.9619 96.9035C96.9619 96.9035 100.977 94.8955 100.977 93.2892C100.977 91.6828 100.977 88.8717 102.181 89.6749C103.386 90.4781 106.999 90.8797 106.999 89.6749Z" fill="#2F2E41"/>
<path d="M114.628 59.5559C114.628 59.5559 120.249 60.3591 119.847 68.3908C119.847 68.3908 127.074 75.6194 125.067 78.0289C123.059 80.4384 118.643 84.8559 117.037 83.6511C115.431 82.4464 110.613 73.2099 110.613 73.2099C110.613 73.2099 99.371 77.2257 97.3636 75.2178C95.3561 73.2099 93.3486 68.3908 93.3486 68.3908L103.386 63.1702L114.628 59.5559Z" fill="#2F2E41"/>
<path d="M98.9693 36.6655C101.63 36.6655 103.787 34.5079 103.787 31.8465C103.787 29.185 101.63 27.0274 98.9693 27.0274C96.3084 27.0274 94.1514 29.185 94.1514 31.8465C94.1514 34.5079 96.3084 36.6655 98.9693 36.6655Z" fill="#9F616A"/>
<path d="M102.583 32.248C102.583 32.248 105.393 36.6655 106.196 37.0671C106.999 37.4687 100.575 41.4845 100.575 41.4845C100.575 41.4845 100.575 36.2639 98.5679 35.0591L102.583 32.248Z" fill="#9F616A"/>
<path d="M102.984 36.6655C102.984 36.6655 109.408 34.6576 110.613 37.8703C111.817 41.0829 114.628 47.1067 114.226 51.1226C113.825 55.1385 113.022 54.3353 114.226 55.5401C115.431 56.7448 116.234 55.9417 115.832 57.548C115.431 59.1543 115.029 59.1543 115.431 59.9575C115.832 60.7607 110.613 63.5718 106.196 63.9734L101.78 64.375C101.78 64.375 101.78 57.1464 100.977 55.5401C100.174 53.9337 98.5679 50.721 98.5679 49.5163V46.3286C98.5679 44.2069 99.1214 42.1219 100.174 40.2798C100.174 40.2798 102.583 36.6655 102.984 36.6655Z" fill="#6C63FF"/>
<path d="M107.802 38.2718C107.802 38.2718 122.658 39.4766 124.264 43.4925C125.869 47.5083 126.672 55.5401 125.067 55.5401C123.461 55.5401 121.453 56.3432 121.052 55.5401C120.65 54.7369 119.044 46.7051 118.643 46.7051C118.241 46.7051 106.196 45.5004 106.196 45.5004C106.196 45.5004 100.977 39.075 107.802 38.2718Z" fill="#6C63FF"/>
<path d="M98.7758 30.6517C98.7758 30.6517 97.4972 28.4294 95.8991 30.3597C94.3009 32.29 91.7011 28.7427 92.1002 27.9858C92.4993 27.2289 93.9087 28.0198 96.3241 27.23C98.7395 26.4403 103.392 24.8313 104.171 30.0797C104.951 35.3281 103.095 34.7778 103.095 34.7778C103.095 34.7778 102.244 30.1272 101.475 31.4631L100.707 32.7989L100.04 32.9631L98.7758 30.6517Z" fill="#2F2E41"/>
</g>
<defs>
<clipPath id="clip0">
<rect width="171" height="111" fill="white"/>
</clipPath>
</defs>
</svg>
