<svg width="172" height="107" viewBox="0 0 172 107" fill="none" xmlns="http://www.w3.org/2000/svg">
<g clip-path="url(#clip0)">
<rect width="171" height="107" transform="translate(0.42627)" fill="white"/>
<path d="M165.307 17.0697H83.7551V82.714H165.307V17.0697Z" fill="#E6E8EC"/>
<path d="M180.867 82.9237H83.5679V0.711052H180.867V82.9237ZM83.9428 82.5043H180.492V1.13051H83.9428V82.5043Z" fill="#3F3D56"/>
<path d="M88.2549 7.4223C89.2903 7.4223 90.1296 6.48333 90.1296 5.32504C90.1296 4.16676 89.2903 3.22778 88.2549 3.22778C87.2195 3.22778 86.3801 4.16676 86.3801 5.32504C86.3801 6.48333 87.2195 7.4223 88.2549 7.4223Z" fill="#3F3D56"/>
<path d="M93.5039 7.4223C94.5393 7.4223 95.3787 6.48333 95.3787 5.32504C95.3787 4.16676 94.5393 3.22778 93.5039 3.22778C92.4685 3.22778 91.6292 4.16676 91.6292 5.32504C91.6292 6.48333 92.4685 7.4223 93.5039 7.4223Z" fill="#3F3D56"/>
<path d="M98.7537 7.4223C99.7891 7.4223 100.628 6.48333 100.628 5.32504C100.628 4.16676 99.7891 3.22778 98.7537 3.22778C97.7183 3.22778 96.8789 4.16676 96.8789 5.32504C96.8789 6.48333 97.7183 7.4223 98.7537 7.4223Z" fill="#3F3D56"/>
<path d="M144.535 27.3281H104.527V27.831H144.535V27.3281Z" fill="#3F3D56"/>
<path d="M144.535 30.8483H104.527V31.3511H144.535V30.8483Z" fill="#3F3D56"/>
<path d="M144.535 34.3684H104.527V34.8713H144.535V34.3684Z" fill="#3F3D56"/>
<path d="M144.535 41.5895H104.527V42.0924H144.535V41.5895Z" fill="#3F3D56"/>
<path d="M144.535 45.1096H104.527V45.6125H144.535V45.1096Z" fill="#3F3D56"/>
<path d="M144.535 48.6298H104.527V49.1327H144.535V48.6298Z" fill="#3F3D56"/>
<path d="M124.473 79.5681C122.508 79.5681 120.587 78.9162 118.953 77.6948C117.319 76.4735 116.045 74.7374 115.293 72.7064C114.541 70.6753 114.344 68.4403 114.728 66.2841C115.111 64.1279 116.058 62.1473 117.447 60.5928C118.837 59.0383 120.607 57.9796 122.535 57.5507C124.462 57.1218 126.46 57.342 128.275 58.1833C130.091 59.0246 131.643 60.4493 132.735 62.2772C133.826 64.1051 134.409 66.2542 134.409 68.4526C134.406 71.3996 133.358 74.225 131.496 76.3088C129.633 78.3927 127.107 79.5648 124.473 79.5681ZM124.473 57.7566C122.582 57.7566 120.733 58.3839 119.161 59.5592C117.589 60.7345 116.363 62.405 115.64 64.3594C114.916 66.3139 114.727 68.4645 115.096 70.5393C115.464 72.6142 116.375 74.52 117.712 76.0159C119.049 77.5118 120.753 78.5305 122.608 78.9432C124.462 79.3559 126.385 79.144 128.132 78.3345C129.879 77.5249 131.372 76.154 132.423 74.395C133.474 72.6361 134.034 70.5681 134.034 68.4526C134.031 65.6169 133.023 62.8982 131.231 60.893C129.438 58.8878 127.008 57.7598 124.473 57.7566Z" fill="#6C63FF"/>
<path d="M129.347 68.0332H124.848V62.9997H124.098V68.0332H119.599V68.8721H124.098V73.9056H124.848V68.8721H129.347V68.0332Z" fill="#6C63FF"/>
<path d="M45.979 74.6396C45.979 74.6396 42.0421 79.4633 41.4796 90.5788C40.9172 101.694 40.7297 102.953 40.7297 102.953H54.7904L57.415 95.4025L60.4146 102.953H73.7253C73.7253 102.953 75.2251 79.8827 73.7253 79.2536C72.2255 78.6244 45.979 74.6396 45.979 74.6396Z" fill="#2F2E41"/>
<path d="M64.8201 17.9086C68.5476 17.9086 71.5692 14.5283 71.5692 10.3585C71.5692 6.18862 68.5476 2.80831 64.8201 2.80831C61.0927 2.80831 58.071 6.18862 58.071 10.3585C58.071 14.5283 61.0927 17.9086 64.8201 17.9086Z" fill="#FFB8B8"/>
<path d="M58.7274 10.8828L57.415 24.3053L66.6013 25.5636C66.6013 25.5636 66.9763 13.819 67.1637 13.3995C67.3512 12.98 58.7274 10.8828 58.7274 10.8828Z" fill="#FFB8B8"/>
<path d="M84.7862 39.4055L88.7231 48.0043C88.7231 48.0043 93.9724 56.6031 95.2848 63.7338C96.5971 70.8645 97.9094 74.2201 97.9094 74.2201C97.9094 74.2201 104.659 85.1259 100.909 87.0134C97.1595 88.901 93.9724 74.8493 93.9724 74.8493L83.6613 53.8767L77.6621 42.9709L84.7862 39.4055Z" fill="#FFB8B8"/>
<path d="M47.4788 41.5028L46.1665 47.7946L33.7931 66.0408C33.7931 66.0408 23.857 74.4298 27.9814 76.3174C32.1059 78.2049 37.1677 68.7672 37.1677 68.7672L52.5406 53.6669L51.7907 41.5028H47.4788Z" fill="#FFB8B8"/>
<path d="M57.0401 21.5788C57.0401 21.5788 62.6076 24.19 66.7604 20.9969C66.7604 20.9969 76.9125 22.8372 77.4749 23.4663C78.0373 24.0955 76.9125 42.9709 76.9125 42.9709L74.6628 53.6669C74.6628 53.6669 77.8499 70.0256 73.163 74.2201L74.1004 79.8827C74.1004 79.8827 53.2906 81.5605 45.0417 75.8979L46.5415 70.2353L50.4785 52.4086L48.0413 27.6609C48.0413 27.6609 49.9161 21.9983 57.0401 21.5788Z" fill="#D0CDE1"/>
<path d="M72.6944 24.4101L77.5688 23.5712C77.5688 23.5712 80.0059 23.9907 82.2556 29.2338C84.5053 34.477 86.9425 41.3979 86.9425 41.3979L78.5062 45.5925L71.5696 33.4283L72.6944 24.4101Z" fill="#D0CDE1"/>
<path d="M49.1664 26.6123L48.0415 27.6609C48.0415 27.6609 46.5417 33.743 46.5417 37.9375V43.6001L53.2908 44.439L49.1664 26.6123Z" fill="#D0CDE1"/>
<path d="M58.0732 12.4075C58.0732 12.4075 57.1558 11.2992 57.2486 9.91179C57.3098 9.12256 57.2647 8.32753 57.1147 7.5533C57.1147 7.5533 57.4019 5.28247 57.8259 3.96619C58.2498 2.64991 57.8924 2.19185 59.7149 1.47324C61.5374 0.75464 60.3772 -1.844 65.7505 0.22728C65.9548 0.458127 66.2157 0.616082 66.5002 0.681209C66.7848 0.746336 67.0802 0.715715 67.3492 0.593213C68.3412 0.186785 68.939 1.71139 68.939 1.71139C68.939 1.71139 69.5578 1.14346 69.905 1.73391C70.2522 2.32436 71.9315 0.978601 72.5472 5.27414C73.163 9.56967 71.0491 13.4003 71.0491 13.4003C71.0491 13.4003 70.7525 6.5264 67.2628 6.40178C63.7732 6.27717 59.8269 4.79845 59.3375 7.69304C58.848 10.5876 58.0732 12.4075 58.0732 12.4075Z" fill="#2F2E41"/>
<path d="M98.9411 60.483H28.4504V88.7961H98.9411V60.483Z" fill="#3F3D56"/>
<path d="M53.5393 83.3996C53.5316 83.4013 53.5239 83.403 53.5161 83.4046C53.3311 83.4424 53.1447 83.4756 52.9553 83.4984C52.8915 83.5068 52.8259 83.5131 52.7622 83.5194C52.6966 83.5257 52.6328 83.532 52.5672 83.5362C52.4604 83.5445 52.3516 83.5487 52.2429 83.5508C52.196 83.5529 52.1473 83.5529 52.1004 83.5529H52.0723C52.0142 83.5529 51.956 83.5529 51.8979 83.5508C51.8473 83.5487 51.7967 83.5466 51.7479 83.5445C51.7198 83.5445 51.6917 83.5425 51.6655 83.5404C50.4768 83.4686 49.3181 83.0963 48.2766 82.4515C47.2351 81.8066 46.3379 80.9059 45.6523 79.8173C44.9668 78.7286 44.5109 77.4802 44.3188 76.1659C44.1267 74.8517 44.2035 73.5059 44.5433 72.2296C44.8832 70.9534 45.4773 69.7799 46.281 68.7975C47.0846 67.8152 48.0769 67.0494 49.1833 66.5579C50.2896 66.0664 51.4812 65.8619 52.6683 65.9597C53.8555 66.0576 55.0074 66.4553 56.0374 67.123C54.8432 67.8969 53.8519 69.0084 53.1627 70.3461C52.4736 71.6837 52.1108 73.2005 52.1108 74.7444C52.1108 76.2883 52.4736 77.8051 53.1627 79.1428C53.8519 80.4804 54.8432 81.5919 56.0374 82.3659C55.2635 82.8674 54.4186 83.217 53.5393 83.3996Z" fill="#6C63FF"/>
<path d="M65.3828 81.6381C65.6835 81.9071 66.0019 82.1503 66.3352 82.3659C65.1395 83.1435 63.7812 83.553 62.3982 83.5529H62.2969C61.0925 83.5375 59.9073 83.2131 58.8325 82.6048C57.7578 81.9964 56.8221 81.1204 56.0974 80.044C55.3728 78.9677 54.8786 77.7197 54.6528 76.3961C54.427 75.0725 54.4756 73.7086 54.795 72.4094C55.1143 71.1101 55.6958 69.9101 56.4948 68.9018C57.2937 67.8934 58.2888 67.1035 59.4035 66.5929C60.5182 66.0823 61.7227 65.8645 62.9244 65.9564C64.1261 66.0483 65.293 66.4474 66.3352 67.123C65.2229 67.8395 64.2845 68.8499 63.6019 70.0658C62.9192 71.2817 62.5132 72.6662 62.4193 74.0981C62.3253 75.5301 62.5463 76.966 63.0629 78.2804C63.5795 79.5948 64.376 80.7476 65.3828 81.6381Z" fill="#6C63FF"/>
<path d="M80.5682 74.7444C80.5682 76.4866 80.1064 78.1896 79.2412 79.6382C78.376 81.0867 77.1463 82.2157 75.7075 82.8824C74.2687 83.5491 72.6855 83.7236 71.1581 83.3837C69.6307 83.0438 68.2277 82.2049 67.1265 80.973C66.0254 79.7411 65.2754 78.1716 64.9716 76.4629C64.6678 74.7542 64.8237 72.9831 65.4197 71.3736C66.0156 69.764 67.0249 68.3883 68.3197 67.4204C69.6146 66.4525 71.137 65.9359 72.6943 65.9359C73.7283 65.9358 74.7523 66.1636 75.7076 66.6062C76.663 67.0488 77.531 67.6977 78.2622 68.5156C78.9934 69.3336 79.5734 70.3047 79.9691 71.3734C80.3647 72.4422 80.5683 73.5877 80.5682 74.7444Z" fill="#6C63FF"/>
<path d="M75.8812 81.6654C75.8815 82.0641 75.8457 82.4618 75.7744 82.8524C74.8 83.3147 73.7525 83.5529 72.6942 83.5529C71.6358 83.5529 70.5883 83.3147 69.6139 82.8524C69.5426 82.4618 69.5068 82.0641 69.5071 81.6654C69.5071 79.5933 70.4501 77.8421 71.7493 77.2569C71.2306 77.0129 70.8034 76.5755 70.5401 76.0192C70.2769 75.4628 70.1938 74.8216 70.3051 74.2046C70.4164 73.5875 70.7151 73.0325 71.1506 72.6338C71.5861 72.2351 72.1314 72.0173 72.6942 72.0173C73.2569 72.0173 73.8023 72.2351 74.2377 72.6338C74.6732 73.0325 74.9719 73.5875 75.0832 74.2046C75.1945 74.8216 75.1115 75.4628 74.8482 76.0192C74.585 76.5755 74.1577 77.0129 73.639 77.2569C74.9382 77.8421 75.8812 79.5933 75.8812 81.6654Z" fill="white"/>
<path d="M65.3825 81.6381V81.6654C65.3562 82.1597 65.2935 82.6507 65.195 83.1335C64.2782 83.5697 63.3521 83.5382 62.2966 83.5529H62.1954C61.1369 83.5543 60.0891 83.3161 59.1152 82.8524C59.1076 82.8165 59.102 82.7801 59.0983 82.7434C59.0375 82.3881 59.0074 82.0271 59.0083 81.6654C59.0083 79.5933 59.9513 77.8421 61.2505 77.2569C60.7318 77.0129 60.3046 76.5757 60.0414 76.0193C59.7781 75.463 59.6951 74.8219 59.8064 74.2049C59.9177 73.5878 60.2164 73.0329 60.6519 72.6343C61.0873 72.2356 61.6327 72.0179 62.1954 72.018C62.3862 72.0174 62.5763 72.0427 62.7616 72.0935C62.2825 73.7941 62.2766 75.6175 62.7446 77.3219C63.2127 79.0264 64.1326 80.5316 65.3825 81.6381H65.3825Z" fill="white"/>
<path d="M55.2554 81.787C55.2513 82.145 55.2168 82.5018 55.1523 82.8525C54.4518 83.1859 53.7117 83.4035 52.9551 83.4984C52.8914 83.5068 52.8258 83.5131 52.762 83.5194C52.6964 83.5257 52.6327 83.532 52.567 83.5362C52.4602 83.5446 52.3514 83.5488 52.2427 83.5509C52.2202 83.553 52.1958 83.553 52.1733 83.553H52.0721C52.014 83.553 51.9559 83.553 51.8978 83.5509C51.8471 83.5488 51.7965 83.5467 51.7478 83.5446C51.7197 83.5446 51.6915 83.5425 51.6653 83.5404C50.7448 83.4894 49.8397 83.2565 48.9919 82.8525C48.9904 82.8478 48.9897 82.8428 48.99 82.8378C48.983 82.8068 48.978 82.7752 48.975 82.7434C48.9142 82.3881 48.8841 82.0271 48.885 81.6654C48.885 79.5933 49.828 77.8421 51.1272 77.257C50.6085 77.013 50.1813 76.5757 49.9181 76.0194C49.6548 75.463 49.5718 74.8219 49.6831 74.2049C49.7944 73.5879 50.0931 73.0329 50.5286 72.6343C50.9641 72.2357 51.5094 72.0179 52.0721 72.018C52.2072 72.0178 52.342 72.0304 52.4752 72.0557C51.9758 73.7998 51.9752 75.6746 52.4736 77.419C52.972 79.1634 53.9444 80.6903 55.2554 81.787H55.2554Z" fill="white"/>
</g>
<defs>
<clipPath id="clip0">
<rect width="171" height="107" fill="white" transform="translate(0.42627)"/>
</clipPath>
</defs>
</svg>
