<svg width="280" height="152" viewBox="0 0 280 152" fill="none" xmlns="http://www.w3.org/2000/svg">
<g clip-path="url(#clip0)">
<path d="M140.898 168C216.823 168 278.371 163.932 278.371 158.914C278.371 153.897 216.823 149.829 140.898 149.829C64.974 149.829 3.42517 153.897 3.42517 158.914C3.42517 163.932 64.974 168 140.898 168Z" fill="#F2F2F2"/>
<path d="M135.629 59.4511C113.231 59.4511 97.1496 73.7968 97.1496 107.27C97.1496 145.206 113.231 155.248 135.629 155.248C158.027 155.248 175.067 144.25 175.067 107.27C175.067 67.7397 158.027 59.4511 135.629 59.4511ZM135.776 142.656C120.263 142.656 112.158 133.57 112.158 107.295C112.158 84.1102 120.595 71.884 136.108 71.884C151.622 71.884 160.058 79.9149 160.058 107.295C160.058 132.908 151.29 142.656 135.776 142.656Z" fill="#2F2E41"/>
<path d="M83.7375 128.789H74.4768V101.564C74.4768 100.118 73.9015 98.7316 72.8773 97.7092C71.8531 96.6867 70.4639 96.1123 69.0155 96.1123H66.8455C66.1283 96.1123 65.4182 96.2533 64.7556 96.5273C64.093 96.8013 63.4909 97.2029 62.9838 97.7092C62.4766 98.2154 62.0744 98.8165 61.7999 99.4779C61.5254 100.139 61.3842 100.848 61.3842 101.564V128.789H35.263C34.7256 128.789 34.1974 128.65 33.7295 128.386C33.2616 128.122 32.87 127.742 32.5926 127.283C32.3152 126.823 32.1615 126.3 32.1464 125.764C32.1313 125.227 32.2553 124.696 32.5063 124.222L60.1527 71.9847C60.4974 71.3335 60.7063 70.6192 60.7668 69.8852C60.8274 69.1511 60.7383 68.4123 60.505 67.7136C60.2716 67.0148 59.8989 66.3704 59.4092 65.8195C58.9195 65.2685 58.3231 64.8222 57.6559 64.5077L56.0239 63.7383C54.7567 63.1409 53.3078 63.0527 51.9773 63.492C50.6467 63.9312 49.5362 64.8643 48.8755 66.0981L15.1571 129.068C14.5829 130.14 14.2825 131.337 14.2825 132.553C14.2825 133.524 14.474 134.485 14.8462 135.382C15.2184 136.279 15.7638 137.094 16.4515 137.781C17.1392 138.467 17.9556 139.012 18.854 139.383C19.7525 139.755 20.7155 139.946 21.688 139.946H61.3842V157.161C61.3842 158.019 61.5535 158.869 61.8825 159.662C62.2115 160.455 62.6937 161.175 63.3016 161.782C63.9094 162.389 64.6311 162.87 65.4253 163.199C66.2196 163.527 67.0708 163.696 67.9305 163.696C68.7902 163.696 69.6415 163.527 70.4357 163.199C71.2299 162.87 71.9516 162.389 72.5595 161.782C73.1674 161.175 73.6496 160.455 73.9785 159.662C74.3075 158.869 74.4768 158.019 74.4768 157.161V139.946H83.7375C85.2196 139.946 86.6411 139.358 87.6891 138.312C88.7371 137.266 89.3259 135.847 89.3259 134.367C89.3259 132.888 88.7371 131.469 87.6891 130.423C86.6411 129.376 85.2197 128.789 83.7375 128.789Z" fill="#5F4DEF"/>
<path d="M255.22 128.789H245.959V101.564C245.959 100.118 245.384 98.7316 244.359 97.7092C243.335 96.6867 241.946 96.1123 240.498 96.1123H238.328C237.61 96.1123 236.9 96.2533 236.238 96.5273C235.575 96.8013 234.973 97.2029 234.466 97.7092C233.959 98.2154 233.557 98.8165 233.282 99.4779C233.008 100.139 232.866 100.848 232.866 101.564V128.789H206.745C206.208 128.789 205.679 128.65 205.212 128.386C204.744 128.122 204.352 127.742 204.075 127.283C203.797 126.823 203.644 126.3 203.629 125.764C203.613 125.227 203.737 124.696 203.988 124.222L231.635 71.9848C231.98 71.3335 232.188 70.6193 232.249 69.8852C232.31 69.1511 232.22 68.4123 231.987 67.7136C231.754 67.0148 231.381 66.3705 230.891 65.8195C230.402 65.2685 229.805 64.8222 229.138 64.5077L227.506 63.7383C226.239 63.1409 224.79 63.0527 223.459 63.492C222.129 63.9312 221.018 64.8643 220.358 66.0981L186.639 129.068C186.065 130.14 185.765 131.337 185.765 132.553C185.765 134.514 186.545 136.394 187.934 137.781C189.322 139.167 191.206 139.946 193.17 139.946H232.866V157.161C232.866 158.894 233.556 160.557 234.784 161.782C236.011 163.008 237.676 163.696 239.413 163.696C241.149 163.696 242.814 163.008 244.042 161.782C245.269 160.557 245.959 158.894 245.959 157.161V139.946H255.22C256.702 139.946 258.123 139.358 259.171 138.312C260.219 137.266 260.808 135.847 260.808 134.367C260.808 132.888 260.219 131.469 259.171 130.423C258.123 129.376 256.702 128.789 255.22 128.789Z" fill="#5F4DEF"/>
<path d="M86.2922 125.601H77.0316V98.3764C77.0316 97.6605 76.8903 96.9515 76.6158 96.29C76.3414 95.6285 75.9391 95.0275 75.432 94.5212C74.9248 94.0149 74.3228 93.6133 73.6602 93.3394C72.9976 93.0654 72.2874 92.9243 71.5702 92.9243H69.4002C67.9518 92.9243 66.5627 93.4988 65.5385 94.5212C64.5143 95.5437 63.9389 96.9305 63.9389 98.3764V125.601H37.8177C37.2803 125.601 36.752 125.462 36.2842 125.198C35.8163 124.934 35.4247 124.554 35.1473 124.095C34.8699 123.635 34.7162 123.112 34.7011 122.576C34.686 122.039 34.81 121.508 35.061 121.034L62.7074 68.7968C63.0521 68.1456 63.261 67.4313 63.3215 66.6972C63.3821 65.9631 63.293 65.2244 63.0597 64.5256C62.8263 63.8268 62.4536 63.1825 61.9639 62.6315C61.4742 62.0805 60.8778 61.6343 60.2106 61.3198L58.5786 60.5504C57.3113 59.953 55.8625 59.8648 54.532 60.304C53.2014 60.7433 52.0909 61.6763 51.4302 62.9102L17.7117 125.88C17.1376 126.952 16.8372 128.149 16.8372 129.365C16.8372 131.326 17.6174 133.207 19.0062 134.593C20.395 135.979 22.2786 136.758 24.2427 136.758H63.9389V153.973C63.9389 154.831 64.1082 155.681 64.4372 156.474C64.7662 157.267 65.2484 157.987 65.8563 158.594C66.4641 159.201 67.1858 159.682 67.98 160.011C68.7743 160.339 69.6255 160.508 70.4852 160.508C72.2214 160.508 73.8865 159.82 75.1142 158.594C76.3418 157.369 77.0315 155.706 77.0315 153.973V136.758H86.2922C87.0261 136.758 87.7528 136.614 88.4308 136.334C89.1088 136.053 89.7248 135.642 90.2438 135.124C90.7627 134.606 91.1743 133.991 91.4552 133.314C91.736 132.638 91.8806 131.912 91.8806 131.179C91.8806 130.447 91.736 129.721 91.4552 129.045C91.1743 128.368 90.7627 127.753 90.2438 127.235C89.7249 126.717 89.1088 126.306 88.4308 126.025C87.7528 125.745 87.0261 125.601 86.2922 125.601Z" stroke="#3F3D56" stroke-miterlimit="10"/>
<path d="M260.01 125.601H250.749V98.3764C250.749 96.9305 250.174 95.5437 249.149 94.5212C248.125 93.4988 246.736 92.9243 245.288 92.9243H243.118C242.4 92.9243 241.69 93.0654 241.028 93.3394C240.365 93.6134 239.763 94.015 239.256 94.5212C238.749 95.0275 238.347 95.6285 238.072 96.29C237.798 96.9515 237.656 97.6605 237.656 98.3764V125.601H211.535C210.998 125.601 210.469 125.462 210.002 125.198C209.534 124.934 209.142 124.554 208.865 124.095C208.587 123.635 208.434 123.112 208.419 122.576C208.403 122.039 208.527 121.508 208.778 121.034L236.425 68.7968C236.77 68.1456 236.978 67.4313 237.039 66.6972C237.1 65.9631 237.01 65.2244 236.777 64.5256C236.544 63.8268 236.171 63.1825 235.681 62.6315C235.192 62.0805 234.595 61.6343 233.928 61.3198L232.296 60.5504C231.029 59.953 229.58 59.8648 228.249 60.304C226.919 60.7433 225.808 61.6763 225.148 62.9102L191.429 125.88C190.855 126.952 190.555 128.149 190.555 129.365C190.555 131.326 191.335 133.207 192.724 134.593C194.112 135.979 195.996 136.758 197.96 136.758H237.656V153.973C237.656 155.706 238.346 157.369 239.574 158.594C240.801 159.82 242.466 160.508 244.203 160.508V160.508C245.939 160.508 247.604 159.82 248.832 158.594C250.059 157.369 250.749 155.706 250.749 153.973V136.758H260.01C260.744 136.758 261.47 136.614 262.148 136.334C262.826 136.053 263.442 135.642 263.961 135.124C264.48 134.606 264.892 133.991 265.173 133.314C265.453 132.638 265.598 131.912 265.598 131.179V131.179C265.598 129.7 265.009 128.281 263.961 127.235C262.913 126.188 261.492 125.601 260.01 125.601V125.601Z" stroke="#3F3D56" stroke-miterlimit="10"/>
<path d="M140.739 56.582C118.34 56.582 102.259 70.9276 102.259 104.401C102.259 142.337 118.34 152.379 140.739 152.379C163.137 152.379 180.176 141.381 180.176 104.401C180.176 64.8706 163.137 56.582 140.739 56.582ZM140.886 139.787C125.372 139.787 117.268 130.701 117.268 104.425C117.268 81.2411 125.704 69.0149 141.218 69.0149C156.731 69.0149 165.168 77.0458 165.168 104.425C165.168 130.039 156.399 139.787 140.886 139.787V139.787Z" stroke="#3F3D56" stroke-miterlimit="10"/>
<path d="M122.785 24.1048C124.642 24.1048 126.147 22.602 126.147 20.7482C126.147 18.8945 124.642 17.3917 122.785 17.3917C120.928 17.3917 119.423 18.8945 119.423 20.7482C119.423 22.602 120.928 24.1048 122.785 24.1048Z" fill="#2F2E41"/>
<path d="M130.986 40.3961C136.194 40.3961 140.416 34.9349 140.416 28.1981C140.416 21.4613 136.194 16 130.986 16C125.777 16 121.555 21.4613 121.555 28.1981C121.555 34.9349 125.777 40.3961 130.986 40.3961Z" fill="#2F2E41"/>
<path opacity="0.1" d="M130.986 36.7121C126.261 36.7121 122.349 32.2188 121.662 26.3561C121.591 26.9675 121.555 27.5825 121.555 28.1981C121.555 34.9349 125.777 40.3961 130.986 40.3961C136.194 40.3961 140.416 34.9349 140.416 28.1981C140.416 27.5825 140.381 26.9675 140.309 26.3561C139.623 32.2188 135.71 36.7121 130.986 36.7121Z" fill="black"/>
<path d="M150.176 63.9206C149.973 64.7514 149.1 65.4168 148.133 65.8817C146.1 66.8592 143.592 67.1508 141.159 67.2487C140.538 67.2864 139.916 67.2749 139.297 67.2144C138.098 67.0986 136.973 66.5824 136.104 65.7493C136.042 65.7089 135.992 65.6535 135.957 65.5883C135.922 65.523 135.904 65.4501 135.906 65.3762C135.907 65.3023 135.927 65.2299 135.963 65.1657C136 65.1016 136.052 65.0478 136.116 65.0094C137.411 63.5891 139.572 62.7183 141.749 62.0913C143.4 61.6158 146.279 60.3843 148.079 60.5505C149.823 60.7115 150.431 62.8715 150.176 63.9206Z" fill="#3F3D56"/>
<path opacity="0.1" d="M150.176 63.9206C149.973 64.7514 149.1 65.4168 148.133 65.8817C146.1 66.8592 143.592 67.1508 141.159 67.2487C140.538 67.2864 139.916 67.2749 139.297 67.2144C138.098 67.0986 136.973 66.5824 136.104 65.7493C136.042 65.7089 135.992 65.6535 135.957 65.5883C135.922 65.523 135.904 65.4501 135.906 65.3762C135.907 65.3023 135.927 65.2299 135.963 65.1657C136 65.1016 136.052 65.0478 136.116 65.0094C137.411 63.5891 139.572 62.7183 141.749 62.0913C143.4 61.6158 146.279 60.3843 148.079 60.5505C149.823 60.7115 150.431 62.8715 150.176 63.9206Z" fill="black"/>
<path d="M124.323 57.711C123.703 58.9253 123.59 60.336 124.011 61.633C124.439 62.9202 125.24 64.0517 126.312 64.8843C128.943 66.9895 132.564 67.2792 135.935 67.25C138.89 67.2243 141.841 67.0224 144.771 66.6454C145.753 66.5585 146.718 66.3348 147.638 65.9808C148.739 65.5055 149.706 64.6338 150.097 63.5025C150.489 62.3712 150.211 60.986 149.281 60.231C148.463 59.5677 147.336 59.4764 146.284 59.4133L140.267 59.0524C140.862 58.4518 141.653 58.1121 142.377 57.6755C143.338 57.0962 143.976 56.1237 144.674 55.2469C145.75 53.9631 146.921 52.7615 148.176 51.6521C148.372 52.7735 149.083 53.6944 149.919 54.4682C150.755 55.242 151.72 55.8649 152.589 56.6016C154.694 58.386 156.21 60.8078 158.424 62.4556C159.948 62.056 161.372 61.3463 162.607 60.371L161.746 58.8148C161.675 58.6547 161.563 58.5156 161.422 58.4108C161.178 58.2612 160.864 58.3383 160.582 58.296C159.826 58.1828 159.495 57.3115 159.199 56.6082C158.384 54.6773 156.825 53.1791 155.493 51.5599C154.51 50.3646 153.639 49.0824 152.888 47.7294C152.441 46.9225 152.031 46.0823 151.424 45.387C150.817 44.6918 149.967 44.1452 149.043 44.1433C148.226 44.1416 147.474 44.5553 146.772 44.9714C144.634 46.239 142.577 47.6379 140.613 49.1599C139.586 49.9565 138.564 50.7981 137.359 51.2865C136.851 51.4922 136.316 51.6327 135.829 51.8829C134.976 52.3211 134.329 53.0626 133.632 53.7208C131.146 56.0684 127.743 57.5894 124.323 57.711Z" fill="#3F3D56"/>
<path d="M136.905 41.0019C136.877 41.7195 136.724 42.4268 136.453 43.092C136.316 43.4237 136.111 43.7237 135.853 43.9732C135.594 44.2226 135.287 44.4162 134.95 44.5418C134.471 44.6698 133.97 44.686 133.484 44.5893C133.061 44.5451 132.653 44.4064 132.29 44.1832C131.726 43.796 131.445 43.1051 131.342 42.4288C131.24 41.7534 131.286 41.0633 131.22 40.383C131.156 39.8335 131.052 39.2895 130.907 38.7555C130.863 38.5779 130.817 38.401 130.773 38.2242C130.73 38.0474 130.687 37.8705 130.648 37.6937C130.612 37.5275 130.578 37.3605 130.549 37.1927C130.526 37.0511 130.504 36.9086 130.489 36.7653C130.474 36.3406 130.403 35.9197 130.278 35.5136C130.16 35.2503 130.013 35.0011 129.838 34.7711C129.764 34.6647 129.692 34.5582 129.625 34.4477C129.433 34.1605 129.344 33.8169 129.372 33.4727C129.38 33.4195 129.393 33.3671 129.41 33.3163C129.417 33.2967 129.424 33.277 129.432 33.2582C129.506 33.2382 129.574 33.2005 129.63 33.1485C129.686 33.0964 129.728 33.0315 129.753 32.9594C129.781 32.8045 129.768 32.6449 129.715 32.4968C129.653 32.2899 129.569 32.0903 129.464 31.9017C129.396 31.7772 129.162 31.5529 129.16 31.4105C129.157 31.1239 129.718 30.8931 129.945 30.7801C130.638 30.4335 131.411 30.277 132.185 30.3266C132.681 30.3601 133.219 30.5124 133.493 30.9275C133.739 31.3016 133.707 31.7862 133.811 32.2209C133.823 32.2841 133.849 32.3435 133.889 32.3937C133.943 32.4424 134.01 32.4733 134.082 32.4821C134.204 32.5062 134.328 32.5112 134.451 32.4968H134.452C134.484 32.4943 134.517 32.4896 134.549 32.4829C134.74 32.4476 134.921 32.3695 135.078 32.2545C135.18 32.2275 135.283 32.2054 135.386 32.1882C135.39 32.1878 135.394 32.1869 135.398 32.1857C135.809 33.48 135.862 34.8677 136.199 36.1857C136.365 36.8415 136.604 37.489 136.637 38.1636C136.64 38.1931 136.641 38.2234 136.642 38.2537C136.646 38.4706 136.629 38.6892 136.638 38.9053C136.641 39.0026 136.652 39.0995 136.671 39.1951C136.708 39.3488 136.754 39.5003 136.808 39.6487L136.81 39.656C136.826 39.7035 136.841 39.7518 136.853 39.8001C136.862 39.8353 136.87 39.8697 136.877 39.9049L136.878 39.9074C136.938 40.2691 136.948 40.6376 136.905 41.0019Z" fill="#FBBEBE"/>
<path d="M131.15 32.537C133.822 32.537 135.988 30.3745 135.988 27.7069C135.988 25.0393 133.822 22.8768 131.15 22.8768C128.477 22.8768 126.311 25.0393 126.311 27.7069C126.311 30.3745 128.477 32.537 131.15 32.537Z" fill="#FBBEBE"/>
<path d="M161.867 54.0236C161.727 52.7058 161.258 51.4442 160.502 50.3543C160.628 51.0993 160.754 51.844 160.88 52.5885C160.723 52.6337 160.557 52.6323 160.401 52.5845C160.245 52.5366 160.106 52.4444 160.002 52.3191C159.799 52.0652 159.643 51.7764 159.542 51.4669C158.993 50.1046 158.274 48.8166 157.403 47.6331C154.323 47.3769 151.278 46.1022 148.569 44.6163C145.86 43.1313 143.324 41.3507 140.651 39.8026C140.187 39.5229 139.704 39.2767 139.206 39.0658C138.369 38.731 137.43 38.5574 136.637 38.1636C136.584 38.1374 136.531 38.1096 136.478 38.0809C136.299 37.9837 136.129 37.8699 135.971 37.7412C135.886 37.672 135.805 37.5976 135.729 37.5185C135.333 37.059 135.019 36.5351 134.801 35.9696C134.376 35.0298 134.224 33.8959 133.799 32.9561C133.994 32.774 134.214 32.6194 134.451 32.4968H134.452C134.486 32.4788 134.521 32.4616 134.556 32.4453C134.724 32.3663 134.899 32.3024 135.078 32.2545C135.18 32.2275 135.283 32.2054 135.386 32.1882C135.39 32.1878 135.394 32.187 135.398 32.1858C135.877 32.1078 136.368 32.1466 136.829 32.2987C137.503 32.5263 138.072 32.9807 138.638 33.4105C139.559 34.0579 140.442 34.7571 141.283 35.5046C141.75 35.9516 142.177 36.4428 142.68 36.8489C143.097 37.1707 143.538 37.4621 143.997 37.7207C146.717 39.3384 149.438 40.9558 152.158 42.5729C153.079 43.1206 154.001 43.6683 154.902 44.2479C156.269 45.1288 157.588 46.0834 158.906 47.0371C159.682 47.5987 160.459 48.1606 161.235 48.7227C161.489 48.8849 161.713 49.0912 161.895 49.3318C162.056 49.6051 162.156 49.9097 162.188 50.225C162.382 51.4987 162.273 52.8004 161.867 54.0236Z" fill="#FBBEBE"/>
<path d="M138.104 44.6343C137.778 46.0956 136.299 46.979 135.525 48.2626C134.564 49.8557 134.956 51.7076 135.317 53.5324C134.658 54.0997 133.998 54.667 133.338 55.2344C132.974 55.5463 132.61 55.8598 132.218 56.1357C131.647 56.518 131.049 56.8605 130.43 57.1607C129.847 57.4603 129.263 57.7602 128.679 58.0604C128.136 58.365 127.561 58.6083 126.964 58.7857C125.814 59.0804 124.592 58.8741 123.453 58.5327C123.319 58.4976 123.19 58.445 123.07 58.3764C122.999 58.3341 122.937 58.2782 122.888 58.2118C122.775 58.011 122.735 57.7781 122.772 57.5512C122.888 55.6388 123.356 53.7665 123.822 51.9081C124.072 50.7932 124.407 49.6993 124.825 48.6359C125.236 47.7248 125.707 46.8425 126.237 45.9949C126.821 44.9286 127.514 43.9248 128.303 42.9995C128.688 42.6433 129.011 42.2268 129.261 41.7665C129.552 41.1034 129.44 40.3429 129.499 39.6208C129.544 39.0783 129.688 38.5487 129.924 38.058C130.051 37.7937 130.203 37.5417 130.379 37.3073C130.458 37.4923 130.538 37.6771 130.617 37.8615C130.67 37.9827 130.722 38.1036 130.773 38.2242C130.84 38.3798 130.907 38.5348 130.973 38.6892C131.164 39.1329 131.355 39.5764 131.546 40.0195C131.752 40.5777 132.045 41.0997 132.415 41.566C132.584 41.8048 132.812 41.9957 133.077 42.1201C133.342 42.2445 133.635 42.2981 133.927 42.2757C134.219 42.2534 134.501 42.1558 134.744 41.9925C134.987 41.8292 135.183 41.6058 135.314 41.3441C135.589 40.8556 135.789 40.3281 135.906 39.7797C136.068 39.1119 136.09 38.418 135.972 37.7412C135.774 36.4379 135.219 35.1068 134.815 33.896C134.651 33.4922 134.556 33.0638 134.534 32.6287C134.535 32.5798 134.54 32.531 134.549 32.4829C134.551 32.4707 134.554 32.4576 134.556 32.4453C134.724 32.3663 134.899 32.3024 135.078 32.2545C135.18 32.2275 135.283 32.2054 135.386 32.1882C135.741 34.1072 136.097 36.0261 136.453 37.945C136.461 37.9901 136.47 38.0351 136.478 38.0809C136.529 38.356 136.581 38.6311 136.638 38.9053C136.69 39.1542 136.746 39.4023 136.808 39.6487L136.81 39.656C136.832 39.7396 136.854 39.8222 136.877 39.9049L136.878 39.9074C136.941 40.1333 137.011 40.3576 137.091 40.5787C137.573 41.9106 138.414 43.2516 138.104 44.6343Z" fill="#5F4DEF"/>
<path d="M157.74 65.1704C157.725 65.4519 157.779 65.7328 157.899 65.9882C158.202 66.5407 158.928 66.6663 159.557 66.7179C163.23 67.0193 166.925 66.9069 170.572 66.3829C170.77 66.3694 170.962 66.3099 171.133 66.2092C171.651 65.8462 171.332 64.9616 170.765 64.6785C170.199 64.3953 169.527 64.4635 168.906 64.3409C168.289 64.1858 167.701 63.9313 167.166 63.5874C165.906 62.8647 164.664 62.1112 163.441 61.327C162.712 60.8601 161.853 60.3618 161.033 60.6386C158.811 61.389 157.725 62.7778 157.74 65.1704Z" fill="#3F3D56"/>
<path d="M130.667 37.5914V37.5922C130.661 37.6266 130.655 37.6602 130.648 37.6937C130.639 37.7494 130.628 37.8059 130.617 37.8615C130.516 38.3814 130.391 38.8988 130.248 39.4129C129.854 40.8333 129.327 42.2307 128.803 43.6077C127.4 47.2999 125.995 50.9923 124.591 54.685C124.237 55.615 123.883 56.5458 123.48 57.457C123.346 57.7607 123.207 58.0669 123.07 58.3764C122.576 59.484 122.102 60.6277 121.945 61.8066C121.798 62.5824 121.781 63.3772 121.894 64.1586C122.052 64.9314 122.522 65.6862 123.257 65.9719C123.617 66.1119 124.131 66.2994 124.032 66.6719C123.979 66.8765 123.746 66.9764 123.537 67.0108C123.261 67.0547 122.978 67.0374 122.71 66.9602C122.441 66.883 122.193 66.7476 121.982 66.5638C121.589 66.2159 121.288 65.6747 120.765 65.6166C120.404 65.5773 120.071 65.7934 119.739 65.9449C118.388 66.5613 116.813 66.1299 115.394 65.6919C115.505 65.118 116.083 64.7398 116.656 64.6252C117.229 64.5098 117.822 64.5917 118.407 64.5761C118.594 64.5861 118.78 64.5383 118.939 64.4394C119.082 64.3086 119.182 64.138 119.226 63.9498C119.603 62.8357 119.883 61.6914 120.063 60.5294C120.252 59.3154 120.331 58.0825 120.6 56.8831C120.809 55.9474 121.132 55.0412 121.409 54.1226C121.945 52.2314 122.385 50.3144 122.728 48.3789C122.901 47.5748 123.025 46.7609 123.099 45.9417C123.146 45.2622 123.124 44.5795 123.189 43.9024C123.299 43.0216 123.484 42.1516 123.74 41.3016C123.991 40.374 124.241 39.447 124.492 38.5206C124.863 37.1493 125.262 35.7248 126.203 34.6589C126.53 34.2837 126.931 33.9795 127.38 33.7651C127.83 33.5508 128.319 33.4309 128.817 33.4129C129.003 33.4127 129.189 33.4327 129.372 33.4727C129.402 33.4801 129.432 33.4874 129.463 33.4956C129.661 33.5475 129.852 33.6263 130.029 33.7298C130.32 33.5456 130.467 33.6102 130.66 33.8943C130.829 34.1949 130.909 34.5374 130.89 34.8816C130.906 35.79 130.831 36.6978 130.667 37.5914Z" fill="#FBBEBE"/>
<path d="M130.986 38.6769L130.973 38.6892L130.907 38.7555L130.248 39.4129L129.924 38.058L128.817 33.4129C129.003 33.4127 129.189 33.4327 129.372 33.4727C129.38 33.4195 129.393 33.3671 129.41 33.3163L129.463 33.4956L129.838 34.7711L130.549 37.1927L130.667 37.5914L130.986 38.6769Z" fill="#5F4DEF"/>
<path d="M135.169 23.8579C135.169 24.288 135.083 24.7138 134.918 25.1109C134.752 25.5081 134.51 25.8687 134.205 26.1723C134.095 26.2828 133.976 26.3851 133.851 26.4784C133.285 26.9043 132.595 27.1348 131.887 27.1351H127.952C127.083 27.1338 126.25 26.7881 125.636 26.1739C125.021 25.5598 124.676 24.7274 124.676 23.8595C124.676 22.9916 125.021 22.1592 125.636 21.5451C126.25 20.9309 127.083 20.5852 127.952 20.5839H131.887C132.756 20.5862 133.589 20.9317 134.204 21.5451C134.819 22.1585 135.166 22.99 135.169 23.8579Z" fill="#2F2E41"/>
<path d="M138.858 24.1048C140.715 24.1048 142.22 22.602 142.22 20.7482C142.22 18.8945 140.715 17.3917 138.858 17.3917C137.001 17.3917 135.496 18.8945 135.496 20.7482C135.496 22.602 137.001 24.1048 138.858 24.1048Z" fill="#2F2E41"/>
<path opacity="0.1" d="M138.776 17.3917C138.735 17.3917 138.694 17.3934 138.653 17.3948C139.523 17.4264 140.346 17.7935 140.951 18.419C141.555 19.0444 141.892 19.8794 141.892 20.7482C141.892 21.6171 141.555 22.4521 140.951 23.0775C140.346 23.703 139.523 24.0701 138.653 24.1016C138.694 24.1031 138.735 24.1047 138.776 24.1047C139.668 24.1047 140.523 23.7511 141.153 23.1216C141.784 22.4922 142.138 21.6384 142.138 20.7482C142.138 19.858 141.784 19.0043 141.153 18.3748C140.523 17.7454 139.668 17.3917 138.776 17.3917Z" fill="black"/>
<path opacity="0.1" d="M122.785 17.3917C122.826 17.3917 122.867 17.3934 122.908 17.3948C122.038 17.4264 121.215 17.7935 120.611 18.419C120.006 19.0444 119.669 19.8794 119.669 20.7482C119.669 21.6171 120.006 22.4521 120.611 23.0775C121.215 23.703 122.038 24.0701 122.908 24.1016C122.867 24.1031 122.826 24.1047 122.785 24.1047C121.894 24.104 121.039 23.75 120.41 23.1206C119.78 22.4912 119.426 21.6379 119.426 20.7482C119.426 19.8585 119.78 19.0053 120.41 18.3759C121.039 17.7465 121.894 17.3925 122.785 17.3917Z" fill="black"/>
<path opacity="0.1" d="M133.851 26.4784C133.285 26.9043 132.595 27.1348 131.887 27.1351H127.952C127.244 27.1348 126.554 26.9043 125.989 26.4784H133.851Z" fill="black"/>
<path d="M159.256 50.7994C159.256 50.7994 160.104 53.2376 160.88 52.5884L160.261 49.4014L159.256 50.7994Z" fill="#FBBEBE"/>
<path d="M262.401 125.155C263.191 125.441 264.036 125.541 264.87 125.445C265.705 125.35 266.506 125.063 267.21 124.606C267.915 124.149 268.503 123.535 268.929 122.812C269.355 122.089 269.607 121.277 269.665 120.441C269.723 119.604 269.586 118.766 269.264 117.991C268.942 117.216 268.445 116.527 267.811 115.977C267.176 115.427 266.423 115.032 265.609 114.823C264.796 114.613 263.945 114.595 263.123 114.77L263.259 117.557L261.938 115.168C260.642 115.776 259.641 116.873 259.154 118.218C258.981 118.689 258.876 119.183 258.842 119.683C258.759 120.857 259.061 122.027 259.703 123.014C260.346 124.002 261.293 124.753 262.401 125.155Z" fill="#57B894"/>
<path d="M268.937 157.479C268.47 155.109 270.491 153.008 272.486 151.642C274.482 150.276 276.814 148.934 277.495 146.616C278.473 143.285 275.558 140.234 273.29 137.603C271.606 135.651 270.161 133.506 268.983 131.214C268.511 130.295 268.078 129.335 267.953 128.309C267.774 126.833 268.25 125.363 268.728 123.955C270.323 119.263 272.028 114.61 273.844 109.997" stroke="#3F3D56" stroke-miterlimit="10"/>
<path d="M262.624 124.437C263.414 124.724 264.259 124.823 265.094 124.728C265.928 124.633 266.729 124.345 267.434 123.888C268.138 123.431 268.726 122.817 269.152 122.094C269.578 121.372 269.83 120.56 269.889 119.723C269.947 118.887 269.81 118.048 269.488 117.273C269.166 116.499 268.668 115.809 268.034 115.26C267.4 114.71 266.646 114.315 265.833 114.105C265.019 113.896 264.168 113.878 263.347 114.052L263.483 116.839L262.162 114.451C260.865 115.059 259.864 116.156 259.377 117.501C259.205 117.972 259.1 118.465 259.065 118.965C258.982 120.14 259.284 121.309 259.927 122.297C260.569 123.284 261.516 124.035 262.624 124.437V124.437Z" stroke="#3F3D56" stroke-miterlimit="10"/>
<path d="M268.274 109.034C268.584 108.181 269.103 107.419 269.786 106.819C270.468 106.219 271.291 105.8 272.178 105.6L272.624 108.25L273.452 105.467C274.602 105.484 275.716 105.866 276.635 106.556C277.553 107.247 278.228 108.211 278.562 109.309C278.895 110.407 278.871 111.583 278.492 112.667C278.112 113.75 277.398 114.685 276.452 115.337C275.505 115.989 274.376 116.324 273.227 116.293C272.077 116.262 270.968 115.868 270.057 115.166C269.147 114.465 268.484 113.493 268.164 112.391C267.843 111.288 267.881 110.113 268.274 109.034H268.274Z" fill="#57B894"/>
<path d="M268.571 108.077C268.881 107.224 269.401 106.462 270.084 105.862C270.766 105.262 271.588 104.843 272.475 104.644L272.922 107.293L273.75 104.511C274.9 104.528 276.014 104.909 276.932 105.599C277.851 106.29 278.526 107.254 278.859 108.352C279.193 109.451 279.169 110.626 278.789 111.71C278.41 112.794 277.696 113.729 276.749 114.381C275.803 115.032 274.674 115.367 273.524 115.336C272.375 115.306 271.265 114.911 270.355 114.21C269.445 113.508 268.782 112.536 268.461 111.434C268.141 110.332 268.179 109.156 268.571 108.077H268.571Z" stroke="#3F3D56" stroke-miterlimit="10"/>
<path d="M272.337 137.657C273.59 138.111 274.965 138.088 276.201 137.594C277.438 137.1 278.449 136.169 279.042 134.979C279.636 133.789 279.769 132.422 279.418 131.139C279.067 129.857 278.255 128.748 277.138 128.025L276.502 130.163L276.05 127.483C276.046 127.48 276.041 127.479 276.037 127.477C275.367 127.234 274.656 127.126 273.944 127.157C273.232 127.188 272.534 127.36 271.888 127.661C271.243 127.962 270.663 128.387 270.182 128.912C269.701 129.437 269.328 130.051 269.085 130.72C268.842 131.388 268.734 132.098 268.766 132.809C268.798 133.519 268.97 134.217 269.272 134.861C269.574 135.505 270 136.084 270.526 136.564C271.052 137.043 271.668 137.415 272.337 137.657H272.337Z" fill="#57B894"/>
<path d="M272.596 136.688C273.848 137.141 275.223 137.119 276.46 136.625C277.696 136.131 278.707 135.2 279.301 134.01C279.894 132.82 280.028 131.453 279.676 130.17C279.325 128.888 278.513 127.779 277.396 127.056L276.76 129.194L276.308 126.513C276.304 126.511 276.299 126.51 276.295 126.508C275.625 126.265 274.914 126.156 274.202 126.188C273.49 126.219 272.792 126.391 272.146 126.692C271.501 126.993 270.921 127.418 270.44 127.943C269.959 128.468 269.587 129.082 269.344 129.751C269.101 130.419 268.992 131.129 269.024 131.84C269.056 132.55 269.228 133.248 269.53 133.892C269.832 134.536 270.258 135.115 270.784 135.595C271.31 136.074 271.926 136.446 272.596 136.688H272.596Z" stroke="#3F3D56" stroke-miterlimit="10"/>
<path d="M266.691 146.649C266.906 147.872 267.536 148.984 268.475 149.798C269.414 150.612 270.605 151.08 271.848 151.121C273.091 151.163 274.31 150.777 275.302 150.028C276.294 149.278 276.997 148.211 277.294 147.006C277.591 145.8 277.464 144.529 276.934 143.406C276.404 142.283 275.503 141.376 274.383 140.837C273.262 140.298 271.99 140.16 270.78 140.446C269.57 140.733 268.495 141.426 267.736 142.409L270.153 146.04L266.851 144.113C266.595 144.933 266.54 145.803 266.691 146.649Z" fill="#57B894"/>
<path d="M266.914 145.932C267.129 147.155 267.759 148.266 268.698 149.081C269.637 149.895 270.828 150.362 272.071 150.404C273.314 150.446 274.534 150.06 275.525 149.31C276.517 148.561 277.22 147.494 277.518 146.288C277.815 145.083 277.688 143.812 277.158 142.688C276.627 141.565 275.727 140.658 274.606 140.119C273.486 139.581 272.214 139.443 271.004 139.729C269.793 140.015 268.719 140.708 267.959 141.692L270.376 145.323L267.074 143.395C266.818 144.216 266.763 145.086 266.914 145.932V145.932Z" stroke="#3F3D56" stroke-miterlimit="10"/>
<path d="M2.34727 138.345C2.86596 138.533 3.42136 138.599 3.9697 138.536C4.51804 138.474 5.04432 138.285 5.50706 137.984C5.9698 137.684 6.35635 137.281 6.63625 136.806C6.91614 136.331 7.08173 135.798 7.11996 135.248C7.1582 134.698 7.06802 134.147 6.85655 133.638C6.64509 133.13 6.3181 132.677 5.90137 132.315C5.48465 131.954 4.98957 131.694 4.45516 131.557C3.92075 131.419 3.36162 131.407 2.82184 131.522L2.91104 133.353L2.04323 131.784C1.19153 132.183 0.533557 132.904 0.213901 133.788C0.100377 134.097 0.0313636 134.421 0.00891832 134.75C-0.045858 135.522 0.152783 136.29 0.574739 136.939C0.996696 137.587 1.61897 138.081 2.34727 138.345Z" fill="#57B894"/>
<path d="M6.64118 159.583C6.33484 158.026 7.66226 156.645 8.97344 155.748C10.2846 154.85 11.8167 153.969 12.264 152.446C12.907 150.257 10.9918 148.253 9.50118 146.524C8.39526 145.241 7.44554 143.832 6.67189 142.326C6.33554 141.735 6.10645 141.089 5.99517 140.418C5.87763 139.448 6.18984 138.482 6.50438 137.557C7.5522 134.474 8.67251 131.417 9.8653 128.386" stroke="#3F3D56" stroke-miterlimit="10"/>
<path d="M2.494 137.874C3.01269 138.062 3.5681 138.127 4.11643 138.065C4.66477 138.002 5.19104 137.813 5.65378 137.513C6.11652 137.213 6.50307 136.809 6.78297 136.334C7.06286 135.859 7.22845 135.326 7.26668 134.777C7.30492 134.227 7.21474 133.676 7.00328 133.167C6.79181 132.658 6.46482 132.205 6.0481 131.844C5.63137 131.483 5.13629 131.223 4.60189 131.085C4.06748 130.948 3.50835 130.936 2.96857 131.051L3.05777 132.882L2.18996 131.313C1.33826 131.712 0.680285 132.433 0.360629 133.316C0.247107 133.626 0.178094 133.95 0.155648 134.279C0.100868 135.05 0.299508 135.819 0.721465 136.467C1.14342 137.116 1.7657 137.61 2.494 137.874V137.874Z" stroke="#3F3D56" stroke-miterlimit="10"/>
<path d="M6.20563 127.754C6.40919 127.193 6.75083 126.692 7.19909 126.298C7.64734 125.904 8.18778 125.629 8.77061 125.498L9.06402 127.238L9.60801 125.41C10.3633 125.421 11.0955 125.672 11.6989 126.126C12.3023 126.579 12.7456 127.213 12.9649 127.934C13.1842 128.656 13.1681 129.428 12.919 130.14C12.6698 130.852 12.2005 131.467 11.5787 131.895C10.9569 132.323 10.2149 132.543 9.45983 132.523C8.70471 132.503 7.97556 132.243 7.37764 131.783C6.77971 131.322 6.34397 130.683 6.13331 129.959C5.92265 129.235 5.94797 128.462 6.20563 127.754Z" fill="#57B894"/>
<path d="M6.40133 127.125C6.60488 126.564 6.94653 126.064 7.39478 125.67C7.84303 125.275 8.38347 125 8.9663 124.869L9.25971 126.61L9.80371 124.782C10.559 124.793 11.2912 125.043 11.8946 125.497C12.498 125.951 12.9413 126.584 13.1606 127.306C13.3799 128.027 13.3638 128.8 13.1147 129.512C12.8655 130.224 12.3962 130.838 11.7744 131.266C11.1526 131.695 10.4106 131.914 9.65552 131.894C8.9004 131.874 8.17125 131.615 7.57333 131.154C6.97541 130.693 6.53966 130.055 6.329 129.33C6.11834 128.606 6.14367 127.834 6.40133 127.125V127.125Z" stroke="#3F3D56" stroke-miterlimit="10"/>
<path d="M8.8756 146.559C9.69819 146.857 10.6018 146.843 11.4143 146.518C12.2267 146.194 12.8911 145.582 13.2809 144.8C13.6707 144.018 13.7585 143.12 13.5277 142.277C13.2969 141.435 12.7636 140.706 12.0294 140.231L11.6114 141.636L11.315 139.875C11.3121 139.873 11.3091 139.872 11.306 139.871C10.866 139.711 10.3987 139.64 9.93101 139.66C9.46328 139.681 9.0042 139.793 8.58001 139.991C8.15582 140.189 7.77484 140.468 7.45884 140.813C7.14283 141.158 6.89801 141.562 6.73835 142.001C6.57869 142.441 6.50733 142.907 6.52834 143.374C6.54935 143.841 6.66233 144.299 6.86081 144.722C7.0593 145.146 7.3394 145.526 7.6851 145.841C8.03081 146.156 8.43535 146.4 8.8756 146.559Z" fill="#57B894"/>
<path d="M9.04518 145.923C9.86778 146.221 10.7714 146.206 11.5838 145.881C12.3963 145.557 13.0607 144.945 13.4505 144.163C13.8402 143.381 13.9281 142.483 13.6973 141.641C13.4665 140.798 12.9332 140.07 12.199 139.594L11.781 140.999L11.4846 139.238C11.4817 139.237 11.4787 139.235 11.4755 139.234C11.0356 139.075 10.5686 139.004 10.1011 139.025C9.63363 139.046 9.17484 139.158 8.75094 139.356C7.89483 139.756 7.23282 140.479 6.91053 141.365C6.58824 142.252 6.63208 143.231 7.03241 144.085C7.43273 144.94 8.15675 145.601 9.04518 145.923V145.923Z" stroke="#3F3D56" stroke-miterlimit="10"/>
<path d="M5.16566 152.468C5.3071 153.271 5.72096 154.001 6.33784 154.536C6.95473 155.071 7.73711 155.378 8.55378 155.406C9.37045 155.433 10.1717 155.179 10.8233 154.687C11.4748 154.195 11.937 153.494 12.1322 152.702C12.3275 151.91 12.244 151.075 11.8957 150.337C11.5474 149.599 10.9556 149.003 10.2194 148.649C9.48325 148.295 8.64753 148.204 7.85242 148.392C7.0573 148.58 6.35114 149.036 5.85238 149.682L7.44011 152.067L5.27067 150.801C5.10246 151.34 5.06645 151.912 5.16566 152.468Z" fill="#57B894"/>
<path d="M5.31244 151.996C5.45387 152.799 5.86774 153.53 6.48462 154.065C7.1015 154.6 7.88388 154.907 8.70055 154.934C9.51722 154.962 10.3185 154.708 10.97 154.216C11.6216 153.723 12.0837 153.022 12.279 152.23C12.4742 151.438 12.3907 150.603 12.0425 149.865C11.6942 149.127 11.1024 148.531 10.3662 148.177C9.63003 147.823 8.79431 147.733 7.99919 147.921C7.20407 148.109 6.49792 148.564 5.99915 149.21L7.58688 151.596L5.41744 150.33C5.24923 150.869 5.21322 151.44 5.31244 151.996V151.996Z" stroke="#3F3D56" stroke-miterlimit="10"/>
<path d="M125.34 104.748C127.787 104.748 129.771 102.186 129.771 99.0246C129.771 95.8635 127.787 93.3009 125.34 93.3009C122.894 93.3009 120.91 95.8635 120.91 99.0246C120.91 102.186 122.894 104.748 125.34 104.748Z" fill="#2F2E41"/>
<path d="M149.447 104.878C151.894 104.878 153.877 102.316 153.877 99.1547C153.877 95.9936 151.894 93.4309 149.447 93.4309C147 93.4309 145.017 95.9936 145.017 99.1547C145.017 102.316 147 104.878 149.447 104.878Z" fill="#2F2E41"/>
<path d="M146.059 116.066C146.059 118.652 142.442 120.749 137.98 120.749C133.518 120.749 129.901 118.652 129.901 116.066C129.901 113.826 132.614 111.953 136.239 111.495C136.816 111.419 137.398 111.381 137.98 111.383C138.955 111.38 139.928 111.484 140.881 111.695C143.909 112.369 146.059 114.073 146.059 116.066Z" fill="#2F2E41"/>
<path d="M126.383 103.448C128.83 103.448 130.813 100.885 130.813 97.7238C130.813 94.5626 128.83 92 126.383 92C123.936 92 121.952 94.5626 121.952 97.7238C121.952 100.885 123.936 103.448 126.383 103.448Z" stroke="#3F3D56" stroke-miterlimit="10"/>
<path d="M150.489 103.578C152.936 103.578 154.92 101.015 154.92 97.8538C154.92 94.6927 152.936 92.1301 150.489 92.1301C148.043 92.1301 146.059 94.6927 146.059 97.8538C146.059 101.015 148.043 103.578 150.489 103.578Z" stroke="#3F3D56" stroke-miterlimit="10"/>
<path d="M139.023 119.448C143.484 119.448 147.102 117.351 147.102 114.765C147.102 112.179 143.484 110.082 139.023 110.082C134.561 110.082 130.944 112.179 130.944 114.765C130.944 117.351 134.561 119.448 139.023 119.448Z" stroke="#3F3D56" stroke-miterlimit="10"/>
<path d="M140.977 112.085C140.979 112.412 140.856 112.728 140.633 112.968C140.528 113.083 140.4 113.174 140.257 113.237C140.114 113.3 139.96 113.333 139.804 113.334H137.198C136.877 113.323 136.573 113.185 136.354 112.951C136.134 112.717 136.016 112.406 136.025 112.085C136.024 111.832 136.098 111.583 136.239 111.372C136.816 111.291 137.398 111.251 137.98 111.253C138.957 111.249 139.93 111.361 140.881 111.586C140.945 111.744 140.978 111.914 140.977 112.085Z" fill="white"/>
<path d="M126.383 97.4636C127.102 97.4636 127.686 96.8812 127.686 96.1627C127.686 95.4443 127.102 94.8619 126.383 94.8619C125.663 94.8619 125.08 95.4443 125.08 96.1627C125.08 96.8812 125.663 97.4636 126.383 97.4636Z" fill="white"/>
<path d="M150.62 97.4636C151.339 97.4636 151.923 96.8812 151.923 96.1627C151.923 95.4443 151.339 94.8619 150.62 94.8619C149.9 94.8619 149.317 95.4443 149.317 96.1627C149.317 96.8812 149.9 97.4636 150.62 97.4636Z" fill="white"/>
<path opacity="0.3" d="M151.923 109.692C152.642 109.692 153.226 109.109 153.226 108.391C153.226 107.672 152.642 107.09 151.923 107.09C151.203 107.09 150.62 107.672 150.62 108.391C150.62 109.109 151.203 109.692 151.923 109.692Z" fill="#3E3EFF"/>
<path opacity="0.3" d="M120.128 109.692C120.848 109.692 121.431 109.109 121.431 108.391C121.431 107.672 120.848 107.09 120.128 107.09C119.408 107.09 118.825 107.672 118.825 108.391C118.825 109.109 119.408 109.692 120.128 109.692Z" fill="#3E3EFF"/>
</g>
<defs>
<clipPath id="clip0">
<rect width="280" height="152" fill="white"/>
</clipPath>
</defs>
</svg>
