<svg width="36" height="37" viewBox="0 0 36 37" fill="none" xmlns="http://www.w3.org/2000/svg">
<path d="M31.5789 14.2105H0V36.3158H31.5789V14.2105Z" fill="#6C63FF"/>
<path d="M34.7368 34.579H4.42099C4.08609 34.5786 3.765 34.4454 3.52819 34.2086C3.29138 33.9718 3.15819 33.6507 3.15784 33.3158V12.4737C3.15819 12.1388 3.29138 11.8177 3.52819 11.5809C3.765 11.3441 4.08609 11.2109 4.42099 11.2105H34.7368C35.0717 11.2109 35.3928 11.3441 35.6296 11.5809C35.8664 11.8177 35.9996 12.1388 35.9999 12.4737V33.3158C35.9996 33.6507 35.8664 33.9718 35.6296 34.2086C35.3928 34.4454 35.0717 34.5786 34.7368 34.579ZM4.42099 12.4737V33.3158H34.7377L34.7368 12.4737H4.42099Z" fill="#3F3D56"/>
<path d="M31.2632 11.6842H30C30 8.92038 28.9021 6.26974 26.9478 4.31541C24.9935 2.36108 22.3428 1.26316 19.579 1.26316C16.8152 1.26316 14.1645 2.36108 12.2102 4.31541C10.2559 6.26974 9.15793 8.92038 9.15793 11.6842H7.89478C7.89478 8.58537 9.12578 5.61344 11.317 3.42222C13.5082 1.23101 16.4801 0 19.579 0C22.6778 0 25.6498 1.23101 27.841 3.42222C30.0322 5.61344 31.2632 8.58537 31.2632 11.6842Z" fill="#3F3D56"/>
<path d="M22.7368 20.3684C22.7375 19.8185 22.5945 19.278 22.322 18.8003C22.0496 18.3226 21.6572 17.9243 21.1836 17.6449C20.7099 17.3655 20.1716 17.2146 19.6217 17.2071C19.0718 17.1996 18.5296 17.3359 18.0486 17.6024C17.5675 17.8689 17.1644 18.2563 16.8791 18.7264C16.5938 19.1965 16.4363 19.733 16.422 20.2827C16.4077 20.8324 16.5372 21.3764 16.7977 21.8607C17.0581 22.345 17.4406 22.7529 17.9071 23.044V26.4334C17.9071 26.653 17.9504 26.8704 18.0344 27.0732C18.1184 27.276 18.2415 27.4603 18.3968 27.6156C18.552 27.7708 18.7363 27.894 18.9391 27.978C19.142 28.062 19.3594 28.1053 19.5789 28.1053C20.0223 28.1053 20.4476 27.9291 20.7611 27.6156C21.0746 27.3021 21.2507 26.8768 21.2507 26.4334V23.044C21.7053 22.7609 22.0802 22.3667 22.3402 21.8986C22.6002 21.4305 22.7367 20.9039 22.7368 20.3684Z" fill="#3F3D56"/>
</svg>
