<svg width="214" height="238" viewBox="0 0 214 238" fill="none" xmlns="http://www.w3.org/2000/svg">
<g clip-path="url(#clip0)">
<path d="M145.566 147.445C262.25 225.797 224.328 254.993 72.7832 228.402C33.1868 221.454 0 192.157 0 147.445C0 102.734 32.5861 66.4884 72.7832 66.4884C112.98 66.4884 108.539 122.582 145.566 147.445Z" fill="#3F3D56"/>
<path opacity="0.1" d="M155.999 223.776C181.457 223.776 202.095 221.923 202.095 219.637C202.095 217.351 181.457 215.498 155.999 215.498C130.54 215.498 109.903 217.351 109.903 219.637C109.903 221.923 130.54 223.776 155.999 223.776Z" fill="black"/>
<path opacity="0.1" d="M65.087 87.343C78.5805 87.343 89.5191 85.4899 89.5191 83.2039C89.5191 80.9179 78.5805 79.0648 65.087 79.0648C51.5935 79.0648 40.6549 80.9179 40.6549 83.2039C40.6549 85.4899 51.5935 87.343 65.087 87.343Z" fill="black"/>
<path opacity="0.1" d="M63.8066 93.3934C53.3235 93.3913 43.0537 96.3655 34.1835 101.972C25.3133 107.579 18.2045 115.59 13.6784 125.08C18.8812 119.311 25.232 114.703 32.3204 111.551C39.4088 108.4 47.0772 106.776 54.83 106.785C85.5129 106.785 110.388 131.749 110.388 162.542C110.4 170.872 108.545 179.099 104.958 186.612C114.246 176.364 119.384 163.003 119.364 149.15C119.364 118.357 94.4895 93.3934 63.8066 93.3934Z" fill="black"/>
<path opacity="0.3" d="M110.388 162.298C110.4 170.629 108.545 178.855 104.958 186.368C99.7553 192.137 93.4046 196.746 86.3161 199.897C79.2277 203.048 71.5593 204.672 63.8065 204.663C33.1236 204.663 8.24872 179.7 8.24872 148.907C8.23619 140.576 10.0919 132.349 13.6784 124.836C18.8811 119.068 25.2319 114.459 32.3203 111.308C39.4088 108.156 47.0771 106.533 54.8299 106.541C85.5129 106.541 110.388 131.505 110.388 162.298Z" fill="#6C63FF"/>
<path d="M63.8066 204.937C33.0214 204.937 7.97572 179.802 7.97572 148.907C7.95335 140.534 9.81875 132.265 13.4322 124.718C17.9806 115.182 25.1243 107.132 34.0381 101.497C42.9518 95.8626 53.2721 92.8738 63.8066 92.8759C94.5919 92.8759 119.637 118.011 119.637 148.907C119.638 156.265 118.194 163.551 115.388 170.349C112.583 177.147 108.47 183.324 103.286 188.527C98.1015 193.73 91.9466 197.858 85.1727 200.673C78.3988 203.489 71.1385 204.938 63.8066 204.937ZM63.8066 93.4238C42.6533 93.4238 23.0733 105.8 13.9246 124.955C10.3465 132.428 8.49941 140.616 8.52169 148.907C8.52169 179.5 33.3223 204.389 63.8066 204.389C71.0668 204.39 78.2561 202.955 84.9638 200.167C91.6714 197.379 97.7662 193.292 102.9 188.14C108.034 182.988 112.106 176.871 114.884 170.14C117.662 163.408 119.092 156.193 119.091 148.907C119.091 118.313 94.2907 93.4238 63.8066 93.4238V93.4238Z" fill="white"/>
<path d="M190.913 205.645C186.878 210.941 187.339 218.099 187.339 218.099C187.339 218.099 194.343 216.67 198.378 211.374C202.413 206.078 201.952 198.92 201.952 198.92C201.952 198.92 194.948 200.349 190.913 205.645Z" fill="#D0CDE1"/>
<path d="M193.557 206.835C192.774 213.455 187.474 218.266 187.474 218.266C187.474 218.266 183.443 212.344 184.226 205.723C185.009 199.103 190.309 194.291 190.309 194.291C190.309 194.291 194.341 200.214 193.557 206.835Z" fill="#6C63FF"/>
<path d="M47.1793 51.7486C59.8405 51.7486 70.1043 41.448 70.1043 28.7415C70.1043 16.035 59.8405 5.73441 47.1793 5.73441C34.5182 5.73441 24.2543 16.035 24.2543 28.7415C24.2543 41.448 34.5182 51.7486 47.1793 51.7486Z" fill="#FF6584"/>
<path d="M96.8825 52.1988C96.8936 75.1798 83.2842 83.2095 66.4929 83.2177C66.1029 83.2179 65.7147 83.2137 65.3285 83.2052C64.5502 83.1887 63.7801 83.1535 63.0181 83.0995C47.8629 82.0301 36.0836 73.6007 36.0733 52.2284C36.0626 30.1107 64.2162 2.18477 66.3277 0.119913C66.3295 0.119913 66.3295 0.119913 66.3314 0.118036C66.4116 0.0393407 66.4526 0 66.4526 0C66.4526 0 96.8714 29.2195 96.8825 52.1988Z" fill="#6C63FF"/>
<path d="M65.3846 79.703L76.4972 64.1047L65.3575 81.4147L65.3285 83.2051C64.5503 83.1887 63.7802 83.1535 63.0182 83.0995L64.2051 60.1085L64.1957 59.9306L64.2162 59.8968L64.329 57.7244L53.1444 40.3821L64.3618 56.0969L64.39 56.5576L65.2866 39.1869L55.7104 21.2652L65.4027 36.1342L66.3277 0.119883L66.3313 3.05176e-05L66.3314 0.118006L66.1884 28.519L75.7057 17.2551L66.1485 30.9649L65.9041 46.5186L74.7927 31.5881L65.8698 48.8053L65.734 57.454L78.6337 36.6709L65.6851 60.4711L65.3846 79.703Z" fill="#3F3D56"/>
<path d="M156.408 65.3656C153.494 60.4242 147.729 60.1939 147.729 60.1939C147.729 60.1939 142.111 59.4729 138.507 66.9987C135.148 74.0134 130.512 80.7862 137.761 82.4283L139.07 78.3386L139.881 82.7328C140.913 82.8073 141.948 82.8251 142.982 82.786C150.745 82.5345 158.138 82.8596 157.9 80.0641C157.583 76.3478 159.212 70.1202 156.408 65.3656Z" fill="#2F2E41"/>
<path d="M143.552 111.733L144.302 119.256L161.667 117.375L162.042 111.733H143.552Z" fill="#A0616A"/>
<path d="M141.678 115.871L141.178 120.259C141.178 120.259 135.432 128.283 135.931 142.075C136.431 155.866 128.061 217.175 134.058 217.677C140.054 218.178 150.798 218.93 151.298 217.05C151.797 215.169 152.797 143.83 152.797 143.83C152.797 143.83 155.42 217.139 159.918 217.389C164.415 217.64 179.532 218.142 179.532 216.261C179.532 214.38 166.289 130.415 166.289 130.415L164.165 123.393L162.042 114.742C162.042 114.742 148.799 116.999 145.176 116.122C141.553 115.244 141.678 115.871 141.678 115.871Z" fill="#2F2E41"/>
<path d="M147.675 81.1415C152.091 81.1415 155.67 77.549 155.67 73.1174C155.67 68.6858 152.091 65.0933 147.675 65.0933C143.259 65.0933 139.679 68.6858 139.679 73.1174C139.679 77.549 143.259 81.1415 147.675 81.1415Z" fill="#A0616A"/>
<path d="M161.667 86.4073L160.149 88.624L159.177 90.042L157.544 92.4254L149.424 93.0523C149.424 93.0523 147.451 92.4129 145.175 91.4788C144.334 91.1328 143.451 90.7466 142.611 90.3366C139.355 88.7494 136.741 86.8123 139.679 85.5297C140.201 85.3048 140.702 85.0347 141.177 84.7223C141.609 84.4388 142.012 84.112 142.378 83.7468C143.131 82.9899 143.688 82.06 144.001 81.038C144.315 80.0159 144.375 78.9325 144.177 77.8817L152.047 76.7533C151.819 78.7569 153.804 80.9422 156.029 82.7263C156.76 83.3143 157.518 83.8572 158.231 84.3361C160.102 85.5924 161.667 86.4073 161.667 86.4073Z" fill="#A0616A"/>
<path d="M150.923 88.7895C150.923 88.7895 143.24 87.473 141.491 84.7148C141.491 84.7148 133.933 85.6551 134.557 89.6671C135.182 93.6792 141.428 115.62 141.428 115.62C141.428 115.62 157.045 112.611 162.791 114.868L166.289 86.9088C166.289 86.9088 165.04 84.1506 162.666 84.9028C160.293 85.6551 159.356 84.9655 159.356 84.9655C159.356 84.9655 156.67 88.7895 150.923 88.7895Z" fill="#D0CDE1"/>
<path d="M157.919 132.797C157.919 132.797 163.291 138.815 160.293 139.818C157.294 140.821 153.671 135.806 153.671 135.806L157.919 132.797Z" fill="#A0616A"/>
<path d="M159.668 133.298C159.668 133.298 155.296 136.307 156.92 138.313C158.544 140.319 164.165 136.558 164.165 135.806C164.165 135.053 159.668 133.298 159.668 133.298Z" fill="#A0616A"/>
<path d="M148.924 116.999L145.301 117.626L142.928 99.948C143.064 96.7408 142.959 93.5278 142.611 90.3366C142.347 88.2052 141.904 86.1566 141.177 84.7222C141.609 84.4388 142.012 84.112 142.378 83.7468C143.247 85.1297 144.834 88.0585 145.175 91.4788C145.264 92.3353 145.265 93.1987 145.176 94.0553C144.552 99.948 144.677 101.076 144.677 101.076L148.924 116.999Z" fill="#2F2E41"/>
<path d="M140.554 85.7805C140.554 85.7805 134.682 84.1506 134.183 87.6611C133.683 91.1716 134.307 100.199 135.682 103.584C137.056 106.969 141.803 118.002 141.803 118.002C141.803 118.002 150.423 129.035 150.798 131.668C151.173 134.301 153.047 137.059 153.047 137.059L159.043 133.173L147.3 113.238L142.178 99.4465C142.178 99.4465 144.302 86.9088 140.554 85.7805Z" fill="#D0CDE1"/>
<path d="M163.541 86.282L166.289 86.9088C166.289 86.9088 168.788 97.6912 167.788 103.459C166.789 109.226 166.664 111.232 166.664 111.232L165.79 127.656C165.79 127.656 166.039 138.188 164.29 136.558C162.541 134.928 159.043 134.176 159.043 134.176C159.043 134.176 159.418 129.537 160.792 128.408C160.792 128.408 162.416 119.757 161.417 115.996C160.418 112.235 163.541 86.282 163.541 86.282Z" fill="#D0CDE1"/>
<path d="M164.54 98.4435L161.355 116.937L159.418 116.122L162.791 98.4435L159.177 90.042L156.029 82.7263C156.76 83.3143 157.518 83.8572 158.231 84.3361L160.149 88.624L164.54 98.4435Z" fill="#2F2E41"/>
<path d="M155.12 64.8893L149.424 61.8951L141.558 63.12L139.931 70.3332L143.982 70.1767L145.114 67.5267V70.1332L146.983 70.0608L148.068 65.8418L148.746 70.3332L155.391 70.197L155.12 64.8893Z" fill="#2F2E41"/>
<path d="M143.868 219.637C146.012 219.637 147.75 218.983 147.75 218.176C147.75 217.369 146.012 216.715 143.868 216.715C141.724 216.715 139.986 217.369 139.986 218.176C139.986 218.983 141.724 219.637 143.868 219.637Z" fill="#2F2E41"/>
<path d="M170.07 219.637C172.214 219.637 173.952 218.983 173.952 218.176C173.952 217.369 172.214 216.715 170.07 216.715C167.926 216.715 166.188 217.369 166.188 218.176C166.188 218.983 167.926 219.637 170.07 219.637Z" fill="#2F2E41"/>
<path d="M71.9439 177.745C67.9732 180.338 63.3974 181.848 58.6681 182.124C53.9387 182.4 49.2192 181.435 44.9754 179.322L45.5762 178.092C50.6916 180.614 56.4896 181.384 62.0826 180.284C67.6756 179.185 72.7555 176.276 76.5447 172.004C80.3339 167.731 82.6236 162.33 83.0634 156.628C83.5032 150.925 82.0687 145.235 78.9796 140.428C75.8906 135.621 71.3171 131.963 65.9592 130.013C60.6014 128.063 54.7544 127.929 49.3133 129.631C43.8721 131.333 39.1367 134.777 35.8318 139.437C32.5269 144.097 30.8346 149.715 31.014 155.432L29.6497 155.474C29.4985 150.664 30.6063 145.898 32.8626 141.652C35.1188 137.405 38.4447 133.826 42.5088 131.271C46.5728 128.717 51.2331 127.276 56.025 127.092C60.8169 126.909 65.5731 127.989 69.8195 130.225C74.0659 132.461 77.6542 135.774 80.2266 139.836C82.7991 143.898 84.2659 148.565 84.4808 153.373C84.6958 158.18 83.6513 162.961 81.4516 167.237C79.2519 171.513 75.9737 175.136 71.9439 177.745Z" fill="white"/>
<path d="M59.5974 152.974C55.5612 153.87 50.1895 154.417 46.2755 153.846L51.1889 157.601L37.4337 166.505L38.1735 167.656L51.9288 158.752L53.3116 164.794C54.408 160.981 57.1195 156.295 59.5974 152.974Z" fill="white"/>
</g>
<defs>
<clipPath id="clip0">
<rect width="214" height="238" fill="white"/>
</clipPath>
</defs>
</svg>
