<svg width="285" height="196" viewBox="0 0 285 196" fill="none" xmlns="http://www.w3.org/2000/svg">
<g clip-path="url(#clip0)">
<path d="M118.724 196H24.335C23.8716 196 23.4274 195.815 23.0998 195.488C22.7721 195.16 22.5878 194.716 22.5872 194.253V113.55C22.5878 113.086 22.7721 112.642 23.0998 112.314C23.4274 111.987 23.8716 111.803 24.335 111.802H118.724C119.187 111.803 119.631 111.987 119.959 112.314C120.287 112.642 120.471 113.086 120.472 113.55V194.252C120.471 194.716 120.287 195.16 119.959 195.488C119.632 195.815 119.187 196 118.724 196V196ZM24.335 112.5C24.0573 112.5 23.7911 112.611 23.5948 112.807C23.3984 113.003 23.2878 113.27 23.2872 113.547V194.252C23.2878 194.53 23.3984 194.796 23.5948 194.993C23.7911 195.189 24.0573 195.299 24.335 195.3H118.724C119.002 195.3 119.268 195.189 119.464 194.993C119.661 194.796 119.771 194.53 119.772 194.252V113.55C119.771 113.272 119.66 113.006 119.464 112.809C119.268 112.613 119.002 112.502 118.724 112.502L24.335 112.5Z" fill="#4C6C6A"/>
<path d="M39.0009 188.768C42.9332 188.768 46.1209 185.581 46.1209 181.649C46.1209 177.717 42.9332 174.53 39.0009 174.53C35.0685 174.53 31.8808 177.717 31.8808 181.649C31.8808 185.581 35.0685 188.768 39.0009 188.768Z" fill="#4C6C6A"/>
<path d="M55.4453 176.903C55.1306 176.903 54.8288 177.028 54.6062 177.25C54.3837 177.473 54.2587 177.775 54.2587 178.089C54.2587 178.404 54.3837 178.706 54.6062 178.928C54.8288 179.151 55.1306 179.276 55.4453 179.276H111.39C111.704 179.276 112.006 179.151 112.229 178.928C112.451 178.706 112.576 178.404 112.576 178.089C112.576 177.775 112.451 177.473 112.229 177.25C112.006 177.028 111.704 176.903 111.39 176.903H55.4453Z" fill="#4C6C6A"/>
<path d="M55.4453 184.022C55.1306 184.022 54.8288 184.147 54.6062 184.37C54.3837 184.592 54.2587 184.894 54.2587 185.209C54.2587 185.523 54.3837 185.825 54.6062 186.048C54.8288 186.27 55.1306 186.395 55.4453 186.395H79.5184C79.8331 186.395 80.1349 186.27 80.3575 186.048C80.58 185.825 80.705 185.523 80.705 185.209C80.705 184.894 80.58 184.592 80.3575 184.37C80.1349 184.147 79.8331 184.022 79.5184 184.022H55.4453Z" fill="#4C6C6A"/>
<path d="M141.15 167.852H46.7604C46.297 167.852 45.8527 167.667 45.5251 167.34C45.1974 167.012 45.0131 166.568 45.0125 166.104V124.688C45.0131 124.225 45.1974 123.78 45.5251 123.453C45.8527 123.125 46.297 122.941 46.7604 122.94H141.15C141.613 122.941 142.057 123.125 142.385 123.453C142.713 123.78 142.897 124.225 142.897 124.688V166.104C142.897 166.568 142.713 167.012 142.385 167.34C142.057 167.667 141.613 167.852 141.15 167.852Z" fill="#00000A"/>
<path d="M65.9828 137.376C65.6681 137.376 65.3663 137.501 65.1438 137.724C64.9212 137.946 64.7962 138.248 64.7962 138.562C64.7962 138.877 64.9212 139.179 65.1438 139.401C65.3663 139.624 65.6681 139.749 65.9828 139.749H121.928C122.242 139.749 122.544 139.624 122.767 139.401C122.989 139.179 123.114 138.877 123.114 138.562C123.114 138.248 122.989 137.946 122.767 137.724C122.544 137.501 122.242 137.376 121.928 137.376H65.9828Z" fill="white"/>
<path d="M65.9828 144.251C65.6681 144.251 65.3663 144.376 65.1438 144.599C64.9212 144.821 64.7962 145.123 64.7962 145.438C64.7962 145.752 64.9212 146.054 65.1438 146.277C65.3663 146.499 65.6681 146.624 65.9828 146.624H121.928C122.242 146.624 122.544 146.499 122.767 146.277C122.989 146.054 123.114 145.752 123.114 145.438C123.114 145.123 122.989 144.821 122.767 144.599C122.544 144.376 122.242 144.251 121.928 144.251H65.9828Z" fill="white"/>
<path d="M65.9828 151.043C65.6681 151.043 65.3663 151.168 65.1438 151.391C64.9212 151.613 64.7962 151.915 64.7962 152.23C64.7962 152.544 64.9212 152.846 65.1438 153.068C65.3663 153.291 65.6681 153.416 65.9828 153.416H90.0559C90.3706 153.416 90.6725 153.291 90.895 153.068C91.1175 152.846 91.2425 152.544 91.2425 152.23C91.2425 151.915 91.1175 151.613 90.895 151.391C90.6725 151.168 90.3706 151.043 90.0559 151.043H65.9828Z" fill="white"/>
<path d="M285 195.207H0V195.862H285V195.207Z" fill="#3F3D56"/>
<path d="M247.406 195.207H153.017C152.554 195.206 152.109 195.022 151.782 194.695C151.454 194.367 151.27 193.923 151.269 193.46V170.049C151.27 169.585 151.454 169.141 151.782 168.814C152.109 168.486 152.554 168.302 153.017 168.301H247.406C247.869 168.302 248.313 168.486 248.641 168.814C248.969 169.141 249.153 169.585 249.154 170.049V193.459C249.153 193.923 248.969 194.367 248.641 194.694C248.313 195.022 247.869 195.206 247.406 195.207ZM153.017 168.999C152.739 168.999 152.473 169.11 152.277 169.306C152.08 169.503 151.97 169.769 151.969 170.047V193.457C151.97 193.735 152.08 194.001 152.277 194.197C152.473 194.393 152.739 194.504 153.017 194.505H247.406C247.684 194.504 247.95 194.393 248.146 194.197C248.343 194.001 248.453 193.735 248.454 193.457V170.049C248.453 169.771 248.343 169.505 248.146 169.309C247.95 169.112 247.684 169.002 247.406 169.001L153.017 168.999Z" fill="#4C6C6A"/>
<path d="M167.683 187.975C171.615 187.975 174.803 184.788 174.803 180.856C174.803 176.924 171.615 173.737 167.683 173.737C163.751 173.737 160.563 176.924 160.563 180.856C160.563 184.788 163.751 187.975 167.683 187.975Z" fill="#4C6C6A"/>
<path d="M184.127 176.11C183.812 176.11 183.511 176.235 183.288 176.457C183.066 176.68 182.941 176.981 182.941 177.296C182.941 177.611 183.066 177.913 183.288 178.135C183.511 178.358 183.812 178.483 184.127 178.483H240.072C240.386 178.483 240.688 178.358 240.911 178.135C241.133 177.913 241.258 177.611 241.258 177.296C241.258 176.981 241.133 176.68 240.911 176.457C240.688 176.235 240.386 176.11 240.072 176.11H184.127Z" fill="#4C6C6A"/>
<path d="M184.127 183.229C183.812 183.229 183.511 183.354 183.288 183.577C183.066 183.799 182.941 184.101 182.941 184.416C182.941 184.73 183.066 185.032 183.288 185.254C183.511 185.477 183.812 185.602 184.127 185.602H208.2C208.515 185.602 208.817 185.477 209.039 185.254C209.262 185.032 209.387 184.73 209.387 184.416C209.387 184.101 209.262 183.799 209.039 183.577C208.817 183.354 208.515 183.229 208.2 183.229H184.127Z" fill="#4C6C6A"/>
<path d="M230.812 167.751L144.542 129.342C144.118 129.153 143.787 128.804 143.621 128.371C143.455 127.938 143.468 127.457 143.656 127.034L153.186 105.635C153.375 105.212 153.724 104.881 154.157 104.715C154.59 104.548 155.071 104.561 155.495 104.749L241.765 143.158C242.189 143.347 242.52 143.696 242.686 144.129C242.852 144.562 242.84 145.043 242.652 145.466L233.121 166.865C232.932 167.288 232.583 167.619 232.15 167.785C231.717 167.951 231.236 167.939 230.812 167.751L230.812 167.751ZM155.211 105.387C154.957 105.274 154.669 105.267 154.409 105.366C154.15 105.466 153.94 105.664 153.827 105.918L144.297 127.316C144.184 127.57 144.177 127.858 144.276 128.118C144.376 128.377 144.574 128.587 144.828 128.7L231.098 167.109C231.352 167.222 231.641 167.229 231.9 167.129C232.159 167.03 232.369 166.831 232.482 166.578L242.012 145.182C242.124 144.927 242.131 144.639 242.032 144.38C241.932 144.12 241.734 143.911 241.481 143.798L155.211 105.387Z" fill="#4C6C6A"/>
<path d="M160.89 128.699C164.484 130.299 168.695 128.683 170.296 125.089C171.897 121.496 170.281 117.285 166.687 115.685C163.093 114.085 158.881 115.701 157.281 119.295C155.68 122.888 157.296 127.099 160.89 128.699Z" fill="#4C6C6A"/>
<path d="M180.75 124.546C180.463 124.418 180.136 124.409 179.842 124.522C179.548 124.635 179.311 124.86 179.183 125.147C179.055 125.435 179.046 125.762 179.159 126.056C179.272 126.35 179.497 126.587 179.784 126.715L230.917 149.48C231.205 149.609 231.532 149.617 231.826 149.504C232.12 149.391 232.357 149.166 232.485 148.879C232.613 148.591 232.622 148.264 232.509 147.971C232.396 147.677 232.171 147.44 231.883 147.311L180.75 124.546Z" fill="#4C6C6A"/>
<path d="M177.852 131.053C177.565 130.925 177.238 130.916 176.944 131.029C176.65 131.142 176.413 131.367 176.285 131.654C176.157 131.942 176.148 132.269 176.261 132.563C176.374 132.857 176.599 133.094 176.886 133.222L198.889 143.018C199.177 143.146 199.504 143.155 199.797 143.042C200.091 142.929 200.329 142.704 200.457 142.416C200.585 142.129 200.593 141.802 200.481 141.508C200.368 141.214 200.143 140.977 199.855 140.849L177.852 131.053Z" fill="#4C6C6A"/>
<path d="M159.907 102.703L65.8959 110.911C65.4343 110.951 64.9759 110.806 64.621 110.508C64.2661 110.21 64.0439 109.784 64.003 109.323L61.9653 86.0046C61.9256 85.5431 62.0705 85.0847 62.3683 84.7299C62.6662 84.3751 63.0926 84.1529 63.554 84.112L157.565 75.9037C158.027 75.864 158.485 76.0089 158.84 76.3067C159.195 76.6045 159.417 77.0309 159.458 77.4923L161.496 100.81C161.536 101.271 161.391 101.73 161.093 102.085C160.795 102.44 160.369 102.662 159.907 102.703ZM63.6148 84.8069C63.3382 84.8316 63.0827 84.9649 62.9042 85.1776C62.7257 85.3902 62.6388 85.6649 62.6623 85.9415L64.7 109.259C64.7247 109.536 64.858 109.791 65.0707 109.969C65.2834 110.148 65.5581 110.235 65.8348 110.211L159.846 102.003C160.122 101.978 160.378 101.845 160.556 101.632C160.735 101.42 160.822 101.145 160.798 100.868L158.761 77.5532C158.736 77.2766 158.603 77.0211 158.39 76.8426C158.177 76.6641 157.903 76.5772 157.626 76.6008L63.6148 84.8069Z" fill="#4C6C6A"/>
<path d="M79.8735 102.432C83.79 102.09 86.6876 98.6381 86.3455 94.7221C86.0033 90.806 82.5509 87.9087 78.6344 88.2507C74.7179 88.5928 71.8203 92.0446 72.1624 95.9606C72.5046 99.8767 75.9569 102.774 79.8735 102.432Z" fill="#4C6C6A"/>
<path d="M95.2193 89.1836C94.9059 89.2109 94.6162 89.3617 94.4139 89.6027C94.2116 89.8437 94.1133 90.1552 94.1407 90.4686C94.1681 90.782 94.3189 91.0718 94.5599 91.274C94.8009 91.4763 95.1124 91.5746 95.4258 91.5472L151.146 86.681C151.46 86.6537 151.75 86.5029 151.952 86.2619C152.154 86.0209 152.252 85.7094 152.225 85.396C152.198 85.0825 152.047 84.7928 151.806 84.5905C151.565 84.3883 151.253 84.29 150.94 84.3174L95.2193 89.1836Z" fill="#4C6C6A"/>
<path d="M95.8388 96.2745C95.5254 96.3019 95.2356 96.4526 95.0333 96.6936C94.8311 96.9346 94.7328 97.2461 94.7602 97.5595C94.7876 97.8729 94.9384 98.1626 95.1794 98.3649C95.4204 98.5672 95.7319 98.6654 96.0453 98.6381L120.022 96.5442C120.336 96.5168 120.625 96.366 120.828 96.1251C121.03 95.8841 121.128 95.5726 121.101 95.2592C121.073 94.9458 120.923 94.656 120.682 94.4538C120.441 94.2515 120.129 94.1532 119.816 94.1806L95.8388 96.2745Z" fill="#4C6C6A"/>
<path d="M142.098 27.2424C148.066 27.2424 152.903 22.4054 152.903 16.4387C152.903 10.472 148.066 5.63498 142.098 5.63498C136.13 5.63498 131.293 10.472 131.293 16.4387C131.293 22.4054 136.13 27.2424 142.098 27.2424Z" fill="#1C14AF"/>
<path d="M142.317 28.1968C146.759 28.1968 150.359 24.5967 150.359 20.1559C150.359 15.715 146.759 12.1149 142.317 12.1149C137.876 12.1149 134.275 15.715 134.275 20.1559C134.275 24.5967 137.876 28.1968 142.317 28.1968Z" fill="#FFCFCF"/>
<path d="M154.54 31.8258C154.54 31.8258 139.806 29.2067 130.31 32.4806L133.093 54.5791L132.439 58.1804L152.085 57.5256L150.775 53.9244L154.54 31.8258Z" fill="#FFCFCF"/>
<path d="M144.301 55.6733C140.909 55.6329 137.521 55.4183 134.151 55.0303C133.459 54.9542 132.82 54.6212 132.362 54.0971C131.903 53.573 131.658 52.8961 131.675 52.2001L131.914 41.8655L131.942 41.8252C134.789 37.7024 133.402 34.6911 132.335 33.0699C132.11 32.7275 131.99 32.3266 131.99 31.9169C131.827 31.6877 131.79 32.0495 131.892 31.7928C131.942 31.6654 132.024 31.5527 132.129 31.4647C132.234 31.3768 132.359 31.3165 132.493 31.2893L134.119 30.9645C134.314 30.9256 134.516 30.9589 134.688 31.0584C134.861 31.1579 134.991 31.3166 135.054 31.505C135.601 33.1344 137.729 38.3772 142.607 38.3759C146.682 38.3759 148.203 32.6103 148.294 31.2778C148.308 31.0714 148.401 30.8782 148.552 30.7372C148.704 30.5961 148.903 30.5177 149.11 30.5176H151.14C151.269 30.5146 151.396 30.5405 151.513 30.5935C151.63 30.6464 151.734 30.725 151.817 30.8234C151.918 30.9487 151.979 31.1012 151.993 31.2616C152.008 31.4219 151.974 31.5829 151.896 31.724C149.58 35.9833 152.966 42.7242 153 42.7897L153.021 42.8322L152.066 52.7497C152.008 53.3315 151.77 53.8806 151.383 54.3197C150.997 54.7588 150.483 55.0658 149.913 55.1976C148.436 55.5443 146.44 55.6733 144.301 55.6733Z" fill="#CCCCCC"/>
<path d="M125.602 78.6846C123.402 78.6846 121.388 78.4423 119.787 77.8697C117.885 77.1891 116.69 76.0884 116.236 74.5958C116.022 73.9617 115.958 73.2863 116.049 72.6231C116.14 71.9599 116.385 71.327 116.762 70.7743C119.577 66.5608 129.343 65.3724 130.653 65.232L131.347 59.448C131.429 58.7805 131.75 58.1651 132.25 57.7149C132.749 57.2647 133.395 57.0098 134.067 56.9972L150.515 56.7406C151.176 56.7246 151.82 56.9464 152.331 57.3657C152.842 57.7849 153.185 58.3737 153.298 59.0247L154.233 64.1647L143.448 69.3947L145.078 73.9601L144.972 74.0311C141.815 76.1349 132.738 78.6842 125.602 78.6846Z" fill="#1C14AF"/>
<path d="M152.74 63.4186C152.74 63.4186 167.802 61.4543 166.819 69.3115C165.837 77.1688 154.377 82.7343 137.023 69.3115L138.987 65.3829C138.987 65.3829 148.81 68.002 152.74 66.0377V63.4186Z" fill="#1C14AF"/>
<path d="M139.315 66.365C139.315 66.365 139.315 62.4364 136.04 62.7638C132.766 63.0912 126.872 63.4186 126.872 63.4186C126.872 63.4186 124.908 64.7281 127.527 65.3829C130.147 66.0377 138.005 69.3115 138.005 69.3115L139.315 66.365Z" fill="#FFCFCF"/>
<path d="M144.881 65.7103C144.881 65.7103 144.881 61.7817 148.155 62.109C151.43 62.4364 157.324 62.7638 157.324 62.7638C157.324 62.7638 159.288 64.0734 156.669 64.7281C154.049 65.3829 146.191 68.6568 146.191 68.6568L144.881 65.7103Z" fill="#FFCFCF"/>
<path d="M164.502 64.9661L159.616 48.0314C159.616 48.0314 158.634 42.1385 157.651 36.5729C156.669 31.0074 153.067 31.6621 153.067 31.6621L152.412 31.9895V40.8289L153.067 49.0136L159.605 66.9871C159.412 67.6103 159.401 68.2755 159.573 68.9048C159.744 69.5342 160.091 70.1018 160.573 70.5412C161.055 70.9807 161.653 71.274 162.295 71.3868C162.938 71.4996 163.599 71.4273 164.202 71.1783C164.805 70.9293 165.325 70.5139 165.7 69.9806C166.076 69.4473 166.292 68.8181 166.324 68.1666C166.355 67.515 166.201 66.868 165.878 66.3011C165.555 65.7341 165.078 65.2706 164.502 64.9648V64.9661Z" fill="#FFCFCF"/>
<path d="M131.456 32.3169C131.456 32.3169 127.854 31.6621 126.872 37.2277C125.89 42.7933 124.908 48.6862 124.908 48.6862L120.022 65.6209C119.446 65.9267 118.968 66.3902 118.646 66.9572C118.323 67.5241 118.168 68.1712 118.2 68.8227C118.231 69.4742 118.447 70.1034 118.823 70.6367C119.199 71.17 119.718 71.5854 120.321 71.8344C120.924 72.0834 121.586 72.1557 122.228 72.0429C122.871 71.9301 123.468 71.6369 123.95 71.1974C124.432 70.7579 124.779 70.1903 124.951 69.561C125.123 68.9316 125.111 68.2664 124.919 67.6432L131.456 49.6697L132.111 41.485V33.3763C132.111 33.1564 132.05 32.9407 131.934 32.7536C131.819 32.5665 131.653 32.4153 131.456 32.3169Z" fill="#FFCFCF"/>
<path d="M134.356 15.2163C137.497 17.1332 141.038 18.2997 144.703 18.625L143.613 17.3184C144.407 17.6118 145.242 17.7776 146.088 17.8095C146.512 17.8218 146.933 17.7346 147.316 17.555C147.7 17.3754 148.037 17.1084 148.299 16.7753C148.513 16.4294 148.64 16.037 148.669 15.6314C148.698 15.2257 148.629 14.819 148.467 14.4459C148.135 13.7017 147.618 13.0549 146.965 12.5671C145.807 11.6515 144.441 11.0366 142.988 10.7769C141.535 10.5173 140.041 10.6211 138.638 11.0791C137.675 11.3664 136.812 11.9192 136.149 12.6741C135.824 13.0543 135.597 13.5094 135.491 13.9986C135.384 14.4878 135.401 14.9957 135.539 15.4769" fill="#1C14AF"/>
<path d="M143.115 6.83419C140.578 4.26242 137.509 2.27782 134.123 1.02014C131.949 0.215096 129.583 -0.28252 127.31 0.174838C125.038 0.632196 122.89 2.20463 122.255 4.43347C121.736 6.25635 122.272 8.21935 123.076 9.93551C123.881 11.6517 124.955 13.2421 125.606 15.0231C126.27 16.8395 126.47 18.7931 126.187 20.7063C125.904 22.6196 125.148 24.4319 123.987 25.9789C122.827 27.5259 121.298 28.7584 119.539 29.5646C117.781 30.3708 115.849 30.7252 113.919 30.5955C116.152 30.8948 118.21 31.944 120.393 32.5025C122.576 33.0611 125.152 33.0231 126.774 31.4598C128.49 29.8059 128.524 27.1164 128.441 24.7347L128.071 14.1126C128.008 12.3071 127.954 10.4433 128.606 8.75791C129.257 7.07252 130.805 5.59666 132.612 5.61205C133.981 5.62384 135.193 6.4531 136.292 7.27124C137.39 8.08938 138.551 8.96219 139.917 9.08365C141.283 9.20511 142.839 8.19611 142.736 6.83026" fill="#1C14AF"/>
<path d="M272.848 180.551C272.717 185.419 271.902 190.245 270.425 194.885C270.392 194.993 270.356 195.099 270.32 195.207H261.279C261.288 195.11 261.298 195.002 261.308 194.885C261.911 187.956 258.467 146.284 254.311 139.072C254.675 139.657 273.549 158.533 272.848 180.551Z" fill="#4C6C6A"/>
<path d="M272.169 194.885C272.094 194.993 272.015 195.101 271.935 195.207H265.151C265.203 195.115 265.262 195.007 265.332 194.885C266.452 192.863 269.769 186.818 272.847 180.551C276.154 173.816 279.191 166.825 278.935 164.295C279.014 164.866 281.304 182.261 272.169 194.885Z" fill="#4C6C6A"/>
</g>
<defs>
<clipPath id="clip0">
<rect width="285" height="196" fill="white"/>
</clipPath>
</defs>
</svg>
