<svg width="199" height="112" viewBox="0 0 199 112" fill="none" xmlns="http://www.w3.org/2000/svg">
<g clip-path="url(#clip0)">
<rect width="199" height="112" fill="white"/>
<path d="M191.879 17.8674H96.9735V86.5792H191.879V17.8674Z" fill="#E6E8EC"/>
<path d="M209.987 86.7987H96.7552V0.744278H209.987V86.7987ZM97.1916 86.3596H209.551V1.18334H97.1916V86.3596Z" fill="#3F3D56"/>
<path d="M102.21 7.76914C103.415 7.76914 104.392 6.78629 104.392 5.57388C104.392 4.36147 103.415 3.37861 102.21 3.37861C101.005 3.37861 100.028 4.36147 100.028 5.57388C100.028 6.78629 101.005 7.76914 102.21 7.76914Z" fill="#3F3D56"/>
<path d="M108.318 7.76914C109.523 7.76914 110.5 6.78629 110.5 5.57388C110.5 4.36147 109.523 3.37861 108.318 3.37861C107.114 3.37861 106.137 4.36147 106.137 5.57388C106.137 6.78629 107.114 7.76914 108.318 7.76914Z" fill="#3F3D56"/>
<path d="M114.428 7.76914C115.633 7.76914 116.609 6.78629 116.609 5.57388C116.609 4.36147 115.633 3.37861 114.428 3.37861C113.223 3.37861 112.246 4.36147 112.246 5.57388C112.246 6.78629 113.223 7.76914 114.428 7.76914Z" fill="#3F3D56"/>
<path d="M167.706 28.6051H121.147V29.1315H167.706V28.6051Z" fill="#3F3D56"/>
<path d="M167.706 32.2898H121.147V32.8161H167.706V32.2898Z" fill="#3F3D56"/>
<path d="M167.706 35.9744H121.147V36.5008H167.706V35.9744Z" fill="#3F3D56"/>
<path d="M167.706 43.5329H121.147V44.0593H167.706V43.5329Z" fill="#3F3D56"/>
<path d="M167.706 47.2176H121.147V47.7439H167.706V47.2176Z" fill="#3F3D56"/>
<path d="M167.706 50.9022H121.147V51.4286H167.706V50.9022Z" fill="#3F3D56"/>
<path d="M144.358 83.2863C142.071 83.2863 139.836 82.6039 137.934 81.3254C136.033 80.047 134.551 78.2298 133.675 76.1038C132.8 73.9778 132.571 71.6385 133.017 69.3815C133.464 67.1245 134.565 65.0514 136.182 63.4242C137.799 61.7971 139.86 60.689 142.103 60.24C144.346 59.7911 146.671 60.0215 148.783 60.9021C150.896 61.7827 152.702 63.274 153.973 65.1874C155.243 67.1007 155.922 69.3502 155.922 71.6514C155.918 74.7361 154.699 77.6934 152.531 79.8747C150.363 82.0559 147.424 83.2828 144.358 83.2863ZM144.358 60.4555C142.158 60.4555 140.007 61.1121 138.177 62.3423C136.347 63.5726 134.921 65.3211 134.079 67.3669C133.236 69.4127 133.016 71.6638 133.445 73.8356C133.875 76.0073 134.935 78.0023 136.491 79.568C138.047 81.1338 140.029 82.2001 142.188 82.6321C144.346 83.0641 146.583 82.8424 148.616 81.995C150.65 81.1476 152.387 79.7126 153.61 77.8714C154.833 76.0303 155.485 73.8657 155.485 71.6514C155.482 68.6831 154.309 65.8373 152.223 63.7384C150.137 61.6395 147.308 60.4589 144.358 60.4555Z" fill="#6C63FF"/>
<path d="M150.031 71.2124H144.795V65.9436H143.922V71.2124H138.686V72.0904H143.922V77.3591H144.795V72.0904H150.031V71.2124Z" fill="#6C63FF"/>
<path d="M53.0115 78.1274C53.0115 78.1274 48.4299 83.1765 47.7754 94.8114C47.1209 106.446 46.9027 107.764 46.9027 107.764H63.2657L66.3201 99.8606L69.8108 107.764H85.3011C85.3011 107.764 87.0465 83.6156 85.3011 82.957C83.5557 82.2984 53.0115 78.1274 53.0115 78.1274Z" fill="#2F2E41"/>
<path d="M74.9378 18.7455C79.2756 18.7455 82.792 15.2072 82.792 10.8425C82.792 6.47781 79.2756 2.93954 74.9378 2.93954C70.6001 2.93954 67.0836 6.47781 67.0836 10.8425C67.0836 15.2072 70.6001 18.7455 74.9378 18.7455Z" fill="#FFB8B8"/>
<path d="M67.8474 11.3913L66.3202 25.441L77.0107 26.7582C77.0107 26.7582 77.447 14.4647 77.6652 14.0256C77.8833 13.5866 67.8474 11.3913 67.8474 11.3913Z" fill="#FFB8B8"/>
<path d="M98.1732 41.2469L102.755 50.2475C102.755 50.2475 108.864 59.2481 110.391 66.712C111.918 74.1759 113.445 77.6884 113.445 77.6884C113.445 77.6884 121.3 89.1037 116.936 91.0795C112.573 93.0552 108.864 78.3469 108.864 78.3469L96.8642 56.3943L89.8827 44.9789L98.1732 41.2469Z" fill="#FFB8B8"/>
<path d="M54.7572 43.4422L53.2299 50.028L38.8305 69.1268C38.8305 69.1268 27.2674 77.9079 32.0672 79.8836C36.867 81.8594 42.7576 71.9807 42.7576 71.9807L60.6478 56.1747L59.7751 43.4422H54.7572Z" fill="#FFB8B8"/>
<path d="M65.8841 22.5872C65.8841 22.5872 72.3631 25.3203 77.196 21.978C77.196 21.978 89.0104 23.9043 89.6649 24.5629C90.3194 25.2215 89.0104 44.9789 89.0104 44.9789L86.3923 56.1747C86.3923 56.1747 90.1012 73.2978 84.6469 77.6883L85.7378 83.6156C85.7378 83.6156 61.5206 85.3718 51.921 79.4446L53.6664 73.5173L58.248 54.8576L55.4118 28.9534C55.4118 28.9534 57.5935 23.0262 65.8841 22.5872Z" fill="#D0CDE1"/>
<path d="M84.1015 25.5508L89.774 24.6727C89.774 24.6727 92.6102 25.1117 95.2283 30.5999C97.8464 36.088 100.683 43.3324 100.683 43.3324L90.8649 47.7229L82.7925 34.9904L84.1015 25.5508Z" fill="#D0CDE1"/>
<path d="M56.7208 27.8558L55.4118 28.9534C55.4118 28.9534 53.6664 35.3197 53.6664 39.7103V45.6375L61.5206 46.5156L56.7208 27.8558Z" fill="#D0CDE1"/>
<path d="M67.0862 12.9872C67.0862 12.9872 66.0186 11.8272 66.1266 10.375C66.1978 9.54884 66.1453 8.71666 65.9708 7.90625C65.9708 7.90625 66.305 5.52931 66.7984 4.15152C67.2918 2.77373 66.8758 2.29427 68.9968 1.54208C71.1177 0.789901 69.7675 -1.93017 76.0206 0.237898C76.2584 0.479533 76.562 0.644869 76.8931 0.713039C77.2243 0.781209 77.568 0.749158 77.8811 0.620932C79.0355 0.195512 79.7312 1.79136 79.7312 1.79136C79.7312 1.79136 80.4513 1.19689 80.8554 1.81494C81.2594 2.43298 83.2137 1.02433 83.9303 5.52059C84.6469 10.0168 82.1868 14.0265 82.1868 14.0265C82.1868 14.0265 81.8416 6.83137 77.7806 6.70093C73.7196 6.57049 69.1271 5.02268 68.5575 8.05253C67.9879 11.0824 67.0862 12.9872 67.0862 12.9872Z" fill="#2F2E41"/>
</g>
<defs>
<clipPath id="clip0">
<rect width="199" height="112" fill="white"/>
</clipPath>
</defs>
</svg>
