<svg width="30" height="28" viewBox="0 0 30 28" fill="none" xmlns="http://www.w3.org/2000/svg">
<path d="M28.8363 7.7673L26.2277 10.2885C25.9617 10.5455 25.5317 10.5455 25.2657 10.2885L18.9847 4.21794C18.7187 3.9609 18.7187 3.54526 18.9847 3.28822L21.5933 0.767023C22.6514 -0.255674 24.3717 -0.255674 25.4355 0.767023L28.8363 4.05387C29.9001 5.07657 29.9001 6.73914 28.8363 7.7673ZM16.7439 5.45393L1.88437 19.8154L0.684746 26.4602C0.520646 27.3571 1.32983 28.1337 2.25784 27.9806L9.13304 26.8157L23.9925 12.4542C24.2585 12.1972 24.2585 11.7815 23.9925 11.5245L17.7115 5.45393C17.4399 5.19689 17.0098 5.19689 16.7439 5.45393ZM7.68444 18.5849C7.37321 18.2841 7.37321 17.8029 7.68444 17.5021L16.3987 9.07985C16.7099 8.77906 17.2079 8.77906 17.5191 9.07985C17.8303 9.38065 17.8303 9.86192 17.5191 10.1627L8.80484 18.5849C8.49362 18.8857 7.99566 18.8857 7.68444 18.5849ZM5.64168 23.1843H8.35781V25.1696L4.70801 25.7875L2.94819 24.0867L3.58761 20.5592H5.64168V23.1843Z" fill="black"/>
</svg>
