<?xml version="1.0" encoding="UTF-8"?>
<svg xmlns="http://www.w3.org/2000/svg" xmlns:xlink="http://www.w3.org/1999/xlink" width="375pt" height="374.999991pt" viewBox="0 0 375 374.999991" version="1.2">
<defs>
<clipPath id="clip1">
  <path d="M 2.402344 2.402344 L 372.902344 2.402344 L 372.902344 372.902344 L 2.402344 372.902344 Z M 2.402344 2.402344 "/>
</clipPath>
</defs>
<g id="surface1">
<g clip-path="url(#clip1)" clip-rule="nonzero">
<path style=" stroke:none;fill-rule:nonzero;fill:rgb(87.449646%,90.979004%,95.689392%);fill-opacity:1;" d="M 372.902344 187.652344 C 372.902344 190.683594 372.828125 193.710938 372.675781 196.742188 C 372.527344 199.769531 372.304688 202.792969 372.007812 205.808594 C 371.710938 208.824219 371.339844 211.832031 370.894531 214.832031 C 370.449219 217.832031 369.933594 220.816406 369.339844 223.792969 C 368.75 226.765625 368.085938 229.722656 367.347656 232.664062 C 366.613281 235.605469 365.804688 238.523438 364.925781 241.425781 C 364.042969 244.328125 363.09375 247.203125 362.070312 250.058594 C 361.050781 252.914062 359.960938 255.742188 358.800781 258.542969 C 357.640625 261.34375 356.410156 264.113281 355.113281 266.855469 C 353.820312 269.597656 352.457031 272.304688 351.027344 274.976562 C 349.597656 277.652344 348.105469 280.289062 346.546875 282.886719 C 344.984375 285.488281 343.363281 288.050781 341.679688 290.570312 C 339.996094 293.089844 338.25 295.570312 336.445312 298.003906 C 334.640625 300.4375 332.773438 302.828125 330.851562 305.171875 C 328.925781 307.515625 326.949219 309.8125 324.910156 312.058594 C 322.875 314.304688 320.785156 316.5 318.640625 318.640625 C 316.5 320.785156 314.304688 322.875 312.058594 324.910156 C 309.8125 326.949219 307.515625 328.925781 305.171875 330.851562 C 302.828125 332.773438 300.4375 334.640625 298.003906 336.445312 C 295.570312 338.25 293.089844 339.996094 290.570312 341.679688 C 288.050781 343.363281 285.488281 344.984375 282.886719 346.542969 C 280.289062 348.105469 277.652344 349.597656 274.976562 351.027344 C 272.304688 352.457031 269.597656 353.820312 266.855469 355.113281 C 264.113281 356.410156 261.34375 357.640625 258.542969 358.800781 C 255.742188 359.960938 252.914062 361.050781 250.058594 362.070312 C 247.203125 363.09375 244.328125 364.042969 241.425781 364.925781 C 238.523438 365.804688 235.605469 366.613281 232.664062 367.347656 C 229.722656 368.085938 226.765625 368.75 223.792969 369.339844 C 220.816406 369.933594 217.832031 370.449219 214.832031 370.894531 C 211.832031 371.339844 208.824219 371.710938 205.808594 372.007812 C 202.792969 372.304688 199.769531 372.527344 196.742188 372.675781 C 193.710938 372.828125 190.683594 372.902344 187.652344 372.902344 C 184.617188 372.902344 181.589844 372.828125 178.5625 372.675781 C 175.53125 372.527344 172.511719 372.304688 169.492188 372.007812 C 166.476562 371.710938 163.46875 371.339844 160.46875 370.894531 C 157.46875 370.449219 154.484375 369.933594 151.511719 369.339844 C 148.535156 368.75 145.578125 368.085938 142.640625 367.347656 C 139.699219 366.613281 136.777344 365.804688 133.875 364.925781 C 130.972656 364.042969 128.097656 363.09375 125.242188 362.070312 C 122.386719 361.050781 119.558594 359.960938 116.757812 358.800781 C 113.957031 357.640625 111.1875 356.410156 108.445312 355.113281 C 105.707031 353.820312 103 352.457031 100.324219 351.027344 C 97.652344 349.597656 95.011719 348.105469 92.414062 346.542969 C 89.8125 344.984375 87.253906 343.363281 84.730469 341.679688 C 82.210938 339.996094 79.734375 338.25 77.296875 336.445312 C 74.863281 334.640625 72.472656 332.773438 70.128906 330.851562 C 67.785156 328.925781 65.492188 326.949219 63.246094 324.910156 C 61 322.875 58.804688 320.785156 56.660156 318.640625 C 54.515625 316.5 52.425781 314.304688 50.390625 312.058594 C 48.355469 309.8125 46.375 307.515625 44.449219 305.171875 C 42.527344 302.828125 40.664062 300.4375 38.855469 298.003906 C 37.050781 295.570312 35.304688 293.089844 33.621094 290.570312 C 31.9375 288.050781 30.316406 285.488281 28.757812 282.886719 C 27.199219 280.289062 25.703125 277.652344 24.273438 274.976562 C 22.847656 272.304688 21.484375 269.597656 20.1875 266.855469 C 18.890625 264.113281 17.664062 261.34375 16.503906 258.542969 C 15.34375 255.742188 14.25 252.914062 13.230469 250.058594 C 12.207031 247.203125 11.257812 244.328125 10.378906 241.425781 C 9.496094 238.523438 8.6875 235.605469 7.953125 232.664062 C 7.214844 229.722656 6.550781 226.765625 5.960938 223.792969 C 5.367188 220.816406 4.851562 217.832031 4.40625 214.832031 C 3.960938 211.832031 3.589844 208.824219 3.292969 205.808594 C 2.996094 202.792969 2.773438 199.769531 2.625 196.742188 C 2.476562 193.710938 2.402344 190.683594 2.402344 187.652344 C 2.402344 184.617188 2.476562 181.589844 2.625 178.5625 C 2.773438 175.53125 2.996094 172.511719 3.292969 169.492188 C 3.589844 166.476562 3.960938 163.46875 4.40625 160.46875 C 4.851562 157.46875 5.367188 154.484375 5.960938 151.511719 C 6.550781 148.535156 7.214844 145.578125 7.953125 142.636719 C 8.6875 139.699219 9.496094 136.777344 10.378906 133.875 C 11.257812 130.972656 12.207031 128.097656 13.230469 125.242188 C 14.25 122.386719 15.34375 119.558594 16.503906 116.757812 C 17.664062 113.957031 18.890625 111.1875 20.1875 108.445312 C 21.484375 105.707031 22.847656 103 24.273438 100.324219 C 25.703125 97.652344 27.199219 95.011719 28.757812 92.414062 C 30.316406 89.8125 31.9375 87.253906 33.621094 84.730469 C 35.304688 82.210938 37.050781 79.734375 38.855469 77.296875 C 40.664062 74.863281 42.527344 72.472656 44.449219 70.128906 C 46.375 67.785156 48.355469 65.492188 50.390625 63.246094 C 52.425781 61 54.515625 58.804688 56.660156 56.660156 C 58.804688 54.515625 61 52.425781 63.246094 50.390625 C 65.492188 48.355469 67.785156 46.375 70.128906 44.449219 C 72.472656 42.527344 74.863281 40.664062 77.296875 38.855469 C 79.734375 37.050781 82.210938 35.304688 84.730469 33.621094 C 87.253906 31.9375 89.8125 30.316406 92.414062 28.757812 C 95.015625 27.199219 97.652344 25.703125 100.324219 24.273438 C 103 22.84375 105.707031 21.484375 108.445312 20.1875 C 111.1875 18.890625 113.957031 17.664062 116.757812 16.503906 C 119.558594 15.34375 122.386719 14.25 125.242188 13.230469 C 128.097656 12.207031 130.972656 11.257812 133.875 10.378906 C 136.777344 9.496094 139.699219 8.6875 142.640625 7.953125 C 145.578125 7.214844 148.535156 6.550781 151.511719 5.960938 C 154.484375 5.367188 157.46875 4.851562 160.46875 4.40625 C 163.46875 3.960938 166.476562 3.589844 169.492188 3.292969 C 172.511719 2.996094 175.53125 2.773438 178.5625 2.625 C 181.589844 2.476562 184.617188 2.402344 187.652344 2.402344 C 190.683594 2.402344 193.710938 2.476562 196.742188 2.625 C 199.769531 2.773438 202.792969 2.996094 205.808594 3.292969 C 208.824219 3.589844 211.832031 3.960938 214.832031 4.40625 C 217.832031 4.851562 220.816406 5.367188 223.792969 5.960938 C 226.765625 6.550781 229.722656 7.214844 232.664062 7.953125 C 235.605469 8.6875 238.523438 9.496094 241.425781 10.378906 C 244.328125 11.257812 247.207031 12.207031 250.058594 13.230469 C 252.914062 14.25 255.742188 15.34375 258.542969 16.503906 C 261.34375 17.664062 264.113281 18.890625 266.855469 20.1875 C 269.597656 21.484375 272.304688 22.84375 274.976562 24.273438 C 277.652344 25.703125 280.289062 27.199219 282.886719 28.757812 C 285.488281 30.316406 288.050781 31.9375 290.570312 33.621094 C 293.089844 35.304688 295.570312 37.050781 298.003906 38.855469 C 300.4375 40.664062 302.828125 42.527344 305.171875 44.449219 C 307.515625 46.375 309.8125 48.355469 312.058594 50.390625 C 314.304688 52.425781 316.5 54.515625 318.640625 56.660156 C 320.785156 58.804688 322.875 61 324.910156 63.246094 C 326.949219 65.492188 328.925781 67.785156 330.851562 70.128906 C 332.773438 72.472656 334.640625 74.863281 336.445312 77.296875 C 338.25 79.734375 339.996094 82.210938 341.679688 84.730469 C 343.363281 87.253906 344.984375 89.8125 346.546875 92.414062 C 348.105469 95.011719 349.597656 97.652344 351.027344 100.324219 C 352.457031 103 353.820312 105.707031 355.113281 108.445312 C 356.410156 111.1875 357.640625 113.957031 358.800781 116.757812 C 359.960938 119.558594 361.050781 122.386719 362.070312 125.242188 C 363.09375 128.097656 364.042969 130.972656 364.925781 133.875 C 365.804688 136.777344 366.613281 139.699219 367.347656 142.636719 C 368.085938 145.578125 368.75 148.535156 369.339844 151.511719 C 369.933594 154.484375 370.449219 157.46875 370.894531 160.46875 C 371.339844 163.46875 371.710938 166.476562 372.007812 169.492188 C 372.304688 172.511719 372.527344 175.53125 372.675781 178.5625 C 372.828125 181.589844 372.902344 184.617188 372.902344 187.652344 Z M 372.902344 187.652344 "/>
</g>
<path style=" stroke:none;fill-rule:nonzero;fill:rgb(10.978699%,7.449341%,38.42926%);fill-opacity:1;" d="M 171.90625 95.027344 L 203.398438 95.027344 C 204.070312 95.027344 204.738281 95.089844 205.398438 95.222656 C 206.0625 95.355469 206.703125 95.550781 207.324219 95.808594 C 207.949219 96.066406 208.539062 96.382812 209.101562 96.757812 C 209.660156 97.128906 210.179688 97.554688 210.65625 98.03125 C 211.132812 98.507812 211.558594 99.027344 211.933594 99.589844 C 212.308594 100.148438 212.625 100.742188 212.882812 101.363281 C 213.140625 101.984375 213.335938 102.628906 213.464844 103.289062 C 213.597656 103.949219 213.664062 104.617188 213.664062 105.292969 L 213.664062 270.011719 C 213.664062 270.683594 213.597656 271.351562 213.464844 272.011719 C 213.335938 272.671875 213.140625 273.316406 212.882812 273.9375 C 212.625 274.5625 212.308594 275.152344 211.933594 275.714844 C 211.558594 276.273438 211.132812 276.792969 210.65625 277.269531 C 210.179688 277.746094 209.660156 278.171875 209.101562 278.546875 C 208.539062 278.921875 207.949219 279.234375 207.324219 279.496094 C 206.703125 279.753906 206.0625 279.945312 205.398438 280.078125 C 204.738281 280.210938 204.070312 280.277344 203.398438 280.277344 L 171.90625 280.277344 C 171.230469 280.277344 170.5625 280.210938 169.902344 280.078125 C 169.242188 279.945312 168.597656 279.753906 167.976562 279.496094 C 167.351562 279.234375 166.761719 278.921875 166.199219 278.546875 C 165.640625 278.171875 165.121094 277.746094 164.644531 277.269531 C 164.167969 276.792969 163.742188 276.273438 163.367188 275.714844 C 162.996094 275.152344 162.679688 274.5625 162.421875 273.9375 C 162.160156 273.316406 161.96875 272.671875 161.835938 272.011719 C 161.703125 271.351562 161.636719 270.683594 161.636719 270.011719 L 161.636719 105.292969 C 161.636719 104.617188 161.703125 103.949219 161.835938 103.289062 C 161.96875 102.628906 162.160156 101.984375 162.421875 101.363281 C 162.679688 100.742188 162.996094 100.148438 163.367188 99.589844 C 163.742188 99.027344 164.167969 98.507812 164.644531 98.03125 C 165.121094 97.554688 165.640625 97.128906 166.199219 96.753906 C 166.761719 96.382812 167.351562 96.066406 167.976562 95.808594 C 168.597656 95.550781 169.242188 95.355469 169.902344 95.222656 C 170.5625 95.089844 171.230469 95.027344 171.90625 95.027344 Z M 171.90625 95.027344 "/>
<path style=" stroke:none;fill-rule:nonzero;fill:rgb(10.978699%,7.449341%,38.42926%);fill-opacity:1;" d="M 280.277344 171.90625 L 280.277344 203.398438 C 280.277344 204.070312 280.210938 204.738281 280.078125 205.398438 C 279.945312 206.0625 279.753906 206.703125 279.496094 207.324219 C 279.238281 207.949219 278.921875 208.539062 278.546875 209.101562 C 278.171875 209.660156 277.746094 210.179688 277.269531 210.65625 C 276.792969 211.132812 276.273438 211.558594 275.714844 211.933594 C 275.152344 212.308594 274.5625 212.625 273.9375 212.882812 C 273.316406 213.140625 272.671875 213.335938 272.011719 213.464844 C 271.351562 213.597656 270.683594 213.664062 270.011719 213.664062 L 105.292969 213.664062 C 104.617188 213.664062 103.949219 213.597656 103.289062 213.464844 C 102.628906 213.335938 101.984375 213.140625 101.363281 212.882812 C 100.742188 212.625 100.148438 212.308594 99.589844 211.933594 C 99.027344 211.558594 98.507812 211.132812 98.03125 210.65625 C 97.554688 210.179688 97.128906 209.660156 96.757812 209.101562 C 96.382812 208.539062 96.066406 207.949219 95.808594 207.324219 C 95.550781 206.703125 95.355469 206.0625 95.222656 205.398438 C 95.089844 204.738281 95.027344 204.070312 95.027344 203.398438 L 95.027344 171.90625 C 95.027344 171.230469 95.089844 170.5625 95.222656 169.902344 C 95.355469 169.242188 95.550781 168.597656 95.808594 167.976562 C 96.066406 167.351562 96.382812 166.761719 96.757812 166.199219 C 97.128906 165.640625 97.554688 165.121094 98.03125 164.644531 C 98.507812 164.167969 99.027344 163.742188 99.589844 163.367188 C 100.148438 162.996094 100.742188 162.679688 101.363281 162.421875 C 101.984375 162.160156 102.628906 161.96875 103.289062 161.835938 C 103.949219 161.703125 104.617188 161.636719 105.292969 161.636719 L 270.011719 161.636719 C 270.683594 161.636719 271.351562 161.703125 272.011719 161.835938 C 272.671875 161.96875 273.316406 162.160156 273.9375 162.421875 C 274.5625 162.679688 275.152344 162.996094 275.714844 163.367188 C 276.273438 163.742188 276.792969 164.167969 277.269531 164.644531 C 277.746094 165.121094 278.171875 165.640625 278.546875 166.199219 C 278.921875 166.761719 279.238281 167.351562 279.496094 167.976562 C 279.753906 168.597656 279.945312 169.242188 280.078125 169.902344 C 280.210938 170.5625 280.277344 171.230469 280.277344 171.90625 Z M 280.277344 171.90625 "/>
</g>
</svg>
