<?xml version="1.0" encoding="UTF-8"?>
<svg xmlns="http://www.w3.org/2000/svg" xmlns:xlink="http://www.w3.org/1999/xlink" width="375pt" height="374.999991pt" viewBox="0 0 375 374.999991" version="1.2">
<defs>
<clipPath id="clip1">
  <path d="M 2.304688 2.304688 L 372.804688 2.304688 L 372.804688 372.804688 L 2.304688 372.804688 Z M 2.304688 2.304688 "/>
</clipPath>
</defs>
<g id="surface1">
<g clip-path="url(#clip1)" clip-rule="nonzero">
<path style=" stroke:none;fill-rule:nonzero;fill:rgb(10.978699%,7.449341%,38.42926%);fill-opacity:1;" d="M 372.804688 187.554688 C 372.804688 190.585938 372.730469 193.613281 372.582031 196.644531 C 372.429688 199.671875 372.207031 202.695312 371.910156 205.710938 C 371.613281 208.726562 371.242188 211.734375 370.796875 214.734375 C 370.351562 217.734375 369.835938 220.71875 369.242188 223.695312 C 368.652344 226.667969 367.988281 229.625 367.25 232.566406 C 366.515625 235.507812 365.707031 238.425781 364.828125 241.328125 C 363.945312 244.230469 362.996094 247.109375 361.972656 249.960938 C 360.953125 252.816406 359.863281 255.644531 358.703125 258.445312 C 357.542969 261.246094 356.3125 264.015625 355.015625 266.757812 C 353.722656 269.5 352.359375 272.207031 350.929688 274.878906 C 349.5 277.554688 348.007812 280.191406 346.449219 282.789062 C 344.890625 285.390625 343.265625 287.953125 341.582031 290.472656 C 339.898438 292.992188 338.152344 295.472656 336.347656 297.90625 C 334.542969 300.339844 332.675781 302.730469 330.753906 305.074219 C 328.832031 307.417969 326.851562 309.714844 324.816406 311.960938 C 322.777344 314.207031 320.6875 316.402344 318.542969 318.542969 C 316.402344 320.6875 314.207031 322.777344 311.960938 324.8125 C 309.714844 326.851562 307.417969 328.832031 305.074219 330.753906 C 302.730469 332.675781 300.339844 334.542969 297.90625 336.347656 C 295.472656 338.152344 292.992188 339.898438 290.472656 341.582031 C 287.953125 343.265625 285.390625 344.890625 282.789062 346.449219 C 280.191406 348.007812 277.554688 349.5 274.878906 350.929688 C 272.207031 352.359375 269.5 353.722656 266.757812 355.015625 C 264.015625 356.3125 261.246094 357.542969 258.445312 358.703125 C 255.644531 359.863281 252.816406 360.953125 249.960938 361.972656 C 247.109375 362.996094 244.230469 363.945312 241.328125 364.828125 C 238.425781 365.707031 235.507812 366.515625 232.566406 367.25 C 229.625 367.988281 226.667969 368.652344 223.695312 369.242188 C 220.71875 369.835938 217.734375 370.351562 214.734375 370.796875 C 211.734375 371.242188 208.726562 371.613281 205.710938 371.910156 C 202.695312 372.207031 199.671875 372.429688 196.644531 372.582031 C 193.613281 372.730469 190.585938 372.804688 187.554688 372.804688 C 184.523438 372.804688 181.492188 372.730469 178.464844 372.582031 C 175.433594 372.429688 172.414062 372.207031 169.394531 371.910156 C 166.378906 371.613281 163.371094 371.242188 160.371094 370.796875 C 157.371094 370.351562 154.386719 369.835938 151.414062 369.242188 C 148.4375 368.652344 145.480469 367.988281 142.542969 367.25 C 139.601562 366.515625 136.679688 365.707031 133.777344 364.828125 C 130.875 363.945312 128 362.996094 125.144531 361.972656 C 122.289062 360.953125 119.460938 359.863281 116.660156 358.703125 C 113.859375 357.542969 111.089844 356.3125 108.347656 355.015625 C 105.609375 353.722656 102.902344 352.359375 100.226562 350.929688 C 97.554688 349.5 94.917969 348.007812 92.316406 346.449219 C 89.714844 344.890625 87.15625 343.265625 84.632812 341.582031 C 82.113281 339.898438 79.636719 338.152344 77.199219 336.347656 C 74.765625 334.542969 72.375 332.675781 70.03125 330.753906 C 67.6875 328.832031 65.394531 326.851562 63.148438 324.816406 C 60.902344 322.777344 58.707031 320.6875 56.5625 318.542969 C 54.417969 316.402344 52.328125 314.207031 50.292969 311.960938 C 48.257812 309.714844 46.277344 307.417969 44.351562 305.074219 C 42.429688 302.730469 40.566406 300.339844 38.757812 297.90625 C 36.953125 295.472656 35.207031 292.992188 33.523438 290.472656 C 31.839844 287.953125 30.21875 285.390625 28.660156 282.789062 C 27.101562 280.191406 25.605469 277.554688 24.175781 274.878906 C 22.75 272.207031 21.386719 269.5 20.089844 266.757812 C 18.792969 264.015625 17.566406 261.246094 16.40625 258.445312 C 15.246094 255.644531 14.152344 252.816406 13.132812 249.960938 C 12.109375 247.109375 11.160156 244.230469 10.28125 241.328125 C 9.398438 238.425781 8.589844 235.507812 7.855469 232.566406 C 7.117188 229.625 6.453125 226.667969 5.863281 223.695312 C 5.269531 220.71875 4.753906 217.734375 4.308594 214.734375 C 3.863281 211.734375 3.492188 208.726562 3.195312 205.710938 C 2.898438 202.695312 2.675781 199.671875 2.527344 196.644531 C 2.378906 193.613281 2.304688 190.585938 2.304688 187.554688 C 2.304688 184.523438 2.378906 181.492188 2.527344 178.464844 C 2.675781 175.433594 2.898438 172.414062 3.195312 169.394531 C 3.492188 166.378906 3.863281 163.371094 4.308594 160.371094 C 4.753906 157.371094 5.269531 154.386719 5.863281 151.414062 C 6.453125 148.4375 7.117188 145.480469 7.855469 142.542969 C 8.589844 139.601562 9.398438 136.679688 10.28125 133.777344 C 11.160156 130.875 12.109375 128 13.132812 125.144531 C 14.152344 122.289062 15.246094 119.460938 16.40625 116.660156 C 17.566406 113.859375 18.792969 111.089844 20.089844 108.347656 C 21.386719 105.609375 22.75 102.902344 24.175781 100.226562 C 25.605469 97.554688 27.101562 94.917969 28.660156 92.316406 C 30.21875 89.714844 31.839844 87.15625 33.523438 84.632812 C 35.207031 82.113281 36.953125 79.636719 38.757812 77.199219 C 40.566406 74.765625 42.429688 72.375 44.351562 70.03125 C 46.277344 67.6875 48.257812 65.394531 50.292969 63.148438 C 52.328125 60.902344 54.417969 58.707031 56.5625 56.5625 C 58.707031 54.417969 60.902344 52.328125 63.148438 50.292969 C 65.394531 48.257812 67.6875 46.277344 70.03125 44.351562 C 72.375 42.429688 74.765625 40.566406 77.199219 38.757812 C 79.636719 36.953125 82.113281 35.207031 84.632812 33.523438 C 87.15625 31.839844 89.714844 30.21875 92.316406 28.660156 C 94.917969 27.101562 97.554688 25.605469 100.226562 24.175781 C 102.902344 22.75 105.609375 21.386719 108.347656 20.089844 C 111.089844 18.792969 113.859375 17.566406 116.660156 16.40625 C 119.460938 15.246094 122.289062 14.152344 125.144531 13.132812 C 128 12.109375 130.875 11.160156 133.777344 10.28125 C 136.679688 9.398438 139.601562 8.589844 142.542969 7.855469 C 145.480469 7.117188 148.4375 6.453125 151.414062 5.863281 C 154.386719 5.269531 157.371094 4.753906 160.371094 4.308594 C 163.371094 3.863281 166.378906 3.492188 169.394531 3.195312 C 172.414062 2.898438 175.433594 2.675781 178.464844 2.527344 C 181.492188 2.378906 184.523438 2.304688 187.554688 2.304688 C 190.585938 2.304688 193.613281 2.378906 196.644531 2.527344 C 199.671875 2.675781 202.695312 2.898438 205.710938 3.195312 C 208.726562 3.492188 211.734375 3.863281 214.734375 4.308594 C 217.734375 4.753906 220.71875 5.269531 223.695312 5.863281 C 226.667969 6.453125 229.625 7.117188 232.566406 7.855469 C 235.507812 8.589844 238.425781 9.398438 241.328125 10.28125 C 244.230469 11.160156 247.109375 12.109375 249.960938 13.132812 C 252.816406 14.152344 255.644531 15.246094 258.445312 16.40625 C 261.246094 17.566406 264.015625 18.792969 266.757812 20.089844 C 269.5 21.386719 272.207031 22.75 274.878906 24.175781 C 277.554688 25.605469 280.191406 27.101562 282.789062 28.660156 C 285.390625 30.21875 287.953125 31.839844 290.472656 33.523438 C 292.992188 35.207031 295.472656 36.953125 297.90625 38.757812 C 300.339844 40.566406 302.730469 42.429688 305.074219 44.351562 C 307.417969 46.277344 309.714844 48.257812 311.960938 50.292969 C 314.207031 52.328125 316.402344 54.417969 318.542969 56.5625 C 320.6875 58.707031 322.777344 60.902344 324.8125 63.148438 C 326.851562 65.394531 328.832031 67.6875 330.753906 70.03125 C 332.675781 72.375 334.542969 74.765625 336.347656 77.199219 C 338.152344 79.636719 339.898438 82.113281 341.582031 84.632812 C 343.265625 87.15625 344.890625 89.714844 346.449219 92.316406 C 348.007812 94.917969 349.5 97.554688 350.929688 100.226562 C 352.359375 102.902344 353.722656 105.609375 355.015625 108.347656 C 356.3125 111.089844 357.542969 113.859375 358.703125 116.660156 C 359.863281 119.460938 360.953125 122.289062 361.972656 125.144531 C 362.996094 128 363.945312 130.875 364.828125 133.777344 C 365.707031 136.679688 366.515625 139.601562 367.25 142.542969 C 367.988281 145.480469 368.652344 148.4375 369.242188 151.414062 C 369.835938 154.386719 370.351562 157.371094 370.796875 160.371094 C 371.242188 163.371094 371.613281 166.378906 371.910156 169.394531 C 372.207031 172.414062 372.429688 175.433594 372.582031 178.464844 C 372.730469 181.492188 372.804688 184.523438 372.804688 187.554688 Z M 372.804688 187.554688 "/>
</g>
<path style=" stroke:none;fill-rule:nonzero;fill:rgb(52.938843%,93.728638%,38.819885%);fill-opacity:1;" d="M 171.808594 94.929688 L 203.300781 94.929688 C 203.972656 94.929688 204.640625 94.992188 205.300781 95.125 C 205.964844 95.257812 206.605469 95.453125 207.226562 95.710938 C 207.851562 95.96875 208.441406 96.285156 209.003906 96.660156 C 209.5625 97.03125 210.082031 97.457031 210.558594 97.933594 C 211.035156 98.410156 211.460938 98.929688 211.835938 99.492188 C 212.210938 100.050781 212.527344 100.644531 212.785156 101.265625 C 213.042969 101.886719 213.238281 102.53125 213.367188 103.191406 C 213.5 103.851562 213.566406 104.519531 213.566406 105.195312 L 213.566406 269.914062 C 213.566406 270.585938 213.5 271.253906 213.367188 271.914062 C 213.238281 272.578125 213.042969 273.21875 212.785156 273.839844 C 212.527344 274.464844 212.210938 275.054688 211.835938 275.617188 C 211.460938 276.175781 211.035156 276.695312 210.558594 277.171875 C 210.082031 277.648438 209.5625 278.074219 209.003906 278.449219 C 208.441406 278.824219 207.851562 279.140625 207.226562 279.398438 C 206.605469 279.65625 205.964844 279.847656 205.300781 279.980469 C 204.640625 280.113281 203.972656 280.179688 203.300781 280.179688 L 171.808594 280.179688 C 171.132812 280.179688 170.464844 280.113281 169.804688 279.980469 C 169.144531 279.847656 168.5 279.65625 167.878906 279.398438 C 167.253906 279.140625 166.664062 278.824219 166.105469 278.449219 C 165.542969 278.074219 165.023438 277.648438 164.546875 277.171875 C 164.070312 276.695312 163.644531 276.175781 163.269531 275.617188 C 162.898438 275.054688 162.582031 274.464844 162.324219 273.839844 C 162.066406 273.21875 161.871094 272.578125 161.738281 271.914062 C 161.605469 271.253906 161.542969 270.585938 161.542969 269.914062 L 161.542969 105.195312 C 161.542969 104.519531 161.605469 103.851562 161.738281 103.191406 C 161.871094 102.53125 162.066406 101.886719 162.324219 101.265625 C 162.582031 100.644531 162.898438 100.050781 163.269531 99.492188 C 163.644531 98.929688 164.070312 98.410156 164.546875 97.933594 C 165.023438 97.457031 165.542969 97.03125 166.105469 96.660156 C 166.664062 96.285156 167.253906 95.96875 167.878906 95.710938 C 168.5 95.453125 169.144531 95.257812 169.804688 95.125 C 170.464844 94.992188 171.132812 94.929688 171.808594 94.929688 Z M 171.808594 94.929688 "/>
<path style=" stroke:none;fill-rule:nonzero;fill:rgb(52.938843%,93.728638%,38.819885%);fill-opacity:1;" d="M 280.179688 171.808594 L 280.179688 203.300781 C 280.179688 203.972656 280.113281 204.640625 279.980469 205.300781 C 279.847656 205.964844 279.65625 206.605469 279.398438 207.226562 C 279.140625 207.851562 278.824219 208.441406 278.449219 209.003906 C 278.074219 209.5625 277.648438 210.082031 277.171875 210.558594 C 276.695312 211.035156 276.175781 211.460938 275.617188 211.835938 C 275.054688 212.210938 274.464844 212.527344 273.839844 212.785156 C 273.21875 213.042969 272.578125 213.238281 271.914062 213.367188 C 271.253906 213.5 270.585938 213.566406 269.914062 213.566406 L 105.195312 213.566406 C 104.519531 213.566406 103.851562 213.5 103.191406 213.367188 C 102.53125 213.238281 101.886719 213.042969 101.265625 212.785156 C 100.644531 212.527344 100.050781 212.210938 99.492188 211.835938 C 98.929688 211.460938 98.410156 211.035156 97.933594 210.558594 C 97.457031 210.082031 97.03125 209.5625 96.660156 209.003906 C 96.285156 208.441406 95.96875 207.851562 95.710938 207.226562 C 95.453125 206.605469 95.257812 205.964844 95.125 205.300781 C 94.992188 204.640625 94.929688 203.972656 94.929688 203.300781 L 94.929688 171.808594 C 94.929688 171.132812 94.992188 170.464844 95.125 169.804688 C 95.257812 169.144531 95.453125 168.5 95.710938 167.878906 C 95.96875 167.253906 96.285156 166.664062 96.660156 166.105469 C 97.03125 165.542969 97.457031 165.023438 97.933594 164.546875 C 98.410156 164.070312 98.929688 163.644531 99.492188 163.269531 C 100.050781 162.898438 100.644531 162.582031 101.265625 162.324219 C 101.886719 162.066406 102.53125 161.871094 103.191406 161.738281 C 103.851562 161.605469 104.519531 161.542969 105.195312 161.542969 L 269.914062 161.542969 C 270.585938 161.542969 271.253906 161.605469 271.914062 161.738281 C 272.578125 161.871094 273.21875 162.066406 273.839844 162.324219 C 274.464844 162.582031 275.054688 162.898438 275.617188 163.269531 C 276.175781 163.644531 276.695312 164.070312 277.171875 164.546875 C 277.648438 165.023438 278.074219 165.542969 278.449219 166.105469 C 278.824219 166.664062 279.140625 167.253906 279.398438 167.878906 C 279.65625 168.5 279.847656 169.144531 279.980469 169.804688 C 280.113281 170.464844 280.179688 171.132812 280.179688 171.808594 Z M 280.179688 171.808594 "/>
</g>
</svg>
