<?xml version="1.0" encoding="UTF-8"?>
<svg xmlns="http://www.w3.org/2000/svg" xmlns:xlink="http://www.w3.org/1999/xlink" width="375pt" height="374.999991pt" viewBox="0 0 375 374.999991" version="1.2">
<defs>
<clipPath id="clip1">
  <path d="M 4.464844 4.464844 L 370.464844 4.464844 L 370.464844 370.464844 L 4.464844 370.464844 Z M 4.464844 4.464844 "/>
</clipPath>
</defs>
<g id="surface1">
<g clip-path="url(#clip1)" clip-rule="nonzero">
<path style=" stroke:none;fill-rule:nonzero;fill:rgb(100%,39.608765%,51.759338%);fill-opacity:1;" d="M 343.542969 4.449219 L 31.386719 4.449219 C 16.53125 4.449219 4.445312 16.535156 4.445312 31.390625 L 4.445312 343.542969 C 4.445312 358.394531 16.53125 370.480469 31.386719 370.480469 L 343.539062 370.480469 C 358.394531 370.480469 370.480469 358.394531 370.480469 343.542969 L 370.480469 31.390625 C 370.484375 16.535156 358.398438 4.449219 343.542969 4.449219 Z M 292.898438 267.960938 C 299.789062 274.84375 299.789062 286.007812 292.898438 292.894531 C 289.457031 296.339844 284.945312 298.058594 280.429688 298.058594 C 275.914062 298.058594 271.402344 296.339844 267.960938 292.894531 L 187.464844 212.402344 L 106.96875 292.894531 C 103.523438 296.339844 99.011719 298.058594 94.5 298.058594 C 89.984375 298.058594 85.46875 296.339844 82.027344 292.894531 C 75.140625 286.007812 75.140625 274.84375 82.027344 267.960938 L 162.523438 187.46875 L 82.03125 106.972656 C 75.144531 100.085938 75.144531 88.921875 82.03125 82.039062 C 88.917969 75.148438 100.078125 75.148438 106.96875 82.039062 L 187.464844 162.53125 L 267.960938 82.039062 C 274.839844 75.148438 286.011719 75.148438 292.894531 82.039062 C 299.785156 88.921875 299.785156 100.085938 292.894531 106.972656 L 212.402344 187.46875 Z M 292.898438 267.960938 "/>
</g>
</g>
</svg>
