<?xml version="1.0" encoding="UTF-8"?>
<svg xmlns="http://www.w3.org/2000/svg" xmlns:xlink="http://www.w3.org/1999/xlink" width="375pt" height="374.999991pt" viewBox="0 0 375 374.999991" version="1.2">
<defs>
<clipPath id="clip1">
  <path d="M 3.488281 7 L 304 7 L 304 367.691406 L 3.488281 367.691406 Z M 3.488281 7 "/>
</clipPath>
</defs>
<g id="surface1">
<path style=" stroke:none;fill-rule:nonzero;fill:rgb(10.978699%,7.449341%,38.42926%);fill-opacity:1;" d="M 367.390625 93.40625 C 364.976562 87.121094 360.359375 80.363281 354.375 74.367188 C 345.179688 65.1875 334.355469 59.480469 326.128906 59.480469 C 321.015625 59.480469 317.851562 61.566406 316.089844 63.316406 L 306.554688 72.835938 L 171.085938 208.113281 C 171.058594 208.144531 171.039062 208.179688 171.011719 208.207031 C 170.921875 208.300781 170.847656 208.410156 170.761719 208.511719 C 170.492188 208.828125 170.257812 209.15625 170.054688 209.503906 C 169.976562 209.640625 169.90625 209.777344 169.839844 209.914062 C 169.644531 210.316406 169.492188 210.726562 169.382812 211.152344 C 169.363281 211.226562 169.320312 211.289062 169.304688 211.359375 L 161.199219 247.972656 L 161.199219 247.984375 L 157.933594 262.601562 C 157.445312 264.808594 158.113281 267.113281 159.714844 268.714844 C 160.972656 269.96875 162.664062 270.652344 164.402344 270.652344 C 164.878906 270.652344 165.359375 270.601562 165.839844 270.496094 L 180.476562 267.25 L 180.492188 267.25 L 217.183594 259.15625 C 217.257812 259.140625 217.320312 259.097656 217.390625 259.082031 C 217.816406 258.976562 218.230469 258.820312 218.632812 258.625 C 218.769531 258.554688 218.90625 258.488281 219.039062 258.414062 C 219.390625 258.207031 219.726562 257.96875 220.046875 257.695312 C 220.140625 257.613281 220.246094 257.542969 220.335938 257.457031 C 220.371094 257.429688 220.40625 257.40625 220.4375 257.378906 L 355.898438 122.121094 L 355.902344 122.121094 L 355.902344 122.117188 L 365.429688 112.59375 C 367.945312 110.082031 371.550781 104.257812 367.390625 93.40625 Z M 325.265625 72.816406 C 325.265625 72.816406 325.507812 72.710938 326.128906 72.710938 C 329.910156 72.710938 337.429688 76.160156 345.003906 83.71875 C 354.554688 93.285156 356.6875 101.683594 356.0625 103.234375 L 351.210938 108.085938 L 320.59375 77.503906 Z M 181.175781 253.550781 L 174.914062 247.292969 L 179.628906 225.992188 L 202.519531 248.839844 Z M 181.175781 253.550781 "/>
<g clip-path="url(#clip1)" clip-rule="nonzero">
<path style=" stroke:none;fill-rule:nonzero;fill:rgb(10.978699%,7.449341%,38.42926%);fill-opacity:1;" d="M 293.867188 206.488281 C 288.378906 206.488281 283.933594 210.925781 283.933594 216.40625 L 283.933594 348.078125 L 23.8125 348.078125 L 23.8125 26.878906 L 283.933594 26.878906 L 283.933594 49.222656 C 283.933594 54.703125 288.378906 59.144531 293.867188 59.144531 C 299.355469 59.144531 303.804688 54.703125 303.804688 49.222656 L 303.804688 16.957031 C 303.804688 11.484375 299.355469 7.039062 293.867188 7.039062 L 13.878906 7.039062 C 8.390625 7.039062 3.941406 11.484375 3.941406 16.957031 L 3.941406 358 C 3.941406 363.480469 8.390625 367.921875 13.878906 367.921875 L 293.867188 367.921875 C 299.355469 367.921875 303.804688 363.480469 303.804688 358 L 303.804688 216.410156 C 303.804688 210.925781 299.355469 206.488281 293.867188 206.488281 Z M 293.867188 206.488281 "/>
</g>
<path style=" stroke:none;fill-rule:nonzero;fill:rgb(10.978699%,7.449341%,38.42926%);fill-opacity:1;" d="M 229.15625 109.039062 C 229.15625 105.386719 226.191406 102.425781 222.535156 102.425781 L 77.683594 102.425781 C 74.027344 102.425781 71.0625 105.386719 71.0625 109.039062 C 71.0625 112.6875 74.027344 115.652344 77.683594 115.652344 L 222.53125 115.652344 C 226.191406 115.652344 229.15625 112.6875 229.15625 109.039062 Z M 229.15625 109.039062 "/>
<path style=" stroke:none;fill-rule:nonzero;fill:rgb(10.978699%,7.449341%,38.42926%);fill-opacity:1;" d="M 157.949219 181.78125 C 157.949219 178.132812 154.980469 175.167969 151.324219 175.167969 L 77.683594 175.167969 C 74.027344 175.167969 71.0625 178.132812 71.0625 181.78125 C 71.0625 185.433594 74.027344 188.394531 77.683594 188.394531 L 151.320312 188.394531 C 154.980469 188.394531 157.949219 185.433594 157.949219 181.78125 Z M 157.949219 181.78125 "/>
<path style=" stroke:none;fill-rule:nonzero;fill:rgb(10.978699%,7.449341%,38.42926%);fill-opacity:1;" d="M 77.683594 246.261719 C 74.027344 246.261719 71.0625 249.222656 71.0625 252.875 C 71.0625 256.523438 74.027344 259.488281 77.683594 259.488281 L 116.542969 259.488281 C 120.203125 259.488281 123.167969 256.523438 123.167969 252.875 C 123.167969 249.222656 120.203125 246.261719 116.542969 246.261719 Z M 77.683594 246.261719 "/>
</g>
</svg>
