<svg width="165" height="110" viewBox="0 0 165 110" fill="none" xmlns="http://www.w3.org/2000/svg">
<path opacity="0.1" d="M160.727 102.403C158.988 103.844 156.887 104.872 154.62 105.632C154.29 105.744 153.955 105.85 153.616 105.948C152.739 106.209 151.843 106.435 150.938 106.632C150.492 106.732 150.043 106.823 149.594 106.909C148.83 107.056 148.063 107.187 147.301 107.307C144.472 107.751 141.624 108.08 138.762 108.33C137.879 108.407 136.996 108.478 136.113 108.54L135.76 108.565L135.128 108.608L134.739 108.633C134.147 108.672 133.556 108.707 132.966 108.74C130.602 108.873 128.234 108.97 125.867 109.056C124.127 109.117 122.405 109.167 120.675 109.215L117.157 109.317L116.247 109.344L115.849 109.355C114.807 109.387 113.765 109.417 112.721 109.445L112.427 109.453L111.51 109.48L109.77 109.527L109.251 109.542L108.777 109.554C97.7342 109.851 86.6834 110.068 75.647 109.975C74.7635 109.968 73.8806 109.959 72.9981 109.946C64.8034 109.84 56.6182 109.554 48.4472 108.998C45.5754 108.802 42.6846 108.565 39.8096 108.238C38.9241 108.138 38.0411 108.029 37.1608 107.911C30.0984 106.962 23.2099 105.363 17.0393 102.379C12.3916 100.127 8.10131 96.9237 6.3017 92.6613C4.48469 88.3594 5.44617 83.5281 7.52094 79.3115C9.59572 75.095 12.7174 71.3162 15.4089 67.3541C16.334 65.9902 17.2085 64.5694 18.0008 63.1091C18.0482 63.0206 18.0972 62.9305 18.1431 62.842C18.549 62.0803 18.9317 61.309 19.2912 60.5283C19.6328 59.7844 19.949 59.0332 20.24 58.2746C20.3275 58.0481 20.4113 57.8221 20.4915 57.5966C20.5009 57.5713 20.5104 57.5461 20.5183 57.5208C20.5262 57.4955 20.5389 57.4639 20.5484 57.4354C21.06 56.0005 21.4586 54.5278 21.7407 53.0308L21.7787 52.8222C21.7961 52.7226 21.8135 52.6246 21.8293 52.5251C21.8451 52.4255 21.8594 52.3402 21.8736 52.2469C22.0933 50.8438 22.1754 49.4226 22.1187 48.0035C22.1187 47.9514 22.1187 47.8992 22.1187 47.8455C22.0836 47.118 22.0044 46.3934 21.8815 45.6756C21.872 45.6139 21.8625 45.5539 21.8499 45.4938C21.6656 44.4641 21.3866 43.4536 21.0165 42.4752C21.0007 42.4325 20.9833 42.3883 20.9659 42.344C20.9659 42.3251 20.9516 42.3045 20.9437 42.2856C20.8251 41.9837 20.6986 41.685 20.5595 41.3863C20.5373 41.3357 20.512 41.2836 20.4883 41.2283C20.4424 41.1319 20.3966 41.0355 20.3476 40.9406C20.1251 40.4865 19.8774 40.0382 19.6043 39.5957C19.288 39.0694 18.929 38.5542 18.5606 38.0485L18.5084 37.9774L18.4657 37.9173C17.9818 37.2583 17.4758 36.6103 16.9824 35.956C16.5949 35.4455 16.2154 34.9319 15.8596 34.4088L15.7963 34.314C15.365 33.6826 14.9803 33.0208 14.6451 32.3337C14.5787 32.193 14.5138 32.0524 14.4537 31.9102C14.3462 31.6604 14.2466 31.4092 14.158 31.1563C12.9435 27.7268 13.312 23.9812 13.8955 20.4095C14.7605 15.1024 16.3704 9.38292 21.3533 6.07038C25.7037 3.17664 31.5912 2.83843 37.1671 3.54171C38.0606 3.65234 38.9446 3.78984 39.816 3.94788L40.2904 4.03796C47.3434 5.38922 54.0136 7.78197 60.6017 10.3438C62.1404 10.9428 63.6759 11.5513 65.2098 12.1566C66.4085 12.6296 67.6077 13.1001 68.8075 13.5679C70.1938 14.1073 71.5907 14.6341 72.9981 15.1483C73.8774 15.4707 74.7603 15.7868 75.647 16.0965C77.0692 16.5907 78.5008 17.0601 79.942 17.5047C80.9625 17.8208 81.9883 18.1184 83.0194 18.3976C87.9217 19.7315 92.9505 20.656 98.0979 20.8346C102.019 20.9725 105.941 20.6092 109.77 19.7536C110.664 19.5513 111.549 19.319 112.419 19.0566C113.633 18.6912 114.826 18.2591 115.993 17.7623C118.936 16.498 121.581 14.829 123.675 12.705L123.693 12.6876C126.794 9.54413 131.34 7.94633 136.103 7.67924C136.985 7.62945 137.87 7.6247 138.752 7.66502C142.064 7.80193 145.319 8.56337 148.348 9.9092C155.882 13.3229 160.754 20.5501 160.387 27.7679C159.854 38.2745 149.719 46.3393 143.672 55.531C143.245 56.179 142.838 56.8475 142.46 57.5302C142.321 57.78 142.188 58.0312 142.059 58.2841C140.569 61.1921 139.674 64.3324 140.161 67.3494C140.246 67.8812 140.375 68.4051 140.547 68.9156C140.621 69.1384 140.705 69.3612 140.798 69.5825C141.493 71.2356 142.59 72.6374 143.944 73.8844C144.558 74.4449 145.203 74.9695 145.878 75.4553C151.52 79.5549 159.693 82.1405 163.303 87.7414C166.324 92.3863 165.207 98.6842 160.727 102.403Z" fill="#6C63FF"/>
<path opacity="0.1" d="M138.765 82.6193V58.2667H142.072C142.201 58.0139 142.334 57.7626 142.473 57.5129H138.765V31.9101H151.732C151.704 31.6589 151.672 31.4044 151.641 31.1563H138.765V7.64763C137.882 7.60732 136.998 7.61206 136.116 7.66185V31.1516H112.432V19.044C111.562 19.3063 110.676 19.5387 109.783 19.741V31.1516H75.9746L75.8939 31.0077L83.0323 18.385C82.0012 18.1058 80.9754 17.8081 79.9549 17.492L75.6599 25.0859V16.0776C74.7733 15.7699 73.8903 15.4538 73.0111 15.1293V25.9204L65.2227 12.1486C63.6888 11.5434 62.1533 10.9349 60.6146 10.3359L72.3168 31.0156L72.2346 31.1595H39.8226V3.93208C38.9512 3.77403 38.0672 3.63654 37.1737 3.52591V31.1516H14.1583C14.2468 31.4044 14.3465 31.6557 14.454 31.9054H37.1737V57.5081H20.5281C20.5202 57.5334 20.5107 57.5587 20.5012 57.584C20.4211 57.8095 20.3373 58.0355 20.2498 58.262H37.1706V82.6193H13.3455C13.4193 82.8701 13.4957 83.1214 13.5748 83.3732H37.1737V108.293C38.0593 108.527 38.9423 108.771 39.8226 109.026V83.3732H73.0126V109.949C73.8951 109.962 74.778 109.972 75.6615 109.978V83.3732H109.783V109.524L111.522 109.477L112.44 109.45V83.3732H136.11V108.543C136.993 108.48 137.876 108.41 138.759 108.333V83.3732H149.117C149.088 83.1219 149.061 82.8706 149.035 82.6193H138.765ZM73.0111 82.6193H39.8226V58.2667H73.0126L73.0111 82.6193ZM73.0111 57.5129H39.8226V31.9101H72.5382L73.0126 32.5945L73.0111 57.5129ZM109.783 82.6193H75.6599V58.2667H109.783V82.6193ZM109.783 57.5129H75.6599V31.9101H109.783V57.5129ZM136.11 82.6193H112.432V58.2667H136.11V82.6193ZM136.11 57.5129H112.432V31.9101H136.11V57.5129Z" fill="#6C63FF"/>
<path opacity="0.1" d="M125.605 15.2147C125.614 15.4564 125.527 15.6921 125.363 15.8699C125.199 16.0477 124.97 16.153 124.729 16.1629H122.961C123.157 16.2211 123.33 16.3423 123.451 16.5079C123.572 16.6736 123.635 16.8744 123.631 17.0795C123.64 17.3213 123.553 17.557 123.389 17.7348C123.225 17.9125 122.997 18.0179 122.755 18.0278H116.613C116.499 18.0272 116.386 18.0034 116.282 17.9577C116.177 17.9121 116.083 17.8455 116.006 17.7623C118.949 16.498 121.594 14.829 123.688 12.705L123.705 12.6876H123.898C124.015 12.6884 124.13 12.7134 124.236 12.761C124.343 12.8086 124.438 12.8778 124.517 12.9641C124.68 13.1459 124.771 13.3818 124.771 13.6263C124.771 13.8709 124.68 14.1068 124.517 14.2885H124.724C124.963 14.2972 125.189 14.399 125.353 14.5721C125.518 14.7452 125.608 14.9758 125.605 15.2147Z" fill="#6C63FF"/>
<path opacity="0.1" d="M58.1697 23.2495H57.9657C58.1276 23.0689 58.2167 22.8346 58.2155 22.592C58.225 22.3502 58.138 22.1146 57.9737 21.9368C57.8095 21.759 57.5814 21.6536 57.3395 21.6438H51.1974C50.9554 21.6536 50.7273 21.759 50.5631 21.9368C50.3988 22.1146 50.3119 22.3502 50.3213 22.592C50.3119 22.8338 50.3988 23.0695 50.5631 23.2472C50.7273 23.425 50.9554 23.5304 51.1974 23.5403H51.4029C51.2404 23.7207 51.1508 23.955 51.1515 24.1977C51.1475 24.4028 51.2109 24.6035 51.332 24.7691C51.4531 24.9347 51.6253 25.056 51.822 25.1144H50.054C49.8215 25.1396 49.6064 25.2498 49.4502 25.4238C49.2939 25.5978 49.2075 25.8233 49.2075 26.0571C49.2075 26.2909 49.2939 26.5164 49.4502 26.6904C49.6064 26.8644 49.8215 26.9746 50.054 26.9998H56.1961C56.438 26.9899 56.6662 26.8846 56.8304 26.7068C56.9947 26.529 57.0816 26.2933 57.0722 26.0516C57.0782 25.8464 57.0164 25.645 56.8963 25.4784C56.7763 25.3119 56.6046 25.1895 56.408 25.1302H58.176C58.4101 25.1067 58.6271 24.9972 58.7849 24.8228C58.9427 24.6485 59.0301 24.4218 59.0301 24.1867C59.0301 23.9516 58.9427 23.7249 58.7849 23.5505C58.6271 23.3762 58.4101 23.2666 58.176 23.2432L58.1697 23.2495Z" fill="#6C63FF"/>
<path opacity="0.1" d="M134.149 61.6773H133.943C134.106 61.497 134.195 61.2625 134.193 61.0198C134.203 60.778 134.116 60.5424 133.951 60.3646C133.787 60.1868 133.559 60.0814 133.317 60.0716H127.175C126.933 60.0818 126.705 60.1873 126.541 60.365C126.377 60.5427 126.29 60.7781 126.299 61.0198C126.29 61.2615 126.377 61.4969 126.541 61.6746C126.705 61.8523 126.933 61.9578 127.175 61.968H127.381C127.219 62.1486 127.129 62.3829 127.131 62.6255C127.126 62.8305 127.19 63.0312 127.311 63.1966C127.432 63.362 127.604 63.4829 127.801 63.5406H126.033C125.799 63.564 125.582 63.6736 125.424 63.8479C125.267 64.0222 125.179 64.249 125.179 64.4841C125.179 64.7191 125.267 64.9459 125.424 65.1202C125.582 65.2945 125.799 65.4041 126.033 65.4276H132.175C132.417 65.4173 132.645 65.3118 132.809 65.1341C132.973 64.9564 133.06 64.721 133.051 64.4793C133.056 64.2744 132.992 64.0738 132.871 63.9084C132.75 63.7431 132.578 63.6221 132.381 63.5643H134.149C134.383 63.5408 134.6 63.4312 134.758 63.2569C134.916 63.0826 135.003 62.8558 135.003 62.6208C135.003 62.3857 134.916 62.1589 134.758 61.9846C134.6 61.8103 134.383 61.7007 134.149 61.6773Z" fill="#6C63FF"/>
<path opacity="0.1" d="M25.6751 65.0998C32.582 64.1051 37.1116 55.8815 35.7923 46.7317C34.473 37.582 27.8044 30.9711 20.8974 31.9657C13.9905 32.9604 9.46086 41.1841 10.7802 50.3338C12.0995 59.4836 18.7681 66.0945 25.6751 65.0998Z" fill="black"/>
<path d="M26.002 64.9647C32.9089 63.97 37.4385 55.7463 36.1192 46.5966C34.7999 37.4469 28.1313 30.8359 21.2243 31.8306C14.3174 32.8253 9.78777 41.049 11.1071 50.1987C12.4264 59.3484 19.095 65.9594 26.002 64.9647Z" fill="#3A3768"/>
<path d="M35.2569 50.6017C35.1666 52.1513 34.8764 53.6828 34.3935 55.158C33.8462 56.8771 32.9601 58.4693 31.7874 59.8408C30.3641 61.4671 28.555 62.5433 26.5024 62.8436C26.1634 62.8918 25.8216 62.9182 25.4792 62.9226C19.9286 62.9985 14.7448 57.2331 13.6268 49.478C12.4455 41.2504 16.2803 33.8778 22.2042 33.0322C23.9674 32.7778 25.7149 33.1286 27.3326 33.9663C29.662 35.1674 31.7225 37.3768 33.1648 40.231C34.1322 42.1686 34.779 44.2502 35.0798 46.3946C35.2836 47.7872 35.3429 49.197 35.2569 50.6017Z" fill="#6C63FF"/>
<path d="M26.8645 48.5835L26.0991 55.5516C26.0991 55.5516 28.5471 55.3224 29.2619 54.0992L27.0053 48.4666L26.8645 48.5835Z" fill="#6C63FF"/>
<path opacity="0.2" d="M26.8645 48.5835L26.0991 55.5516C26.0991 55.5516 28.5471 55.3224 29.2619 54.0992L27.0053 48.4666L26.8645 48.5835Z" fill="black"/>
<path opacity="0.2" d="M16.0938 48.3512L19.9445 48.092C19.9445 48.092 20.3446 51.0158 21.5606 52.661L18.8264 55.6322C18.8264 55.6322 15.991 51.1169 16.0938 48.3512Z" fill="black"/>
<path opacity="0.3" d="M25.8451 47.9887L16.762 57.7232L16.8776 57.831L25.9608 48.0965L25.8451 47.9887Z" fill="white"/>
<path opacity="0.3" d="M13.5192 48.623L13.5066 48.465L26.1387 47.5452L26.1513 47.7016L13.5192 48.623Z" fill="white"/>
<path opacity="0.2" d="M33.1617 40.2247L32.069 41.5491C29.3664 36.3796 27.1113 36.0888 27.1113 36.0888L27.3296 33.9584C29.6621 35.1611 31.7226 37.3705 33.1617 40.2247Z" fill="black"/>
<path opacity="0.2" d="M21.208 41.8668L26.1957 47.0821L25.8462 47.2291L20.0457 44.9501C20.0457 44.9501 20.5106 43.0963 21.208 41.8668Z" fill="black"/>
<path opacity="0.3" d="M13.8698 42.3562L13.812 42.5033L25.8459 47.2285L25.9037 47.0814L13.8698 42.3562Z" fill="white"/>
<path opacity="0.2" d="M27.2773 47.5152L31.3447 46.9399C31.3447 46.9399 31.6309 48.6214 31.4791 49.113C31.4742 49.1281 31.4684 49.1428 31.4617 49.1572L27.2773 47.5152Z" fill="black"/>
<path opacity="0.2" d="M18.0024 38.6174C18.0024 38.6174 19.7024 36.163 21.8199 35.5119L23.6923 39.9861C23.6923 39.9861 21.8673 40.6609 21.2285 42.0074L18.0024 38.6174Z" fill="black"/>
<path opacity="0.3" d="M26.5878 46.6712L26.4518 46.6538C26.4217 46.6538 26.3885 46.6444 26.3664 46.5495L20.792 33.3689L20.9375 33.3072L26.3316 46.0643C26.3316 45.3547 26.417 43.7743 26.7127 40.2516C26.9736 37.1413 27.2772 33.9963 27.2804 33.9647L27.4385 33.9805C26.9863 38.6601 26.3822 45.6756 26.5024 46.4658L26.5878 46.6712Z" fill="white"/>
<path opacity="0.3" d="M16.316 36.7961L16.2026 36.9063L25.9528 46.9335L26.0662 46.8233L16.316 36.7961Z" fill="white"/>
<path opacity="0.2" d="M30.2944 43.4108L31.9976 41.4827C31.9976 41.4827 33.6153 45.4701 33.4335 46.6554L31.4109 46.9399C31.4109 46.9399 30.6835 43.5183 30.2944 43.4108Z" fill="black"/>
<path opacity="0.3" d="M33.1032 40.1762L27.1206 46.9081L27.2388 47.013L33.2214 40.2812L33.1032 40.1762Z" fill="white"/>
<path opacity="0.3" d="M31.4855 47.011L31.476 46.9272C31.476 46.902 31.476 46.8782 31.4649 46.8545C31.4538 46.8308 31.4649 46.7897 31.4523 46.7566C31.2905 45.6023 30.9366 44.4832 30.4054 43.4456C30.388 43.4124 30.3706 43.3792 30.3516 43.346C30.3444 43.3296 30.336 43.3137 30.3263 43.2986C29.4755 41.7182 28.2547 40.5376 26.8931 39.9797C26.8425 39.9576 26.7919 39.9386 26.735 39.9197C26.0301 39.6503 25.2684 39.5639 24.5211 39.6684C24.243 39.708 23.9697 39.7752 23.7051 39.8691C23.6845 39.8743 23.6644 39.8812 23.645 39.8897L23.5548 39.9228C22.6026 40.315 21.7889 40.9819 21.2175 41.8383L21.2002 41.8636L21.1543 41.9316C21.1444 41.9441 21.1354 41.9573 21.1274 41.9711C21.061 42.0706 20.9962 42.1718 20.9345 42.2777C20.8728 42.3836 20.8175 42.48 20.7621 42.5937C20.4052 43.2786 20.1444 44.0093 19.9872 44.7652C19.9746 44.8174 19.9635 44.8711 19.954 44.9233C19.7591 45.9397 19.7175 46.9795 19.8307 48.0082L19.8402 48.1015C19.8402 48.122 19.8402 48.1442 19.8481 48.1647C19.8591 48.2516 19.8702 48.3386 19.8829 48.4255C20.09 49.9403 20.6359 51.3891 21.4801 52.6641C21.4895 52.68 21.5006 52.6942 21.5117 52.71C21.5228 52.7258 21.5512 52.7685 21.5734 52.7969C21.6271 52.8759 21.6825 52.9549 21.741 53.0276C22.848 54.499 24.3297 55.4362 25.8826 55.5468C25.9506 55.5468 26.0202 55.5547 26.0898 55.5563H26.2479C26.4342 55.5546 26.6202 55.5404 26.8046 55.5136C27.7538 55.3649 28.6325 54.9227 29.3174 54.2493C29.3585 54.2114 29.3996 54.1719 29.4392 54.1308C30.0847 53.4623 30.5878 52.6698 30.9177 51.8012C30.9399 51.7475 30.9604 51.6938 30.981 51.6432C31.2574 50.8852 31.4349 50.0948 31.5092 49.2915L31.5234 49.1256C31.5807 48.4212 31.568 47.7129 31.4855 47.011ZM30.8671 51.5231C30.8482 51.5784 30.8276 51.6337 30.8071 51.6811C30.4916 52.5333 30.0076 53.3133 29.3838 53.9743C29.3443 54.0154 29.3047 54.0565 29.2636 54.0944C28.5948 54.7647 27.7295 55.2043 26.7935 55.3493C26.6212 55.3747 26.4474 55.3885 26.2732 55.3904H26.1151C24.491 55.3572 22.9349 54.3789 21.7916 52.8111L21.6935 52.6736C21.6619 52.6294 21.6319 52.5851 21.6034 52.5393C20.7833 51.2911 20.2532 49.8751 20.0521 48.3954C20.0394 48.3117 20.0283 48.2279 20.0189 48.1457C20.0189 48.092 20.0062 48.0399 20.0015 47.9877C19.8905 46.9829 19.9294 45.9672 20.1169 44.9739C20.1264 44.9201 20.1359 44.868 20.1485 44.8158C20.3024 44.0645 20.5605 43.3384 20.9155 42.6585L21.0199 42.4673C21.0942 42.3361 21.178 42.2081 21.2523 42.0864C21.2761 42.0501 21.2998 42.0137 21.3251 41.979C21.3303 41.9697 21.3361 41.9607 21.3425 41.9521C21.8986 41.109 22.6952 40.4522 23.6292 40.0667L23.7778 40.0114C24.3134 39.8264 24.8809 39.7516 25.4462 39.7917C25.8854 39.8248 26.3174 39.9217 26.7287 40.0793L26.8868 40.1409C28.212 40.6973 29.3965 41.8668 30.2219 43.4203C30.2488 43.4693 30.2741 43.5199 30.2994 43.5704C30.8044 44.5795 31.1409 45.6643 31.2957 46.7818L31.3099 46.8782C31.3099 46.8972 31.3099 46.9178 31.3099 46.9367C31.3099 46.9557 31.3178 47.0015 31.321 47.0347C31.4032 47.7074 31.4196 48.3865 31.37 49.0624C31.37 49.0798 31.37 49.0972 31.37 49.113L31.3605 49.2283C31.2953 50.0112 31.1295 50.7825 30.8671 51.5231Z" fill="white"/>
<path opacity="0.2" d="M35.257 50.6017C35.1667 52.1513 34.8765 53.6827 34.3936 55.158L32.7695 53.516C33.2123 52.849 33.4843 49.9759 33.4843 49.9759L33.5776 50.0407C33.6599 50.2161 34.5581 50.4452 35.257 50.6017Z" fill="black"/>
<path opacity="0.3" d="M27.4187 48.0884L27.3071 48.2004L34.3434 55.1956L34.4549 55.0836L27.4187 48.0884Z" fill="white"/>
<path opacity="0.3" d="M35.2189 50.7866L27.1064 47.5088L35.0671 46.3125L35.0908 46.4689L27.7026 47.5784L35.2775 50.6396L35.2189 50.7866Z" fill="white"/>
<path opacity="0.2" d="M31.7874 59.8471C30.3641 61.4734 28.555 62.5496 26.5024 62.8499C26.1634 62.8982 25.8216 62.9246 25.4792 62.9289L25.8113 59.6101C25.8113 59.6101 28.8523 59.6559 30.614 57.2031L31.7874 59.8471Z" fill="black"/>
<path opacity="0.3" d="M27.1376 48.6135L26.9917 48.6745L31.6933 59.9017L31.8392 59.8407L27.1376 48.6135Z" fill="white"/>
<path opacity="0.3" d="M26.6892 48.7305L25.4573 62.9167L25.6148 62.9303L26.8467 48.7441L26.6892 48.7305Z" fill="white"/>
<path opacity="0.3" d="M33.5254 46.7044C33.5254 46.6522 33.5144 46.6001 33.5065 46.5464C33.4922 46.4168 33.4748 46.2872 33.4559 46.1576C33.2304 44.5586 32.775 43.0006 32.1038 41.5317V41.5175L32.0374 41.3768C30.8782 38.9351 29.183 37.0291 27.2553 35.9829C27.2173 35.9607 27.1778 35.9402 27.1382 35.9197L27.105 35.9023C25.8479 35.2252 24.4089 34.9625 22.9934 35.1516C22.6002 35.2083 22.2131 35.302 21.8374 35.4313L21.6888 35.485C20.4133 35.9841 19.2991 36.8231 18.4675 37.911C18.3094 38.1101 18.1581 38.3177 18.0137 38.5337C17.9836 38.5779 17.9536 38.6222 17.9251 38.668C17.0426 40.0662 16.4415 41.623 16.1555 43.2512C16.1445 43.3034 16.135 43.3555 16.1271 43.4092C15.8498 45.0185 15.8119 46.6598 16.0148 48.2801C16.0148 48.3322 16.0274 48.3844 16.0353 48.4381C16.0433 48.4919 16.0543 48.5883 16.0654 48.6641C16.0828 48.7858 16.1018 48.9091 16.1223 49.0292C16.1223 49.0292 16.1223 49.0292 16.1223 49.0403C16.1998 49.5144 16.2963 49.9743 16.4101 50.4263C16.4094 50.431 16.4094 50.4358 16.4101 50.4405C16.8591 52.2924 17.6496 54.0445 18.7411 55.6069C18.7711 55.6511 18.8012 55.6938 18.8344 55.7381C19.1451 56.1656 19.4832 56.5726 19.8465 56.9565C20.0584 57.181 20.2766 57.3912 20.498 57.5887C21.9323 58.8736 23.5343 59.6037 25.1583 59.7191C25.3481 59.7318 25.5395 59.7365 25.7292 59.7318H25.7956C25.8267 59.7334 25.8579 59.7334 25.8889 59.7318C26.1006 59.7238 26.3118 59.7048 26.5215 59.6749C28.0776 59.4504 29.4866 58.6666 30.6331 57.407C30.6473 57.3927 30.66 57.3769 30.6726 57.3627L30.7501 57.2774C31.3029 56.642 31.7741 55.9401 32.1528 55.1881C32.4014 54.701 32.617 54.1979 32.798 53.6819C32.8089 53.6545 32.8184 53.6266 32.8265 53.5982C32.8374 53.5707 32.8469 53.5428 32.8549 53.5144C33.2238 52.4165 33.4596 51.2784 33.5571 50.1244C33.5571 50.0991 33.5571 50.0754 33.565 50.0501C33.5729 50.0248 33.565 49.9901 33.5729 49.9601C33.6056 49.5302 33.6224 49.0956 33.6235 48.6562C33.6276 48.0043 33.5949 47.3526 33.5254 46.7044ZM33.4163 50.058C33.3249 51.1903 33.0987 52.3076 32.7427 53.3864C32.7247 53.4412 32.7058 53.4939 32.6857 53.5444C32.5021 54.0786 32.2812 54.5993 32.0247 55.1027C31.6632 55.8199 31.2161 56.4907 30.6932 57.1004C30.6568 57.1446 30.6173 57.1889 30.5778 57.2315C29.4392 58.4959 28.0475 59.2861 26.5041 59.5058C26.3049 59.5342 26.1056 59.5532 25.9063 59.5627H25.7482C23.947 59.6006 22.1474 58.8562 20.5597 57.4149C20.3588 57.2331 20.1612 57.0387 19.9667 56.8349C19.6013 56.4482 19.2611 56.0386 18.9483 55.6085L18.9024 55.5421L18.855 55.4757C17.5124 53.5792 16.5936 51.2086 16.2219 48.6278C16.2109 48.5566 16.2014 48.4855 16.1919 48.4144C16.1919 48.3875 16.1919 48.3607 16.1808 48.3322C16.1698 48.3038 16.1808 48.2832 16.1729 48.2579C15.9718 46.6611 16.0064 45.0434 16.2757 43.4566L16.3042 43.2986C16.584 41.6912 17.1749 40.1537 18.0437 38.7723C18.0595 38.746 18.0769 38.7191 18.0959 38.6917C18.107 38.6727 18.1196 38.6538 18.1323 38.6364C18.2714 38.4262 18.4185 38.2239 18.5703 38.0311C19.3896 36.9482 20.4931 36.1134 21.7584 35.6194L21.8643 35.5814L21.9086 35.5656C22.2716 35.4415 22.6453 35.3515 23.0251 35.297C23.4618 35.2347 23.9039 35.2188 24.3439 35.2496C25.3066 35.3256 26.2427 35.6017 27.0924 36.0603L27.124 36.0761L27.2426 36.1409C28.3335 36.7612 29.2989 37.5797 30.0891 38.5542C30.8255 39.4523 31.445 40.44 31.933 41.4938C31.9409 41.508 31.9472 41.5238 31.9536 41.538L32.0057 41.6487C32.6535 43.086 33.0944 44.6078 33.3151 46.1686C33.3341 46.2982 33.3515 46.4262 33.3673 46.5558C33.3673 46.5875 33.3673 46.6175 33.3784 46.6491C33.3895 46.6807 33.3784 46.6918 33.3784 46.7139C33.4987 47.7632 33.5193 48.8215 33.4401 49.8747C33.4306 49.9411 33.4227 50.0022 33.4163 50.058Z" fill="white"/>
<path d="M26.7762 48.7381C27.211 48.6755 27.4936 48.1401 27.4074 47.5423C27.3212 46.9445 26.8989 46.5106 26.4641 46.5732C26.0292 46.6358 25.7466 47.1712 25.8328 47.7691C25.919 48.3669 26.3414 48.8008 26.7762 48.7381Z" fill="#6C63FF"/>
<path opacity="0.2" d="M26.7762 48.7381C27.211 48.6755 27.4936 48.1401 27.4074 47.5423C27.3212 46.9445 26.8989 46.5106 26.4641 46.5732C26.0292 46.6358 25.7466 47.1712 25.8328 47.7691C25.919 48.3669 26.3414 48.8008 26.7762 48.7381Z" fill="black"/>
<path opacity="0.1" d="M106.024 9.38766C107.206 9.38766 108.165 8.4296 108.165 7.24778C108.165 6.06595 107.206 5.10789 106.024 5.10789C104.841 5.10789 103.883 6.06595 103.883 7.24778C103.883 8.4296 104.841 9.38766 106.024 9.38766Z" fill="#6C63FF"/>
<path opacity="0.1" d="M7.49422 32.2942C8.67677 32.2942 9.63541 31.3361 9.63541 30.1543C9.63541 28.9725 8.67677 28.0144 7.49422 28.0144C6.31167 28.0144 5.35303 28.9725 5.35303 30.1543C5.35303 31.3361 6.31167 32.2942 7.49422 32.2942Z" fill="#6C63FF"/>
<path opacity="0.1" d="M158.01 47.493C159.193 47.493 160.152 46.535 160.152 45.3531C160.152 44.1713 159.193 43.2133 158.01 43.2133C156.828 43.2133 155.869 44.1713 155.869 45.3531C155.869 46.535 156.828 47.493 158.01 47.493Z" fill="#6C63FF"/>
<path opacity="0.1" d="M149.347 60.4066C150.53 60.4066 151.489 59.4485 151.489 58.2667C151.489 57.0849 150.53 56.1268 149.347 56.1268C148.165 56.1268 147.206 57.0849 147.206 58.2667C147.206 59.4485 148.165 60.4066 149.347 60.4066Z" fill="#6C63FF"/>
<path opacity="0.1" d="M112.326 5.00043C112.871 5.00043 113.312 4.5589 113.312 4.01425C113.312 3.4696 112.871 3.02807 112.326 3.02807C111.781 3.02807 111.339 3.4696 111.339 4.01425C111.339 4.5589 111.781 5.00043 112.326 5.00043Z" fill="#6C63FF"/>
<path opacity="0.1" d="M0.986783 26.1717C1.53177 26.1717 1.97357 25.7301 1.97357 25.1855C1.97357 24.6408 1.53177 24.1993 0.986783 24.1993C0.441798 24.1993 0 24.6408 0 25.1855C0 25.7301 0.441798 26.1717 0.986783 26.1717Z" fill="#6C63FF"/>
<path opacity="0.1" d="M156.856 71.43C157.401 71.43 157.843 70.9885 157.843 70.4438C157.843 69.8992 157.401 69.4576 156.856 69.4576C156.311 69.4576 155.869 69.8992 155.869 70.4438C155.869 70.9885 156.311 71.43 156.856 71.43Z" fill="#6C63FF"/>
<path opacity="0.1" d="M117.699 1.39393C118.084 1.39393 118.396 1.08188 118.396 0.696963C118.396 0.312041 118.084 0 117.699 0C117.314 0 117.002 0.312041 117.002 0.696963C117.002 1.08188 117.314 1.39393 117.699 1.39393Z" fill="#6C63FF"/>
<path opacity="0.1" d="M5.35291 40.6862C5.73807 40.6862 6.0503 40.3741 6.0503 39.9892C6.0503 39.6043 5.73807 39.2923 5.35291 39.2923C4.96775 39.2923 4.65552 39.6043 4.65552 39.9892C4.65552 40.3741 4.96775 40.6862 5.35291 40.6862Z" fill="#6C63FF"/>
<path d="M152.906 101.273C152.906 101.273 151.723 96.1888 150.935 90.0078C150.148 83.8268 144.042 73.5556 144.042 73.5556C144.015 73.5035 143.987 73.4497 143.958 73.3976C143.011 71.6019 141.873 69.9141 140.561 68.364C137.873 65.1921 135.435 63.7666 135.313 63.697C135.12 63.4031 134.913 63.0791 134.694 62.733C133.875 61.4386 132.901 59.8108 131.971 58.0534C131.971 58.0123 131.957 57.9728 131.949 57.9317C131.535 55.4283 131.519 52.7953 132.765 50.6333C133.38 49.5665 134.267 48.6878 134.944 47.6606C136.051 45.9853 136.554 43.9861 136.961 42.0137C137.247 40.634 137.493 39.2275 137.421 37.8225C137.421 37.8003 137.421 37.7798 137.421 37.7593C137.421 37.6613 137.408 37.5633 137.399 37.4653C137.166 34.9177 135.83 32.6292 134.527 30.4372C133.84 29.2835 133.119 28.0934 132.014 27.3475C129.715 25.7971 126.897 26.7675 124.439 25.8793C121.828 24.931 119.442 24.0476 116.6 23.7568C115.593 23.6541 114.486 23.6288 113.67 24.2309C112.813 24.8631 112.528 26.0168 111.959 26.9287C110.872 28.6671 108.823 29.4573 107.093 30.551C105.779 31.3744 104.518 32.6909 104.246 34.1401C104.246 34.1401 104.246 34.1322 104.246 34.1275C104.218 34.284 104.201 34.4425 104.196 34.6016C104.196 34.6111 104.196 34.6221 104.196 34.6316V34.679C104.191 34.9715 104.23 35.263 104.313 35.5435C104.411 35.5941 104.511 35.6383 104.612 35.6826C104.549 35.7853 104.485 35.888 104.425 35.9987L104.292 36.2342C103.236 38.139 102.596 40.2462 102.415 42.4166C102.234 44.5869 102.517 46.7709 103.243 48.8241C103.97 50.8774 105.124 52.753 106.63 54.3271C108.136 55.9012 109.96 57.1379 111.979 57.9554C112.073 58.1829 112.169 58.4184 112.264 58.6618C113.896 62.7666 114.754 67.1379 114.794 71.5548C114.794 71.5959 114.794 71.637 114.794 71.6781C114.794 71.8362 114.794 71.9942 114.794 72.1601C113.371 73.9618 111.896 76.1965 111.948 77.7422C112.033 80.3309 108.579 86.3538 107.648 87.9279L107.461 88.244C106.532 87.5707 105.426 86.9655 104.89 87.3906L104.441 87.1029C102.17 85.6458 98.1155 82.9465 96.5863 81.3329C94.4198 79.0397 90.1848 76.9456 90.1848 76.9456C90.1848 76.9456 86.837 72.9567 87.0347 71.4616C87.1327 70.7172 85.7886 64.7749 84.1234 60.4145C85.3395 60.5425 86.5888 60.6958 86.9699 60.7432L87.0632 60.8254L87.1944 60.8459C91.7978 64.8886 92.8052 63.087 92.8052 63.087C93.1815 62.8325 93.3096 62.066 93.346 61.7721C93.346 61.7436 93.346 61.7215 93.346 61.7025H93.3697C93.3697 61.6788 93.3697 61.6599 93.3697 61.6441C93.3794 61.6268 93.3879 61.6088 93.395 61.5903L93.4061 61.5698L93.414 61.554C93.414 61.5413 93.4251 61.5271 93.4314 61.5129C93.458 61.4628 93.4787 61.4097 93.4931 61.3548H93.4804C93.541 61.0242 93.5733 60.689 93.5769 60.3529C93.578 60.0931 93.4901 59.8407 93.3279 59.6377C93.1656 59.4347 92.9388 59.2934 92.685 59.2371C92.685 59.2292 92.685 59.2213 92.6771 59.2118C92.0793 57.4354 87.7321 60.07 87.2513 60.3687L87.1343 60.3813C86.263 60.2075 84.9204 59.8898 83.7834 59.6148C82.2415 55.8661 80.4925 53.7673 79.3713 58.3805L78.3403 58.2035C78.2121 58.1804 78.0805 58.1839 77.9537 58.2138C77.8269 58.2437 77.7076 58.2994 77.6033 58.3773C77.4582 58.4842 77.3379 58.6211 77.2507 58.7788L72.7769 58.0707L71.7222 58.1071L72.6156 58.5385L72.6821 58.5701L77.1558 59.2987C77.183 59.5099 77.2791 59.7062 77.4292 59.8573C77.5792 60.0084 77.7749 60.1059 77.986 60.1348L78.9902 60.2802C77.1969 70.7409 81.2041 74.1546 81.2041 74.1546C81.2041 74.1546 86.0289 78.8832 86.0289 80.0021C86.0289 80.9504 95.4477 92.214 98.31 95.6135C98.8223 96.2235 99.126 96.5807 99.126 96.5807C100.25 97.8719 105.657 102.283 108.173 104.315C108.42 106.37 108.647 108.424 108.779 109.551L109.253 109.539L111.503 109.477L112.715 109.441C113.759 109.412 114.801 109.382 115.843 109.35L116.241 109.339L117.151 109.311C118.324 109.277 119.497 109.242 120.669 109.207C122.399 109.154 124.129 109.104 125.861 109.049C128.233 108.965 130.595 108.868 132.96 108.732C133.55 108.699 134.141 108.665 134.732 108.625L135.121 108.598L135.754 108.555C139.622 108.282 143.474 107.889 147.298 107.282C148.06 107.16 148.827 107.027 149.591 106.877C150.04 106.792 150.489 106.699 150.935 106.597C151.84 106.397 152.736 106.167 153.613 105.904C153.239 103.233 152.906 101.273 152.906 101.273Z" fill="url(#paint0_linear)"/>
<path d="M87.6813 61.4117L87.093 61.3912C87.093 61.3912 83.1032 60.8965 81.8254 60.8665C81.6967 60.8481 81.5655 60.8583 81.4412 60.8965L81.7242 59.7555L82.0706 59.8408C83.2867 60.1411 87.3176 61.1273 87.966 61.1494C88.733 61.1747 87.6813 61.4117 87.6813 61.4117Z" fill="#6C63FF"/>
<path d="M87.218 61.0325C87.218 61.0325 92.0571 58.0075 92.6896 59.8645C93.3222 61.7215 91.6728 61.9949 91.6728 61.9949L87.218 61.0325Z" fill="#6C63FF"/>
<path opacity="0.2" d="M87.218 61.0325C87.218 61.0325 92.0571 58.0075 92.6896 59.8645C93.3222 61.7215 91.6728 61.9949 91.6728 61.9949L87.218 61.0325Z" fill="black"/>
<path d="M92.8036 63.6923C92.8036 63.6923 91.7836 65.4971 87.0869 61.3912L87.1517 61.3074L87.3463 61.0561C87.3463 61.0561 93.4251 58.2636 93.5833 60.9914C93.581 61.3462 93.5429 61.6999 93.4694 62.0471C93.4524 62.1226 93.4195 62.1938 93.3729 62.2557L93.3508 62.2762C93.3508 62.2762 93.3508 62.3189 93.3381 62.3916C93.3081 62.6824 93.18 63.4378 92.8036 63.6923Z" fill="#6C63FF"/>
<path opacity="0.1" d="M92.8036 63.6923C92.8036 63.6923 91.7836 65.4971 87.0869 61.3912L87.1517 61.3074L87.2609 61.1952L93.3729 62.2557L93.3508 62.2762C93.3508 62.2762 93.3508 62.3189 93.3381 62.3916C93.3081 62.6824 93.18 63.4378 92.8036 63.6923Z" fill="black"/>
<path opacity="0.1" d="M93.376 62.3268L87.1232 61.3217L86.8069 61.053L87.3793 60.9866L93.5009 61.9775C93.4848 62.0636 93.4442 62.1432 93.3839 62.2067C93.3839 62.2067 93.3854 62.2541 93.376 62.3268Z" fill="black"/>
<path opacity="0.1" d="M93.3142 62.4564L87.0614 61.456L86.7451 61.1889L87.316 61.1209L93.4439 62.1119C93.4281 62.1984 93.3868 62.2782 93.3253 62.341C93.3253 62.341 93.3237 62.3853 93.3142 62.4564Z" fill="black"/>
<path d="M93.3443 62.3916L87.0868 61.3912L86.7705 61.1241L87.3414 61.0562L93.4645 62.0471C93.4469 62.1329 93.4059 62.2123 93.3459 62.2762C93.3459 62.2762 93.3538 62.3189 93.3443 62.3916Z" fill="#4C4C56"/>
<path opacity="0.1" d="M81.8254 60.8665C81.6967 60.8481 81.5655 60.8583 81.4412 60.8965L81.7242 59.7555L82.0706 59.8408C82.0316 60.1915 81.9493 60.5361 81.8254 60.8665Z" fill="black"/>
<path d="M81.8682 59.4631L78.3559 58.8689C78.2278 58.846 78.0964 58.8495 77.9697 58.8791C77.843 58.9087 77.7237 58.9638 77.619 59.0411C77.4746 59.1344 77.3569 59.2636 77.2774 59.4159C77.1979 59.5683 77.1592 59.7386 77.1652 59.9104C77.1854 60.1281 77.2793 60.3324 77.4314 60.4896C77.5835 60.6467 77.7846 60.7474 78.0017 60.7748L81.5234 61.2743C81.5234 61.2743 82.1592 59.7239 81.8682 59.4631Z" fill="#D1D9EC"/>
<path opacity="0.1" d="M71.7996 58.8056L72.8559 58.7677L77.4087 59.4805C77.4421 59.4856 77.4741 59.4974 77.5029 59.5152C77.5316 59.533 77.5564 59.5563 77.5759 59.5839C77.5954 59.6115 77.6091 59.6427 77.6163 59.6757C77.6234 59.7087 77.6238 59.7428 77.6175 59.776C77.6048 59.8398 77.5679 59.8961 77.5145 59.9332C77.4611 59.9704 77.3955 59.9854 77.3312 59.9751L72.6962 59.2308L71.7996 58.8056Z" fill="black"/>
<path d="M71.7346 58.774L72.7894 58.7377L77.3438 59.4489C77.3767 59.4542 77.4083 59.4661 77.4366 59.4837C77.4649 59.5014 77.4894 59.5245 77.5087 59.5517C77.5279 59.5789 77.5416 59.6097 77.5489 59.6422C77.5561 59.6748 77.5568 59.7084 77.551 59.7412C77.5386 59.805 77.5021 59.8614 77.4491 59.8988C77.396 59.9363 77.3305 59.9517 77.2663 59.942L72.6297 59.196L71.7346 58.774Z" fill="#DFE6F5"/>
<path d="M106.03 88.391L99.137 96.7561C99.137 96.7561 98.8334 96.4037 98.321 95.8C95.4587 92.4448 86.04 81.3329 86.04 80.3909C86.04 79.2846 81.2152 74.6129 81.2152 74.6129C81.2152 74.6129 76.8822 70.978 79.2448 59.6496C81.6074 48.3212 87.2213 70.4786 87.0252 71.9547C86.8291 73.4308 90.1753 77.3676 90.1753 77.3676C90.1753 77.3676 94.4102 79.4348 96.5767 81.6979C98.1012 83.291 102.161 85.9556 104.431 87.3874C105.39 88.0006 106.03 88.391 106.03 88.391Z" fill="#FDC2CC"/>
<path opacity="0.1" d="M106.03 88.391L99.137 96.7561C99.137 96.7561 98.8334 96.4037 98.321 95.8C98.4317 93.4578 103.381 88.2898 104.258 87.5044C104.309 87.4582 104.368 87.4209 104.432 87.3937C105.39 88.0006 106.03 88.391 106.03 88.391Z" fill="black"/>
<path d="M108.984 89.7691C108.984 89.7691 105.833 86.8169 104.849 87.7035C103.865 88.5901 97.66 95.084 99.137 96.7577C100.614 98.4313 109.476 105.415 109.476 105.415L108.984 89.7691Z" fill="#5F5D7E"/>
<path opacity="0.1" d="M108.984 89.7691C108.984 89.7691 105.833 86.8169 104.849 87.7035C103.865 88.5901 97.66 95.084 99.137 96.7577C100.614 98.4313 109.476 105.415 109.476 105.415L108.984 89.7691Z" fill="black"/>
<path d="M136.655 66.2478C136.655 66.2478 133.58 69.2142 129.727 72.432L129.582 72.5521L129.357 72.7386C123.212 77.818 115.293 83.2989 114.477 78.6082C114.385 77.996 114.381 77.374 114.465 76.7607C114.475 76.6706 114.488 76.5774 114.5 76.4826C114.513 76.3877 114.526 76.2992 114.535 76.2092C114.688 75.0271 114.773 73.8372 114.79 72.6453C114.79 72.4446 114.79 72.2455 114.79 72.0479C114.749 67.6849 113.891 63.368 112.259 59.3208C112.165 59.0806 112.068 58.8467 111.975 58.6239C110.71 55.6085 109.471 53.8479 109.471 53.8479C109.471 53.8479 111.301 52.7416 113.838 51.3192C114.769 50.8008 115.794 50.2429 116.86 49.6835C122.711 46.6175 129.746 43.5515 128.772 47.1548C128.312 48.8601 128.739 51.1232 129.587 53.4923C129.634 53.6235 129.682 53.7515 129.731 53.8811C130.28 55.3127 130.914 56.7106 131.628 58.0676L131.676 58.1592C132.692 60.1063 133.788 61.9254 134.696 63.3398C134.914 63.6812 135.121 64.0005 135.314 64.2881C136.11 65.505 136.655 66.2478 136.655 66.2478Z" fill="#FDC2CC"/>
<path opacity="0.1" d="M129.735 53.8811C129.689 53.949 129.64 54.017 129.591 54.0834C128.114 56.0905 126.405 57.2853 124.373 57.9585C122.972 58.4248 121.412 58.6444 119.665 58.714C119.23 58.7298 118.786 58.7377 118.327 58.7377C117.27 58.7396 116.214 58.6789 115.164 58.5559C114.612 58.469 114.035 58.8404 113.477 59.1122C113.061 59.3129 112.655 59.4599 112.275 59.3208C112.18 59.0806 112.084 58.8467 111.99 58.6239C110.725 55.6085 109.487 53.8479 109.487 53.8479C109.487 53.8479 111.317 52.7416 113.853 51.3192C114.785 50.8008 115.809 50.2429 116.875 49.6835C122.726 46.6175 129.762 43.5515 128.788 47.1548C128.328 48.8601 128.755 51.1232 129.602 53.4923C129.639 53.6235 129.686 53.7515 129.735 53.8811Z" fill="black"/>
<path d="M132.52 44.5693C132.52 44.8 132.52 45.0276 132.504 45.2552C132.353 48.6014 131.09 51.802 128.916 54.3514C126.742 56.9008 123.78 58.6538 120.498 59.3335C118.703 59.7027 116.856 59.7439 115.046 59.4552C114.513 59.372 113.985 59.2591 113.464 59.117C112.961 58.9804 112.464 58.8174 111.978 58.6286C109.965 57.8465 108.143 56.6419 106.636 55.0959C105.128 53.55 103.971 51.6989 103.24 49.6675C102.51 47.6361 102.225 45.4717 102.403 43.3206C102.582 41.1695 103.22 39.0817 104.275 37.1982L104.408 36.9659C106.08 34.1062 108.647 31.8763 111.714 30.6206C114.781 29.3649 118.176 29.1533 121.375 30.0186C124.574 30.8838 127.398 32.7776 129.413 35.4076C131.427 38.0375 132.519 41.2572 132.52 44.5693Z" fill="#FDC2CC"/>
<path opacity="0.1" d="M136.655 66.2478C136.655 66.2478 112.726 89.374 114.499 76.4826C114.7 75.013 114.798 73.5312 114.793 72.0479C115.623 71.0219 116.505 70.0387 117.435 69.102L120.797 66.6729C124.264 64.1444 128.491 62.8753 132.778 63.0759C133.425 63.0924 134.067 63.1809 134.694 63.3398C135.822 65.1052 136.655 66.2478 136.655 66.2478Z" fill="black"/>
<path d="M153.616 105.951C152.739 106.212 151.843 106.438 150.938 106.635C150.492 106.735 150.043 106.827 149.594 106.912C148.83 107.059 148.063 107.19 147.301 107.31C143.484 107.909 139.631 108.298 135.757 108.574L135.124 108.617L134.735 108.642C134.144 108.682 133.553 108.717 132.963 108.75C130.599 108.883 128.231 108.979 125.864 109.066C124.124 109.126 122.402 109.177 120.672 109.224L117.154 109.327L116.244 109.354L115.846 109.365C114.804 109.396 113.762 109.426 112.718 109.455L111.506 109.49L109.256 109.551L108.782 109.564C108.655 108.448 108.423 106.42 108.176 104.396L108.119 103.922C107.847 101.689 107.566 99.544 107.403 98.7317C107.009 96.764 107.403 88.5949 107.403 88.5949L107.445 88.5269L107.632 88.2108C108.564 86.6573 112.017 80.7118 111.932 78.1562C111.881 76.6311 113.355 74.4249 114.778 72.6469C114.965 72.4162 115.15 72.1918 115.332 71.9784C116.466 70.6461 117.437 69.6979 117.437 69.6979L120.797 67.2672C124.265 64.7411 128.492 63.4733 132.779 63.6733C134.044 63.7381 135.053 63.9151 135.309 64.296C135.419 64.3576 137.87 65.7642 140.558 68.9029C141.867 70.431 143.006 72.0971 143.955 73.8717C143.983 73.9223 144.012 73.9745 144.039 74.0298C144.039 74.0298 150.144 84.1665 150.932 90.2685C151.719 96.3705 152.902 101.388 152.902 101.388C152.902 101.388 153.239 103.315 153.616 105.951Z" fill="#5F5D7E"/>
<path opacity="0.1" d="M135.376 101.282C134.89 102.073 135.265 105.772 135.763 108.568L135.131 108.611L134.742 108.636C134.15 108.676 133.559 108.71 132.969 108.744C130.605 108.876 128.238 108.973 125.87 109.06C124.131 109.12 122.409 109.17 120.679 109.218L117.16 109.32C117.16 108.96 117.049 108.649 116.763 108.467C116.563 108.323 116.386 108.15 116.238 107.953C116.192 107.898 116.145 107.838 116.097 107.776C115.001 106.322 113.613 103.351 113.613 103.351C113.613 103.351 111.84 103.745 111.642 89.2855C111.579 84.5727 112.8 81.1242 114.475 78.6161C117.944 73.4229 123.361 72.2597 123.361 72.2597C125.367 71.9108 127.43 72.0789 129.354 72.7481C130.109 73.0127 130.835 73.3509 131.524 73.7579C132.446 74.3127 133.307 74.9649 134.09 75.7034L134.343 75.9452C139.865 81.3186 141.17 89.7091 137.759 96.6202C136.666 98.828 135.681 100.786 135.376 101.282Z" fill="black"/>
<path d="M134.588 100.495C134.054 101.365 134.563 105.779 135.132 108.611L134.743 108.636C134.152 108.676 133.561 108.71 132.971 108.744C130.606 108.876 128.239 108.973 125.872 109.06C124.132 109.12 122.41 109.17 120.68 109.218L117.162 109.32L116.252 109.347C116.391 108.837 116.444 108.311 116.24 107.953C116.202 107.888 116.154 107.828 116.099 107.776C116.063 107.739 116.022 107.707 115.977 107.68C114.894 106.991 112.825 102.561 112.825 102.561C112.825 102.561 111.054 102.956 110.857 88.4953C110.784 83.0808 112.406 79.3289 114.465 76.7655C117.91 72.4715 122.575 71.4695 122.575 71.4695C123.185 71.3683 123.803 71.3112 124.422 71.2988H124.441C126.267 71.2584 128.078 71.6482 129.726 72.4367C131.143 73.1278 132.436 74.0472 133.554 75.1582C133.738 75.3368 133.918 75.5185 134.09 75.7034C139.151 81.0911 140.27 89.1528 136.972 95.8332C135.879 98.041 134.894 99.9992 134.588 100.495Z" fill="#5F5D7E"/>
<path opacity="0.1" d="M122.407 90.779C122.407 90.779 112.69 97.6712 113.518 98.6194C114.347 99.5677 122.407 90.779 122.407 90.779Z" fill="black"/>
<path opacity="0.1" d="M136.043 93.2618C136.043 93.2618 133.007 90.5593 133.227 91.6071C133.447 92.655 136.043 93.2618 136.043 93.2618Z" fill="black"/>
<path opacity="0.1" d="M132.971 108.744C130.606 108.876 128.239 108.973 125.872 109.06C121.819 108.586 117.604 107.889 117.604 107.889C117.97 107.675 130.901 107.418 132.971 108.744Z" fill="black"/>
<path opacity="0.1" d="M150.938 106.635C150.492 106.735 150.043 106.827 149.594 106.912C149.419 104.085 149.349 101.649 149.349 101.649C149.965 103.282 150.496 104.947 150.938 106.635Z" fill="black"/>
<path opacity="0.1" d="M112.726 109.448L111.514 109.483C110.55 106.85 109.721 103.727 109.383 102.401C109.278 101.992 109.225 101.753 109.225 101.753L109.375 102.069C109.873 103.108 111.524 106.572 112.726 109.448Z" fill="black"/>
<path opacity="0.1" d="M131.524 49.9537C131.041 51.2151 130.39 52.4054 129.588 53.4923C129.636 53.6235 129.683 53.7515 129.732 53.8811C130.282 55.3127 130.915 56.7106 131.63 58.0676L131.677 58.1592C131.759 58.7914 131.873 59.4236 132.004 60.0399C129.601 60.1664 127.194 60.2217 124.785 60.2059C123.739 60.2059 122.676 60.1759 121.678 59.8629C121.266 59.7328 120.871 59.5534 120.501 59.3288C120.205 59.1488 119.924 58.9431 119.663 58.714C118.363 57.5395 117.542 55.9266 117.358 54.1845C117.214 52.8269 117.419 51.4204 117.026 50.1134C116.98 49.968 116.927 49.825 116.867 49.6851C116.545 48.9406 116.037 48.2915 115.391 47.8005C114.745 47.3094 113.984 46.9929 113.18 46.8814C112.947 46.8307 112.704 46.8637 112.493 46.9747C112.314 47.1241 112.184 47.3248 112.122 47.5499L110.491 51.7997C109.331 52.0905 108.511 50.5748 108.608 49.3832C108.704 48.1916 109.24 46.9715 108.844 45.8431C108.722 45.4938 108.515 45.1761 108.426 44.819C108.073 43.4108 109.588 42.1607 109.601 40.7099C109.61 39.5167 108.589 38.5526 107.504 38.0564C106.509 37.6012 105.41 37.4052 104.414 36.9611C106.088 34.1042 108.655 31.8772 111.721 30.6237C114.787 29.3702 118.181 29.16 121.378 30.0255C124.575 30.891 127.398 32.784 129.412 35.4125C131.426 38.041 132.518 41.2588 132.52 44.5693C132.52 44.8 132.52 45.0276 132.504 45.2552C132.432 46.8638 132.101 48.4504 131.524 49.9537Z" fill="black"/>
<path d="M116.594 24.8757C115.587 24.7746 114.48 24.7493 113.664 25.3498C112.806 25.982 112.522 27.1136 111.952 28.0128C110.866 29.7323 108.817 30.5178 107.087 31.5877C105.357 32.6577 103.718 34.5684 104.297 36.5186C105.363 37.056 106.573 37.244 107.657 37.7403C108.742 38.2365 109.764 39.2006 109.754 40.3938C109.742 41.8446 108.227 43.0947 108.579 44.5029C108.668 44.86 108.875 45.1777 108.997 45.527C109.391 46.6554 108.858 47.8755 108.761 49.0671C108.665 50.2587 109.484 51.7744 110.645 51.4836L112.286 47.2338C112.348 47.0087 112.478 46.808 112.658 46.6586C112.868 46.5476 113.111 46.5146 113.344 46.5653C114.223 46.6882 115.049 47.0569 115.727 47.6287C116.405 48.2005 116.908 48.9523 117.177 49.7973C117.571 51.1043 117.366 52.5108 117.509 53.8684C117.774 56.3718 119.429 58.793 121.833 59.5468C122.831 59.8629 123.889 59.8835 124.94 59.8898C127.347 59.9077 129.754 59.8524 132.159 59.7238C131.566 56.936 131.324 53.8558 132.762 51.3966C133.377 50.3441 134.264 49.4764 134.941 48.4618C136.048 46.8087 136.551 44.8348 136.957 42.8893C137.274 41.4147 137.531 39.907 137.392 38.4072C137.16 35.8928 135.823 33.6328 134.52 31.4708C133.834 30.3313 133.113 29.1555 132.008 28.419C129.708 26.8892 126.89 27.8485 124.433 26.9698C121.822 26.0389 119.436 25.1634 116.594 24.8757Z" fill="#865A61"/>
<g opacity="0.1">
<path opacity="0.1" d="M109.098 45.9C109.182 45.3968 109.147 44.8809 108.995 44.3938C108.885 44.0778 108.706 43.7854 108.606 43.4661C108.51 43.7948 108.501 44.1427 108.579 44.476C108.668 44.8332 108.875 45.1509 108.995 45.5001C109.041 45.6303 109.075 45.764 109.098 45.9Z" fill="black"/>
<path opacity="0.1" d="M109.68 39.8138C109.726 39.6328 109.75 39.4472 109.753 39.2607C109.762 38.069 108.742 37.1034 107.657 36.6071C106.573 36.1109 105.363 35.9228 104.297 35.3855C104.271 35.2976 104.249 35.2084 104.232 35.1184C104.143 35.5748 104.166 36.0458 104.297 36.4918C105.363 37.0291 106.573 37.2172 107.657 37.7134C108.57 38.1307 109.432 38.8798 109.68 39.8138Z" fill="black"/>
<path opacity="0.1" d="M124.939 58.7566C123.894 58.7566 122.831 58.7266 121.833 58.4137C119.429 57.6598 117.774 55.2386 117.509 52.7353C117.366 51.3777 117.571 49.9727 117.177 48.6641C116.908 47.8183 116.404 47.0659 115.725 46.494C115.045 45.9221 114.218 45.554 113.338 45.4322C113.105 45.3815 112.862 45.4145 112.651 45.5254C112.471 45.6744 112.341 45.8753 112.28 46.1007L110.649 50.3504C109.716 50.5843 109.005 49.6519 108.81 48.6578C108.793 48.7858 108.775 48.9138 108.766 49.0403C108.668 50.2319 109.489 51.7475 110.649 51.4567L112.291 47.207C112.353 46.9816 112.482 46.7806 112.663 46.6317C112.873 46.5208 113.116 46.4878 113.349 46.5385C114.228 46.6614 115.054 47.03 115.732 47.6018C116.41 48.1737 116.913 48.9254 117.182 49.7704C117.576 51.079 117.37 52.484 117.514 53.8416C117.778 56.3449 119.434 58.7661 121.838 59.52C122.836 59.8361 123.894 59.8566 124.944 59.8629C127.353 59.8808 129.759 59.8282 132.164 59.7049C132.088 59.343 132.017 58.9763 131.954 58.6081C129.617 58.7229 127.278 58.7724 124.939 58.7566Z" fill="black"/>
<path opacity="0.1" d="M136.957 41.7561C136.549 43.7016 136.045 45.6755 134.941 47.3287C134.264 48.3433 133.377 49.2109 132.762 50.2635C131.883 51.7665 131.633 53.5018 131.705 55.2608C131.766 53.8874 132.068 52.5567 132.762 51.3698C133.377 50.3172 134.264 49.4496 134.941 48.4349C136.048 46.7818 136.549 44.8079 136.957 42.8624C137.245 41.489 137.495 40.0872 137.416 38.6885C137.341 39.7212 137.188 40.7467 136.957 41.7561Z" fill="black"/>
</g>
<defs>
<linearGradient id="paint0_linear" x1="112.675" y1="109.557" x2="112.675" y2="23.7078" gradientUnits="userSpaceOnUse">
<stop stop-color="#808080" stop-opacity="0.25"/>
<stop offset="0.54" stop-color="#808080" stop-opacity="0.12"/>
<stop offset="1" stop-color="#808080" stop-opacity="0.1"/>
</linearGradient>
</defs>
</svg>
