<?xml version="1.0" encoding="UTF-8"?>
<svg xmlns="http://www.w3.org/2000/svg" xmlns:xlink="http://www.w3.org/1999/xlink" width="375pt" height="374.999991pt" viewBox="0 0 375 374.999991" version="1.2">
<defs>
<clipPath id="clip1">
  <path d="M 2.304688 2.304688 L 372.804688 2.304688 L 372.804688 372.804688 L 2.304688 372.804688 Z M 2.304688 2.304688 "/>
</clipPath>
</defs>
<g id="surface1">
<g clip-path="url(#clip1)" clip-rule="nonzero">
<path style=" stroke:none;fill-rule:nonzero;fill:rgb(87.449646%,90.979004%,95.689392%);fill-opacity:1;" d="M 372.804688 187.554688 C 372.804688 85.257812 289.847656 2.304688 187.554688 2.304688 C 85.257812 2.304688 2.304688 85.257812 2.304688 187.554688 C 2.304688 289.847656 85.257812 372.804688 187.554688 372.804688 C 289.847656 372.804688 372.804688 289.847656 372.804688 187.554688 Z M 372.804688 187.554688 "/>
</g>
<path style=" stroke:none;fill-rule:nonzero;fill:rgb(100%,39.608765%,51.759338%);fill-opacity:1;" d="M 209.207031 187.554688 L 263.339844 124.683594 C 269.238281 117.8125 268.492188 107.511719 261.625 101.535156 C 254.753906 95.636719 244.449219 96.382812 238.550781 103.253906 L 187.554688 162.464844 L 136.628906 103.328125 C 130.730469 96.460938 120.351562 95.710938 113.484375 101.609375 C 106.613281 107.511719 105.867188 117.886719 111.765625 124.757812 L 165.898438 187.554688 L 111.765625 250.421875 C 105.867188 257.292969 106.613281 267.597656 113.484375 273.570312 C 116.542969 276.257812 120.351562 277.527344 124.160156 277.527344 C 128.789062 277.527344 133.34375 275.585938 136.554688 271.851562 L 187.480469 212.714844 L 238.402344 271.851562 C 241.613281 275.585938 246.242188 277.527344 250.796875 277.527344 C 254.605469 277.527344 258.414062 276.257812 261.472656 273.570312 C 268.34375 267.671875 269.089844 257.292969 263.191406 250.421875 Z M 209.207031 187.554688 "/>
</g>
</svg>
