<?xml version="1.0" encoding="UTF-8"?>
<svg xmlns="http://www.w3.org/2000/svg" xmlns:xlink="http://www.w3.org/1999/xlink" width="375pt" height="374.999991pt" viewBox="0 0 375 374.999991" version="1.2">
<defs>
<clipPath id="clip1">
  <path d="M 3.261719 3.261719 L 371.511719 3.261719 L 371.511719 371.511719 L 3.261719 371.511719 Z M 3.261719 3.261719 "/>
</clipPath>
</defs>
<g id="surface1">
<g clip-path="url(#clip1)" clip-rule="nonzero">
<path style=" stroke:none;fill-rule:nonzero;fill:rgb(87.449646%,90.979004%,95.689392%);fill-opacity:1;" d="M 3.261719 187.386719 C 3.261719 85.714844 85.714844 3.261719 187.386719 3.261719 C 289.0625 3.261719 371.511719 85.714844 371.511719 187.386719 C 371.511719 289.0625 289.0625 371.511719 187.386719 371.511719 C 85.714844 371.511719 3.261719 289.0625 3.261719 187.386719 Z M 3.261719 187.386719 "/>
</g>
<path style=" stroke:none;fill-rule:nonzero;fill:rgb(100%,39.608765%,51.759338%);fill-opacity:1;" d="M 287.949219 156.367188 L 86.828125 156.367188 C 83.859375 156.367188 81.484375 158.742188 81.484375 161.710938 L 81.484375 213.066406 C 81.484375 216.035156 83.859375 218.410156 86.828125 218.410156 L 287.875 218.410156 C 290.84375 218.410156 293.21875 216.035156 293.21875 213.066406 L 293.21875 161.710938 C 293.292969 158.742188 290.84375 156.367188 287.949219 156.367188 "/>
</g>
</svg>
