<svg width="52" height="48" viewBox="0 0 52 48" fill="none" xmlns="http://www.w3.org/2000/svg">
<g clip-path="url(#clip0)">
<path d="M24.5153 0.400543L22.9241 1.25893L3.3203 11.8345L1.72911 12.6929C0.957015 13.1105 0.383999 13.8139 0.135778 14.6487C-0.112444 15.4835 -0.0156 16.3816 0.405063 17.146L15.0036 43.5997C15.426 44.3631 16.1374 44.9296 16.9817 45.1751C17.8261 45.4205 18.7344 45.3247 19.5075 44.9088L19.5116 44.9066L42.2896 32.6187L42.2937 32.6165C43.0658 32.1989 43.6388 31.4955 43.887 30.6606C44.1353 29.8258 44.0384 28.9277 43.6177 28.1634L29.0192 1.70966C28.5968 0.946275 27.8854 0.379725 27.0411 0.134303C26.1967 -0.111119 25.2884 -0.0153703 24.5153 0.400543Z" fill="#F2F2F2"/>
<path d="M24.973 1.22985L23.0884 2.24656L4.07142 12.5055L2.18679 13.5222C1.63696 13.8196 1.2289 14.3205 1.05214 14.915C0.875372 15.5095 0.944337 16.1491 1.2439 16.6933L15.8424 43.1471C16.1432 43.6907 16.6498 44.0942 17.2511 44.2689C17.8524 44.4437 18.4992 44.3755 19.0497 44.0793L19.0539 44.0771L41.8318 31.7892L41.836 31.787C42.3858 31.4896 42.7938 30.9887 42.9706 30.3942C43.1474 29.7997 43.0784 29.1601 42.7788 28.6159L28.1803 2.16212C27.8795 1.6185 27.3729 1.21504 26.7717 1.04027C26.1704 0.865496 25.5235 0.933677 24.973 1.22985Z" fill="white"/>
<path d="M25.2872 9.44108L16.7919 14.024C16.6632 14.0934 16.5119 14.1095 16.3712 14.0686C16.2306 14.0277 16.1121 13.9333 16.0419 13.806C15.9717 13.6788 15.9555 13.5291 15.9968 13.3901C16.0382 13.251 16.1337 13.1339 16.2624 13.0644L24.7577 8.48152C24.8864 8.41209 25.0377 8.39606 25.1784 8.43694C25.319 8.47782 25.4375 8.57228 25.5077 8.69952C25.578 8.82677 25.5942 8.97638 25.5528 9.11545C25.5115 9.25452 25.4159 9.37166 25.2872 9.44108H25.2872Z" fill="#F2F2F2"/>
<path d="M28.1825 9.98053L17.6855 15.6433C17.5568 15.7127 17.4055 15.7287 17.2648 15.6879C17.1241 15.647 17.0057 15.5525 16.9355 15.4253C16.8652 15.298 16.849 15.1484 16.8904 15.0093C16.9317 14.8703 17.0272 14.7531 17.1559 14.6837L27.6529 9.02096C27.7167 8.98659 27.7866 8.96496 27.8588 8.95731C27.931 8.94966 28.004 8.95614 28.0736 8.97638C28.1433 8.99662 28.2082 9.03023 28.2647 9.07529C28.3212 9.12034 28.3682 9.17596 28.403 9.23896C28.4377 9.30197 28.4596 9.37113 28.4673 9.4425C28.4751 9.51386 28.4685 9.58603 28.448 9.65489C28.4276 9.72375 28.3936 9.78795 28.348 9.84383C28.3024 9.8997 28.2462 9.94615 28.1825 9.98053H28.1825Z" fill="#F2F2F2"/>
<path d="M13.2994 12.1163L5.4672 16.3415C5.40555 16.3748 5.35979 16.4309 5.33998 16.4975C5.32017 16.5641 5.32793 16.6358 5.36156 16.6968L8.69671 22.7404C8.73036 22.8013 8.78713 22.8466 8.85452 22.8662C8.92191 22.8858 8.99441 22.8781 9.05608 22.8448L16.8883 18.6196C16.9499 18.5864 16.9957 18.5302 17.0155 18.4636C17.0353 18.397 17.0275 18.3253 16.9939 18.2643L13.6588 12.2208C13.6251 12.1598 13.5683 12.1146 13.501 12.095C13.4336 12.0754 13.3611 12.0831 13.2994 12.1163Z" fill="#F2F2F2"/>
<path d="M29.5024 17.1094L17.9795 23.3256C17.9158 23.3599 17.8459 23.3816 17.7737 23.3892C17.7015 23.3969 17.6285 23.3904 17.5589 23.3701C17.4892 23.3499 17.4243 23.3163 17.3678 23.2712C17.3113 23.2262 17.2643 23.1706 17.2295 23.1076C17.1947 23.0445 17.1729 22.9754 17.1651 22.904C17.1574 22.8327 17.164 22.7605 17.1844 22.6916C17.2049 22.6228 17.2389 22.5586 17.2845 22.5027C17.33 22.4468 17.3863 22.4004 17.45 22.366L28.9728 16.1498C29.1015 16.0804 29.2528 16.0644 29.3935 16.1053C29.5342 16.1461 29.6526 16.2406 29.7229 16.3678C29.7931 16.4951 29.8093 16.6447 29.7679 16.7838C29.7266 16.9228 29.6311 17.04 29.5024 17.1094H29.5024Z" fill="#F2F2F2"/>
<path d="M32.3977 17.6488L18.8732 24.9448C18.7445 25.0143 18.5932 25.0303 18.4525 24.9894C18.3119 24.9485 18.1934 24.8541 18.1232 24.7268C18.053 24.5996 18.0368 24.45 18.0781 24.3109C18.1195 24.1718 18.215 24.0547 18.3437 23.9853L31.8682 16.6893C31.9969 16.6198 32.1482 16.6038 32.2889 16.6447C32.4295 16.6856 32.548 16.78 32.6182 16.9073C32.6884 17.0345 32.7047 17.1841 32.6633 17.3232C32.622 17.4623 32.5264 17.5794 32.3977 17.6488H32.3977Z" fill="#F2F2F2"/>
<path d="M13.5912 28.4164C14.8864 28.4164 15.9364 27.3782 15.9364 26.0976C15.9364 24.817 14.8864 23.7789 13.5912 23.7789C12.296 23.7789 11.246 24.817 11.246 26.0976C11.246 27.3782 12.296 28.4164 13.5912 28.4164Z" fill="#F2F2F2"/>
<path d="M48.6805 11.3006H22.7232C21.8431 11.3016 20.9994 11.6477 20.377 12.263C19.7547 12.8783 19.4047 13.7125 19.4037 14.5827V44.7179C19.4047 45.5881 19.7547 46.4223 20.377 47.0376C20.9994 47.6529 21.8431 47.999 22.7232 48H48.6805C49.5606 47.999 50.4044 47.6529 51.0267 47.0376C51.649 46.4223 51.9991 45.5881 52.0001 44.7179V14.5827C51.9991 13.7125 51.649 12.8783 51.0267 12.263C50.4044 11.6477 49.5606 11.3016 48.6805 11.3006Z" fill="#E6E6E6"/>
<path d="M48.6805 12.2455H22.7232C22.0964 12.2462 21.4956 12.4926 21.0524 12.9308C20.6092 13.369 20.36 13.963 20.3593 14.5827V44.7179C20.36 45.3376 20.6092 45.9317 21.0524 46.3699C21.4956 46.808 22.0964 47.0545 22.7232 47.0552H48.6805C49.3072 47.0545 49.9081 46.808 50.3512 46.3698C50.7944 45.9317 51.0437 45.3376 51.0444 44.718V14.5827C51.0437 13.9631 50.7944 13.369 50.3512 12.9308C49.9081 12.4927 49.3072 12.2462 48.6805 12.2455Z" fill="white"/>
<path d="M44.9785 19.6024H35.301C35.1543 19.6024 35.0137 19.5448 34.9101 19.4423C34.8064 19.3398 34.7482 19.2008 34.7482 19.0558C34.7482 18.9109 34.8064 18.7719 34.9101 18.6694C35.0137 18.5669 35.1543 18.5093 35.301 18.5093H44.9785C45.0512 18.5092 45.1231 18.5233 45.1903 18.5507C45.2574 18.5782 45.3184 18.6184 45.3698 18.6692C45.4212 18.7199 45.462 18.7802 45.4898 18.8465C45.5176 18.9129 45.532 18.984 45.532 19.0558C45.532 19.1277 45.5176 19.1988 45.4898 19.2651C45.462 19.3315 45.4212 19.3918 45.3698 19.4425C45.3184 19.4933 45.2574 19.5335 45.1903 19.561C45.1231 19.5884 45.0512 19.6025 44.9785 19.6024Z" fill="#6C63FF"/>
<path d="M47.2588 21.447H35.301C35.1543 21.447 35.0137 21.3894 34.9101 21.2869C34.8064 21.1844 34.7482 21.0454 34.7482 20.9004C34.7482 20.7555 34.8064 20.6165 34.9101 20.514C35.0137 20.4115 35.1543 20.3539 35.301 20.3539H47.2588C47.4054 20.3539 47.546 20.4115 47.6497 20.514C47.7534 20.6165 47.8116 20.7555 47.8116 20.9004C47.8116 21.0454 47.7534 21.1844 47.6497 21.2869C47.546 21.3894 47.4054 21.447 47.2588 21.447Z" fill="#6C63FF"/>
<path d="M33.1592 16.2738H24.237C24.1668 16.2739 24.0994 16.3015 24.0498 16.3506C24.0001 16.3997 23.9722 16.4663 23.9722 16.5357V23.4204C23.9722 23.4898 24.0001 23.5564 24.0498 23.6055C24.0994 23.6546 24.1668 23.6822 24.237 23.6822H33.1592C33.2295 23.6822 33.2968 23.6546 33.3465 23.6055C33.3962 23.5564 33.4241 23.4898 33.4241 23.4204V16.5357C33.4241 16.4663 33.3962 16.3997 33.3465 16.3506C33.2968 16.3015 33.2295 16.2739 33.1592 16.2738Z" fill="#E6E6E6"/>
<path d="M26.6845 20.5015C26.6882 21.0827 26.4715 21.6442 26.0772 22.0753C25.6871 22.4986 25.1063 22.7793 24.5202 22.6632C23.9805 22.5562 23.5419 22.0898 23.5967 21.5256C23.6057 21.4034 23.6417 21.2847 23.7019 21.1776C23.7622 21.0705 23.8453 20.9777 23.9456 20.9057C24.0459 20.8337 24.1608 20.7841 24.2824 20.7605C24.404 20.7369 24.5294 20.7398 24.6497 20.769C25.1624 20.9005 25.3667 21.6311 24.9395 21.974C24.8369 22.0562 24.6897 21.9123 24.7931 21.8293C25.0756 21.6026 24.9883 21.1067 24.6474 20.9823C24.2506 20.8375 23.8301 21.149 23.8015 21.5501C23.7677 22.0258 24.1362 22.3839 24.5881 22.4683C25.077 22.5595 25.5618 22.3121 25.8931 21.9706C26.2727 21.5741 26.4822 21.0475 26.4776 20.5015C26.4785 20.475 26.4898 20.4499 26.5091 20.4314C26.5284 20.413 26.5542 20.4027 26.581 20.4027C26.6079 20.4027 26.6337 20.413 26.653 20.4314C26.6723 20.4499 26.6836 20.475 26.6845 20.5015Z" fill="#2F2E41"/>
<path d="M28.7051 21.8021C30.7439 21.8021 32.3967 20.168 32.3967 18.1522C32.3967 16.1364 30.7439 14.5023 28.7051 14.5023C26.6663 14.5023 25.0135 16.1364 25.0135 18.1522C25.0135 20.168 26.6663 21.8021 28.7051 21.8021Z" fill="#6C63FF"/>
<path d="M28.5163 19.7096L28.5125 19.5732C28.7691 19.5661 28.9954 19.5502 29.1654 19.4274C29.2136 19.3906 29.2532 19.344 29.2815 19.2907C29.3099 19.2374 29.3263 19.1787 29.3296 19.1186C29.3326 19.0818 29.327 19.0449 29.3132 19.0107C29.2994 18.9764 29.2778 18.9458 29.2501 18.9212C29.1373 18.8269 28.9557 18.8574 28.8233 18.9174L28.7091 18.9692L28.928 17.3876L29.0647 17.4062L28.8785 18.7515C29.0584 18.6992 29.225 18.7217 29.3392 18.817C29.383 18.8548 29.4174 18.9022 29.4396 18.9553C29.4619 19.0085 29.4714 19.066 29.4675 19.1234C29.4635 19.2041 29.4416 19.2831 29.4035 19.3546C29.3654 19.4262 29.3119 19.4886 29.2468 19.5376C29.0283 19.6954 28.7444 19.7033 28.5163 19.7096Z" fill="#2F2E41"/>
<path d="M30.4837 17.5222H29.7407V17.6586H30.4837V17.5222Z" fill="#2F2E41"/>
<path d="M28.1385 17.5222H27.3955V17.6586H28.1385V17.5222Z" fill="#2F2E41"/>
<path d="M26.6603 23.6822C26.937 23.5086 27.236 23.3726 27.5494 23.2778C27.5195 23.1727 27.52 23.0614 27.5508 22.9566C27.5924 22.8242 27.6762 22.7086 27.7897 22.6271C27.9031 22.5456 28.0403 22.5026 28.1805 22.5045H29.08C29.2204 22.5027 29.3578 22.5458 29.4715 22.6274C29.5852 22.709 29.6692 22.8247 29.7111 22.9573C29.7419 23.0619 29.7424 23.173 29.7125 23.2778C30.0258 23.3727 30.3248 23.5087 30.6016 23.6822H26.6603Z" fill="#2F2E41"/>
<path d="M32.9337 16.7976C32.8664 16.7171 32.7837 16.6506 32.6902 16.6019C32.6082 16.5596 32.5171 16.5373 32.4246 16.5371C32.2976 16.5386 32.1743 16.5797 32.0722 16.6544C31.7914 16.8508 31.5969 17.2743 31.5969 17.7647C31.5969 18.3798 31.9032 18.8899 32.3012 18.9786C32.3417 18.9876 32.3831 18.9922 32.4246 18.9922C32.8806 18.9922 33.2523 18.4419 33.2523 17.7647C33.2523 17.3718 33.1275 17.022 32.9337 16.7976Z" fill="#3F3D56"/>
<path d="M25.3518 16.6251H25.3511C25.2589 16.5684 25.1527 16.538 25.0442 16.5371C24.9517 16.5373 24.8606 16.5595 24.7786 16.6019C24.6851 16.6505 24.6024 16.7171 24.5351 16.7976L24.5344 16.7983C24.3413 17.0227 24.2164 17.3725 24.2164 17.7647C24.2164 18.2939 24.4427 18.7454 24.76 18.9179C24.8468 18.966 24.9446 18.9916 25.0442 18.9922C25.0663 18.9922 25.0884 18.9909 25.1104 18.9881H25.111C25.536 18.9377 25.8719 18.4085 25.8719 17.7647C25.8719 17.2491 25.656 16.8065 25.3518 16.6251Z" fill="#3F3D56"/>
<path d="M24.8117 18.8005C24.8281 18.8005 24.8443 18.7966 24.8589 18.7892C24.8735 18.7818 24.8862 18.771 24.8957 18.7579C24.9053 18.7447 24.9116 18.7294 24.914 18.7134C24.9165 18.6973 24.915 18.6809 24.9098 18.6655C24.712 18.0841 24.6525 17.4654 24.7359 16.8576C24.8193 16.2498 25.0434 15.6692 25.3906 15.1609C25.7379 14.6525 26.199 14.2303 26.7382 13.9268C27.2773 13.6233 27.88 13.4469 28.4993 13.4112C29.1187 13.3754 29.738 13.4814 30.3092 13.7208C30.8804 13.9602 31.3881 14.3266 31.7928 14.7915C32.1975 15.2565 32.4883 15.8074 32.6426 16.4015C32.7969 16.9956 32.8106 17.6169 32.6826 18.2171C32.6769 18.2437 32.6822 18.2713 32.6971 18.2941C32.7121 18.3168 32.7356 18.3327 32.7625 18.3383C32.7893 18.3439 32.8173 18.3387 32.8403 18.3239C32.8633 18.3091 32.8794 18.2859 32.8851 18.2593C33.0197 17.6283 33.0054 16.9751 32.8432 16.3504C32.681 15.7257 32.3753 15.1464 31.9498 14.6576C31.5244 14.1687 30.9906 13.7835 30.3901 13.5318C29.7895 13.28 29.1383 13.1686 28.4872 13.2062C27.836 13.2438 27.2023 13.4293 26.6355 13.7484C26.0686 14.0675 25.5838 14.5116 25.2187 15.046C24.8537 15.5805 24.6182 16.191 24.5306 16.8301C24.443 17.4692 24.5057 18.1196 24.7137 18.7309C24.7206 18.7512 24.7338 18.7688 24.7514 18.7813C24.769 18.7938 24.7901 18.8005 24.8117 18.8005Z" fill="#3F3D56"/>
<path d="M30.5595 15.7874C30.7057 15.9847 30.6336 16.2505 30.4796 16.4206C30.2792 16.6419 29.9596 16.6559 29.6821 16.6148C29.3707 16.5687 29.0405 16.4245 28.7252 16.5217C28.4565 16.6045 28.2648 16.8455 27.9857 16.906C27.7381 16.9597 27.4421 16.8887 27.3553 16.6278C27.3136 16.5024 27.5134 16.4487 27.5548 16.5734C27.611 16.7422 27.8534 16.7388 27.9923 16.6921C28.2148 16.6171 28.3864 16.4349 28.6052 16.3478C28.8631 16.2452 29.1429 16.2915 29.4055 16.35C29.653 16.4051 29.9379 16.4868 30.1845 16.3839C30.3669 16.3077 30.5121 16.0678 30.3809 15.8906C30.3021 15.7843 30.4815 15.6821 30.5595 15.7874Z" fill="#2F2E41"/>
<path d="M44.964 28.33H31.8376C31.765 28.33 31.6931 28.3159 31.626 28.2884C31.559 28.261 31.498 28.2207 31.4467 28.1699C31.3954 28.1192 31.3546 28.0589 31.3269 27.9926C31.2991 27.9263 31.2848 27.8552 31.2848 27.7835C31.2848 27.7117 31.2991 27.6406 31.3269 27.5743C31.3546 27.508 31.3954 27.4478 31.4467 27.397C31.498 27.3463 31.559 27.306 31.626 27.2785C31.6931 27.2511 31.765 27.2369 31.8376 27.2369H44.964C45.1105 27.2371 45.2509 27.2947 45.3545 27.3972C45.458 27.4997 45.5162 27.6386 45.5162 27.7835C45.5162 27.9283 45.458 28.0672 45.3545 28.1697C45.2509 28.2722 45.1105 28.3299 44.964 28.33Z" fill="#E6E6E6"/>
<path d="M47.2443 30.1746H31.8376C31.7649 30.1747 31.693 30.1606 31.6259 30.1332C31.5587 30.1058 31.4977 30.0655 31.4463 30.0148C31.3949 29.964 31.3541 29.9037 31.3263 29.8374C31.2985 29.771 31.2842 29.6999 31.2842 29.6281C31.2842 29.5563 31.2985 29.4851 31.3263 29.4188C31.3541 29.3524 31.3949 29.2922 31.4463 29.2414C31.4977 29.1906 31.5587 29.1504 31.6259 29.123C31.693 29.0955 31.7649 29.0815 31.8376 29.0815H47.2443C47.3169 29.0815 47.3888 29.0955 47.456 29.123C47.5231 29.1504 47.5841 29.1906 47.6355 29.2414C47.6869 29.2922 47.7277 29.3524 47.7555 29.4188C47.7833 29.4851 47.7977 29.5563 47.7977 29.6281C47.7977 29.6999 47.7833 29.771 47.7555 29.8374C47.7277 29.9037 47.6869 29.964 47.6355 30.0148C47.5841 30.0655 47.5231 30.1058 47.456 30.1332C47.3888 30.1606 47.3169 30.1747 47.2443 30.1746Z" fill="#E6E6E6"/>
<path d="M44.964 34.9598H31.8376C31.691 34.9598 31.5504 34.9022 31.4467 34.7997C31.343 34.6972 31.2848 34.5582 31.2848 34.4133C31.2848 34.2683 31.343 34.1293 31.4467 34.0268C31.5504 33.9243 31.691 33.8667 31.8376 33.8667H44.964C45.1106 33.8667 45.2512 33.9243 45.3549 34.0268C45.4585 34.1293 45.5168 34.2683 45.5168 34.4133C45.5168 34.5582 45.4585 34.6972 45.3549 34.7997C45.2512 34.9022 45.1106 34.9598 44.964 34.9598Z" fill="#E6E6E6"/>
<path d="M47.2442 36.8044H31.8376C31.691 36.8044 31.5504 36.7469 31.4467 36.6444C31.343 36.5419 31.2848 36.4028 31.2848 36.2579C31.2848 36.1129 31.343 35.9739 31.4467 35.8714C31.5504 35.7689 31.691 35.7113 31.8376 35.7113H47.2442C47.3909 35.7113 47.5315 35.7689 47.6351 35.8714C47.7388 35.9739 47.797 36.1129 47.797 36.2579C47.797 36.4028 47.7388 36.5419 47.6351 36.6444C47.5315 36.7469 47.3909 36.8044 47.2442 36.8044Z" fill="#E6E6E6"/>
<path d="M26.6424 31.004C27.9376 31.004 28.9876 29.9659 28.9876 28.6853C28.9876 27.4047 27.9376 26.3665 26.6424 26.3665C25.3471 26.3665 24.2971 27.4047 24.2971 28.6853C24.2971 29.9659 25.3471 31.004 26.6424 31.004Z" fill="#E6E6E6"/>
<path d="M26.6424 37.6875C27.9376 37.6875 28.9876 36.6493 28.9876 35.3687C28.9876 34.0881 27.9376 33.05 26.6424 33.05C25.3471 33.05 24.2971 34.0881 24.2971 35.3687C24.2971 36.6493 25.3471 37.6875 26.6424 37.6875Z" fill="#E6E6E6"/>
<path d="M44.964 41.6433H31.8376C31.691 41.6433 31.5504 41.5857 31.4467 41.4832C31.343 41.3807 31.2848 41.2417 31.2848 41.0967C31.2848 40.9518 31.343 40.8128 31.4467 40.7103C31.5504 40.6078 31.691 40.5502 31.8376 40.5502H44.964C45.1106 40.5502 45.2512 40.6078 45.3549 40.7103C45.4585 40.8128 45.5168 40.9518 45.5168 41.0967C45.5168 41.2417 45.4585 41.3807 45.3549 41.4832C45.2512 41.5857 45.1106 41.6433 44.964 41.6433Z" fill="#E6E6E6"/>
<path d="M47.2442 43.4879H31.8376C31.691 43.4879 31.5504 43.4303 31.4467 43.3278C31.343 43.2253 31.2848 43.0863 31.2848 42.9413C31.2848 42.7964 31.343 42.6574 31.4467 42.5549C31.5504 42.4524 31.691 42.3948 31.8376 42.3948H47.2442C47.3909 42.3948 47.5315 42.4524 47.6351 42.5549C47.7388 42.6574 47.797 42.7964 47.797 42.9413C47.797 43.0863 47.7388 43.2253 47.6351 43.3278C47.5315 43.4303 47.3909 43.4879 47.2442 43.4879Z" fill="#E6E6E6"/>
<path d="M26.6424 44.3709C27.9376 44.3709 28.9876 43.3328 28.9876 42.0522C28.9876 40.7716 27.9376 39.7334 26.6424 39.7334C25.3471 39.7334 24.2971 40.7716 24.2971 42.0522C24.2971 43.3328 25.3471 44.3709 26.6424 44.3709Z" fill="#E6E6E6"/>
</g>
<defs>
<clipPath id="clip0">
<rect width="52" height="48" fill="white"/>
</clipPath>
</defs>
</svg>
