<svg width="287" height="207" viewBox="0 0 287 207" fill="none" xmlns="http://www.w3.org/2000/svg">
<g clip-path="url(#clip0)">
<g opacity="0.1">
<path opacity="0.1" d="M229.804 146.655C229.804 146.655 209.316 144.062 224.596 176.384C224.596 176.384 238.52 170.568 239.075 157.449C239.188 154.896 238.336 152.391 236.681 150.409C235.026 148.427 232.682 147.106 230.094 146.696L229.804 146.655Z" fill="#0000FF"/>
<path opacity="0.1" d="M230.105 146.607C230.105 146.607 234.743 164.629 224.611 176.386" stroke="#535461" stroke-miterlimit="10"/>
<path opacity="0.1" d="M224.334 178.051C224.334 178.051 231.711 160.33 245.487 153.756C251.287 151.035 256.025 146.552 258.988 140.982C260.373 138.328 261.505 135.557 262.37 132.702" stroke="#535461" stroke-width="2" stroke-miterlimit="10"/>
<path opacity="0.1" d="M271.027 128.513C269.591 130.272 262.159 132.848 262.159 132.848C262.159 132.848 263.053 125.198 264.489 123.451C264.817 122.995 265.237 122.61 265.723 122.318C266.209 122.026 266.752 121.834 267.317 121.754C267.882 121.674 268.458 121.708 269.01 121.853C269.561 121.998 270.076 122.252 270.523 122.599C270.97 122.945 271.339 123.377 271.609 123.868C271.878 124.359 272.041 124.898 272.089 125.453C272.136 126.008 272.067 126.566 271.885 127.093C271.702 127.621 271.411 128.107 271.029 128.52L271.027 128.513Z" fill="#0000FF"/>
<path opacity="0.1" d="M268.476 142.448C266.289 143.164 258.619 141.382 258.619 141.382C258.619 141.382 263.629 135.446 265.816 134.729C266.345 134.518 266.914 134.414 267.486 134.425C268.059 134.437 268.623 134.562 269.143 134.794C269.664 135.026 270.13 135.36 270.513 135.775C270.897 136.189 271.188 136.676 271.371 137.205C271.553 137.734 271.622 138.294 271.574 138.85C271.525 139.406 271.36 139.946 271.089 140.438C270.817 140.929 270.446 141.361 269.996 141.707C269.547 142.053 269.03 142.305 268.476 142.448Z" fill="#0000FF"/>
<path opacity="0.1" d="M254.648 158.922C252.39 158.466 246.69 153.152 246.69 153.152C246.69 153.152 254.088 150.493 256.348 150.949C257.371 151.227 258.247 151.873 258.8 152.757C259.352 153.641 259.539 154.696 259.323 155.71C259.107 156.723 258.503 157.618 257.635 158.214C256.768 158.81 255.7 159.062 254.648 158.92V158.922Z" fill="#0000FF"/>
<path opacity="0.1" d="M241.307 169.091C239.002 169.012 232.462 164.716 232.462 164.716C232.462 164.716 239.295 160.871 241.6 160.952C242.656 161.057 243.632 161.549 244.33 162.33C245.028 163.11 245.396 164.119 245.359 165.154C245.322 166.189 244.882 167.171 244.13 167.901C243.377 168.632 242.368 169.056 241.307 169.089V169.091Z" fill="#0000FF"/>
<path opacity="0.1" d="M251.477 136.392C251.773 138.623 256.767 144.569 256.767 144.569C256.767 144.569 260.055 137.583 259.762 135.352C259.726 134.794 259.574 134.25 259.313 133.753C259.053 133.256 258.691 132.816 258.249 132.461C257.807 132.106 257.296 131.842 256.745 131.688C256.195 131.533 255.618 131.49 255.05 131.561C254.482 131.633 253.935 131.817 253.443 132.102C252.951 132.388 252.525 132.769 252.19 133.222C251.855 133.675 251.619 134.19 251.496 134.735C251.374 135.28 251.367 135.844 251.477 136.392Z" fill="#0000FF"/>
<path opacity="0.1" d="M236.027 148.488C236.993 150.528 243.585 154.748 243.585 154.748C243.585 154.748 244.579 147.122 243.614 145.082C243.408 144.561 243.095 144.087 242.694 143.689C242.293 143.291 241.813 142.978 241.282 142.768C240.752 142.558 240.183 142.456 239.611 142.469C239.039 142.482 238.475 142.609 237.955 142.843C237.436 143.077 236.971 143.412 236.589 143.827C236.207 144.243 235.917 144.731 235.736 145.26C235.556 145.789 235.488 146.349 235.538 146.905C235.588 147.461 235.755 148 236.027 148.491V148.488Z" fill="#0000FF"/>
<path opacity="0.1" d="M222.665 162.242C223.261 164.415 229.03 169.657 229.03 169.657C229.03 169.657 231.332 162.306 230.733 160.134C230.621 159.586 230.396 159.066 230.07 158.607C229.744 158.147 229.325 157.758 228.838 157.463C228.352 157.168 227.808 156.973 227.241 156.891C226.674 156.809 226.096 156.842 225.543 156.986C224.989 157.131 224.472 157.385 224.024 157.732C223.575 158.08 223.204 158.513 222.934 159.006C222.665 159.499 222.501 160.04 222.455 160.597C222.409 161.154 222.48 161.714 222.665 162.242Z" fill="#0000FF"/>
<path opacity="0.25" d="M271.027 128.513C269.591 130.272 262.159 132.848 262.159 132.848C262.159 132.848 263.053 125.198 264.489 123.451C264.817 122.995 265.237 122.61 265.723 122.318C266.209 122.026 266.752 121.834 267.317 121.754C267.882 121.674 268.458 121.708 269.01 121.853C269.561 121.998 270.076 122.252 270.523 122.599C270.97 122.945 271.339 123.377 271.609 123.868C271.878 124.359 272.041 124.898 272.089 125.453C272.136 126.008 272.067 126.566 271.885 127.093C271.702 127.621 271.411 128.107 271.029 128.52L271.027 128.513Z" fill="black"/>
<path opacity="0.25" d="M268.476 142.448C266.289 143.164 258.619 141.382 258.619 141.382C258.619 141.382 263.629 135.446 265.816 134.729C266.345 134.518 266.914 134.414 267.486 134.425C268.059 134.437 268.623 134.562 269.143 134.794C269.664 135.026 270.13 135.36 270.513 135.775C270.897 136.189 271.188 136.676 271.371 137.205C271.553 137.734 271.622 138.294 271.574 138.85C271.525 139.406 271.36 139.946 271.089 140.438C270.817 140.929 270.446 141.361 269.996 141.707C269.547 142.053 269.03 142.305 268.476 142.448Z" fill="black"/>
<path opacity="0.25" d="M254.648 158.922C252.39 158.466 246.69 153.152 246.69 153.152C246.69 153.152 254.088 150.493 256.348 150.949C257.371 151.227 258.247 151.873 258.8 152.757C259.352 153.641 259.539 154.696 259.323 155.71C259.107 156.723 258.503 157.618 257.635 158.214C256.768 158.81 255.7 159.062 254.648 158.92V158.922Z" fill="black"/>
<path opacity="0.25" d="M241.307 169.091C239.002 169.012 232.462 164.716 232.462 164.716C232.462 164.716 239.295 160.871 241.6 160.952C242.656 161.057 243.632 161.549 244.33 162.33C245.028 163.11 245.396 164.119 245.359 165.154C245.322 166.189 244.882 167.171 244.13 167.901C243.377 168.632 242.368 169.056 241.307 169.089V169.091Z" fill="black"/>
<path opacity="0.25" d="M251.477 136.392C251.773 138.623 256.767 144.569 256.767 144.569C256.767 144.569 260.055 137.583 259.762 135.352C259.726 134.794 259.574 134.25 259.313 133.753C259.053 133.256 258.691 132.816 258.249 132.461C257.807 132.106 257.296 131.842 256.745 131.688C256.195 131.533 255.618 131.49 255.05 131.561C254.482 131.633 253.935 131.817 253.443 132.102C252.951 132.388 252.525 132.769 252.19 133.222C251.855 133.675 251.619 134.19 251.496 134.735C251.374 135.28 251.367 135.844 251.477 136.392Z" fill="black"/>
<path opacity="0.25" d="M236.027 148.488C236.993 150.528 243.585 154.748 243.585 154.748C243.585 154.748 244.579 147.122 243.614 145.082C243.408 144.561 243.095 144.087 242.694 143.689C242.293 143.291 241.813 142.978 241.282 142.768C240.752 142.558 240.183 142.456 239.611 142.469C239.039 142.482 238.475 142.609 237.955 142.843C237.436 143.077 236.971 143.412 236.589 143.827C236.207 144.243 235.917 144.731 235.736 145.26C235.556 145.789 235.488 146.349 235.538 146.905C235.588 147.461 235.755 148 236.027 148.491V148.488Z" fill="black"/>
<path opacity="0.25" d="M222.665 162.242C223.261 164.415 229.03 169.657 229.03 169.657C229.03 169.657 231.332 162.306 230.733 160.134C230.621 159.586 230.396 159.066 230.07 158.607C229.744 158.147 229.325 157.758 228.838 157.463C228.352 157.168 227.808 156.973 227.241 156.891C226.674 156.809 226.096 156.842 225.543 156.986C224.989 157.131 224.472 157.385 224.024 157.732C223.575 158.08 223.204 158.513 222.934 159.006C222.665 159.499 222.501 160.04 222.455 160.597C222.409 161.154 222.48 161.714 222.665 162.242Z" fill="black"/>
<path opacity="0.1" d="M234.16 186.114C234.16 186.114 241.537 168.393 255.313 161.819C261.111 159.096 265.845 154.612 268.806 149.042C270.19 146.388 271.323 143.617 272.188 140.762" stroke="#535461" stroke-width="2" stroke-miterlimit="10"/>
<path opacity="0.1" d="M280.839 136.57C279.403 138.33 271.971 140.905 271.971 140.905C271.971 140.905 272.866 133.256 274.302 131.509C275.015 130.736 276.004 130.258 277.066 130.172C278.128 130.086 279.184 130.398 280.019 131.044C280.853 131.691 281.403 132.624 281.556 133.652C281.709 134.68 281.454 135.727 280.842 136.578L280.839 136.57Z" fill="#0000FF"/>
<path opacity="0.1" d="M278.294 150.505C276.107 151.222 268.437 149.44 268.437 149.44C268.437 149.44 273.447 143.503 275.634 142.787C276.661 142.521 277.754 142.647 278.69 143.138C279.626 143.629 280.336 144.449 280.674 145.431C281.013 146.413 280.955 147.484 280.513 148.427C280.071 149.369 279.278 150.112 278.294 150.505Z" fill="#0000FF"/>
<path opacity="0.1" d="M264.466 166.99C262.208 166.534 256.508 161.22 256.508 161.22C256.508 161.22 263.906 158.56 266.166 159.017C267.189 159.295 268.065 159.941 268.617 160.825C269.17 161.709 269.357 162.764 269.14 163.777C268.924 164.791 268.321 165.686 267.453 166.282C266.585 166.878 265.517 167.13 264.466 166.988V166.99Z" fill="#0000FF"/>
<path opacity="0.1" d="M251.122 177.146C248.817 177.067 242.277 172.771 242.277 172.771C242.277 172.771 249.11 168.931 251.415 169.01C252.471 169.114 253.448 169.607 254.146 170.387C254.844 171.167 255.211 172.177 255.174 173.212C255.137 174.246 254.697 175.228 253.945 175.959C253.192 176.689 252.183 177.114 251.122 177.146Z" fill="#0000FF"/>
<path opacity="0.1" d="M261.293 144.46C261.588 146.691 266.582 152.637 266.582 152.637C266.582 152.637 269.87 145.65 269.577 143.419C269.542 142.862 269.389 142.318 269.128 141.821C268.868 141.324 268.506 140.884 268.064 140.529C267.623 140.173 267.111 139.91 266.561 139.755C266.01 139.601 265.433 139.558 264.865 139.629C264.297 139.7 263.75 139.884 263.258 140.17C262.766 140.456 262.34 140.837 262.005 141.29C261.67 141.742 261.434 142.257 261.311 142.803C261.189 143.348 261.183 143.912 261.293 144.46Z" fill="#0000FF"/>
<path opacity="0.1" d="M245.845 156.536C246.811 158.576 253.403 162.796 253.403 162.796C253.403 162.796 254.397 155.169 253.432 153.129C252.925 152.218 252.082 151.528 251.073 151.201C250.064 150.874 248.965 150.933 247.999 151.367C247.033 151.801 246.273 152.577 245.873 153.538C245.473 154.498 245.463 155.571 245.845 156.538V156.536Z" fill="#0000FF"/>
<path opacity="0.1" d="M232.483 170.305C233.079 172.477 238.848 177.72 238.848 177.72C238.848 177.72 241.15 170.369 240.551 168.196C240.208 167.216 239.496 166.4 238.559 165.913C237.622 165.425 236.53 165.303 235.504 165.571C234.479 165.839 233.596 166.478 233.035 167.357C232.474 168.236 232.276 169.29 232.483 170.305Z" fill="#0000FF"/>
</g>
<path opacity="0.1" d="M3.09991 109.636C7.64127 128.556 17.255 144.911 32.4487 152.838C64.0236 169.313 135.233 160.817 188.38 151.054C215.233 146.138 239.608 132.558 257.581 112.5L3.09991 109.636Z" fill="#0000FF"/>
<path opacity="0.1" d="M281.794 20.5797H252.634C251.965 20.5797 251.324 20.3209 250.852 19.8602C250.379 19.3994 250.113 18.7745 250.113 18.123C250.113 17.4714 250.379 16.8465 250.852 16.3857C251.324 15.925 251.965 15.6662 252.634 15.6662H257.675C257.006 15.6662 256.365 15.4073 255.893 14.9466C255.42 14.4859 255.154 13.861 255.154 13.2094C255.154 12.5578 255.42 11.9329 255.893 11.4722C256.365 11.0114 257.006 10.7526 257.675 10.7526H254.075C253.407 10.7526 252.766 10.4938 252.293 10.033C251.82 9.57228 251.555 8.94739 251.555 8.29581C251.555 7.64423 251.82 7.01933 252.293 6.55859C252.766 6.09786 253.407 5.83902 254.075 5.83902H269.295C265.918 4.3091 261.97 3.22031 257.424 2.64915C215.924 -2.54746 201.107 0.889744 195.88 4.43405C189.432 8.7943 182.238 12.002 174.549 13.5472C148.941 18.6903 101.056 24.8865 57.6538 11.5583C36.0823 4.92872 20.049 16.1277 10.4404 34.8335H286.856C286.495 29.3972 285.415 24.379 283.432 19.9831C282.977 20.3671 282.396 20.5789 281.794 20.5797Z" fill="#0000FF"/>
<path opacity="0.1" d="M0.625231 70.1466C-0.494277 81.1506 -0.11339 92.2506 1.75795 103.157L257.779 112.283C264.906 104.292 270.89 95.3972 275.568 85.841L0.625231 70.1466ZM101.885 93.6945H96.8439C97.5123 93.6945 98.1535 93.9534 98.6261 94.4141C99.0988 94.8748 99.3644 95.4997 99.3644 96.1513C99.3644 96.8029 99.0988 97.4278 98.6261 97.8885C98.1535 98.3493 97.5123 98.6081 96.8439 98.6081H67.6835C67.015 98.6081 66.3739 98.3493 65.9012 97.8885C65.4285 97.4278 65.163 96.8029 65.163 96.1513C65.163 95.4997 65.4285 94.8748 65.9012 94.4141C66.3739 93.9534 67.015 93.6945 67.6835 93.6945H72.7245C72.056 93.6945 71.4149 93.4357 70.9422 92.9749C70.4695 92.5142 70.204 91.8893 70.204 91.2377C70.204 90.5862 70.4695 89.9613 70.9422 89.5005C71.4149 89.0398 72.056 88.781 72.7245 88.781H69.1249C68.4564 88.781 67.8153 88.5221 67.3426 88.0614C66.8699 87.6006 66.6044 86.9757 66.6044 86.3242C66.6044 85.6726 66.8699 85.0477 67.3426 84.587C67.8153 84.1262 68.4564 83.8674 69.1249 83.8674H98.2853C98.9538 83.8674 99.5949 84.1262 100.068 84.587C100.54 85.0477 100.806 85.6726 100.806 86.3242C100.806 86.9757 100.54 87.6006 100.068 88.0614C99.5949 88.5221 98.9538 88.781 98.2853 88.781H101.885C102.553 88.781 103.194 89.0398 103.667 89.5005C104.14 89.9613 104.405 90.5862 104.405 91.2377C104.405 91.8893 104.14 92.5142 103.667 92.9749C103.194 93.4357 102.553 93.6945 101.885 93.6945Z" fill="#0000FF"/>
<path opacity="0.1" d="M286.869 35.0044L7.35352 41.6341C3.95535 50.1531 1.71345 59.784 0.667053 69.7666H281.972C283.809 63.9026 285.167 57.9062 286.035 51.8335C286.872 45.9663 287.207 40.2903 286.869 35.0044ZM57.4131 56.7216H52.372C53.0405 56.7216 53.6816 56.9804 54.1543 57.4412C54.627 57.9019 54.8926 58.5268 54.8926 59.1784C54.8926 59.8299 54.627 60.4548 54.1543 60.9156C53.6816 61.3763 53.0405 61.6352 52.372 61.6352H23.2116C22.5432 61.6352 21.9021 61.3763 21.4294 60.9156C20.9567 60.4548 20.6911 59.8299 20.6911 59.1784C20.6911 58.5268 20.9567 57.9019 21.4294 57.4412C21.9021 56.9804 22.5432 56.7216 23.2116 56.7216H28.2526C27.5842 56.7216 26.9431 56.4627 26.4704 56.002C25.9977 55.5413 25.7321 54.9164 25.7321 54.2648C25.7321 53.6132 25.9977 52.9883 26.4704 52.5276C26.9431 52.0668 27.5842 51.808 28.2526 51.808H24.653C23.9846 51.808 23.3435 51.5492 22.8708 51.0884C22.3981 50.6277 22.1325 50.0028 22.1325 49.3512C22.1325 48.6996 22.3981 48.0747 22.8708 47.614C23.3435 47.1533 23.9846 46.8944 24.653 46.8944H53.8135C54.4819 46.8944 55.123 47.1533 55.5957 47.614C56.0684 48.0747 56.334 48.6996 56.334 49.3512C56.334 50.0028 56.0684 50.6277 55.5957 51.0884C55.123 51.5492 54.4819 51.808 53.8135 51.808H57.4131C58.0815 51.808 58.7226 52.0668 59.1953 52.5276C59.668 52.9883 59.9336 53.6132 59.9336 54.2648C59.9336 54.9164 59.668 55.5413 59.1953 56.002C58.7226 56.4627 58.0815 56.7216 57.4131 56.7216Z" fill="#0000FF"/>
<path d="M245.558 206.87C245.558 206.87 233.901 144.551 211.673 134.439C192.838 125.864 172.469 120.083 166.678 118.515C165.813 117.157 164.813 115.885 163.693 114.718C155.777 106.663 151.021 106.814 150.252 106.913C149.887 105.316 149.625 103.698 149.467 102.068C149.444 101.813 149.42 101.576 149.399 101.324L149.467 101.291C149.42 100.809 149.378 100.311 149.342 99.7989C152.573 98.1179 155.548 96.0058 158.181 93.5237C158.215 93.6333 158.244 93.743 158.28 93.8552C163.985 89.1549 169.572 84.3272 175.041 79.372C176.611 77.9415 178.259 76.3886 178.792 74.3717C178.963 73.6776 179.029 72.9629 178.989 72.2502C179.059 70.7203 178.688 69.1572 178.625 67.6069C178.625 67.3519 178.654 67.1148 178.688 66.8726C179.054 64.3355 180.864 62.2522 182.35 60.1231C186.062 54.7426 188 48.3852 187.904 41.9018C187.944 38.7952 187.503 35.7005 186.596 32.7223C185.437 28.9434 183.025 24.9733 179.009 24.1472C177.456 23.8284 175.841 24.0273 174.256 23.9279C167.693 23.5199 162.78 18.3182 157.545 14.5061C151.157 9.87613 143.601 7.01784 135.681 6.2344C133.209 5.97941 130.656 5.96156 128.304 6.72652C123.022 8.44002 119.815 13.731 114.727 15.906C110.965 17.5226 106.617 17.26 102.693 18.4737C96.8517 20.2841 91.8944 26.1233 91.7636 32.1231C91.7636 32.3449 91.7636 32.5668 91.7636 32.7886C91.7636 32.8269 91.7636 32.8651 91.7636 32.9008C91.6982 35.9326 92.81 39.0205 92.899 42.1236C92.899 42.4041 92.9033 42.6855 92.9121 42.9677C92.8833 46.3182 92.4726 49.6789 91.2195 52.828C90.5446 54.5236 89.6761 56.487 89.8173 58.1827C89.7389 59.2204 89.9455 60.1945 90.6858 60.9875L91.9494 59.9013C91.5256 62.1368 91.3128 64.4054 91.3137 66.6788C91.3137 78.1378 96.6608 88.3985 105.095 95.3035C105.144 96.0667 105.191 96.8844 105.236 97.7565C105.435 101.535 105.592 106.276 105.547 111.442L93.2103 122.495L61.494 136.519C61.494 136.519 32.488 142.491 38.735 182.21L41.7172 206.873H68.1988L68.1387 207.003H107.444L107.467 206.873H200.984L200.965 207.003H204.628V206.873L245.558 206.87ZM150.485 107.545C151.286 109.162 151.917 110.853 152.368 112.594C151.443 110.919 150.759 109.127 150.336 107.27L150.375 107.339L150.485 107.545ZM105.537 112.645C105.537 113.131 105.528 113.622 105.511 114.116L105.448 114.203C105.444 113.678 105.473 113.154 105.537 112.632V112.645Z" fill="url(#paint0_linear)"/>
<path d="M160.831 118.9L155.599 167.602L127.608 176.272C127.608 176.272 91.2457 169.642 100.663 150.518C107.363 136.915 107.177 112.604 106.513 99.702C106.251 94.4646 105.895 91.1064 105.895 91.1064C105.895 91.1064 153.506 50.5637 149.582 87.0266C148.824 94.0872 148.779 99.6076 149.2 103.922C150.966 121.883 160.831 118.9 160.831 118.9Z" fill="#FDC2CC"/>
<path opacity="0.03" d="M160.831 118.9L155.599 167.602L127.608 176.272C127.608 176.272 91.2457 169.642 100.663 150.518C107.363 136.915 107.177 112.604 106.513 99.702C106.251 94.4646 105.895 91.1064 105.895 91.1064C105.895 91.1064 153.506 50.5637 149.582 87.0266C148.824 94.0872 148.779 99.6076 149.2 103.922C150.966 121.883 160.831 118.9 160.831 118.9Z" fill="black"/>
<path opacity="0.1" d="M149.582 86.2617C148.824 93.3222 148.779 98.8427 149.2 103.157C142.479 106.734 134.805 108.245 127.186 107.492C119.567 106.739 112.36 103.756 106.513 98.937C106.251 93.6996 105.895 90.3415 105.895 90.3415C105.895 90.3415 153.506 49.7987 149.582 86.2617Z" fill="black"/>
<path d="M131.009 106.153C151.958 106.153 168.94 89.5998 168.94 69.1802C168.94 48.7606 151.958 32.2072 131.009 32.2072C110.059 32.2072 93.0768 48.7606 93.0768 69.1802C93.0768 89.5998 110.059 106.153 131.009 106.153Z" fill="#FDC2CC"/>
<path opacity="0.03" d="M131.009 106.153C151.958 106.153 168.94 89.5998 168.94 69.1802C168.94 48.7606 151.958 32.2072 131.009 32.2072C110.059 32.2072 93.0768 48.7606 93.0768 69.1802C93.0768 89.5998 110.059 106.153 131.009 106.153Z" fill="black"/>
<path opacity="0.1" d="M68.4866 168.112C68.4866 168.112 80.7817 192.591 81.4357 206.997L68.4866 168.112Z" fill="black"/>
<path opacity="0.1" d="M202.425 182.139L198.894 207H202.425V182.139Z" fill="black"/>
<path opacity="0.1" d="M61 207.645L102.994 185.639C102.994 185.639 113.609 180.997 120.928 173.774C128.247 166.552 143.714 158.261 143.714 158.261C143.714 158.261 170.877 152.007 175.374 159.417C179.871 166.826 160.851 166.503 160.851 166.503C160.851 166.503 173.167 186.839 145.813 197.154C118.459 207.47 121.084 203.695 121.084 203.695L90.4492 230.713L61 207.645Z" fill="black"/>
<path d="M63 208.649L104.994 186.643C104.994 186.643 115.609 182.001 122.928 174.779C127.581 170.187 135.528 165.163 140.7 162.111C144.08 160.114 147.813 158.758 151.717 158.109C159.989 156.737 174.237 155.236 177.377 160.417C181.874 167.826 162.854 167.503 162.854 167.503C162.854 167.503 175.17 187.839 147.816 198.155C120.462 208.47 123.087 204.695 123.087 204.695L92.4524 231.713L63 208.649Z" fill="#FDC2CC"/>
<path opacity="0.15" d="M142.65 49.1638C143.083 49.1638 143.435 48.8213 143.435 48.3988C143.435 47.9764 143.083 47.6339 142.65 47.6339C142.216 47.6339 141.865 47.9764 141.865 48.3988C141.865 48.8213 142.216 49.1638 142.65 49.1638Z" fill="white"/>
<path opacity="0.15" d="M138.987 50.6937C139.421 50.6937 139.772 50.3512 139.772 49.9288C139.772 49.5063 139.421 49.1638 138.987 49.1638C138.554 49.1638 138.203 49.5063 138.203 49.9288C138.203 50.3512 138.554 50.6937 138.987 50.6937Z" fill="white"/>
<path opacity="0.1" d="M104.061 22.5866C107.847 21.3933 112.048 21.6508 115.679 20.0648C120.589 17.9179 123.684 12.7212 128.78 11.0383C131.051 10.2887 133.515 10.3167 135.898 10.5564C143.561 11.3338 150.86 14.1445 156.998 18.6828C162.05 22.4286 166.79 27.5359 173.123 27.9362C174.654 28.0331 176.21 27.8368 177.709 28.1504C181.591 28.9613 183.917 32.86 185.034 36.565C186.326 40.9558 186.629 45.567 185.922 50.0826C185.215 54.5982 183.515 58.9114 180.937 62.7265C179.504 64.8174 177.756 66.8649 177.403 69.3561C177.058 71.7989 178.125 74.3309 177.503 76.7227C176.979 78.7039 175.41 80.2287 173.882 81.6337C168.606 86.4971 163.215 91.2356 157.707 95.8492C154.846 86.9859 159.044 77.4417 158.39 68.173C158.129 64.5624 156.821 60.6203 153.553 58.917C150.495 57.3259 146.587 58.1521 143.492 56.6221C140.039 54.9265 138.621 50.9105 136.01 48.1311C131.563 43.3884 123.843 42.7764 117.625 44.9183C111.407 47.0602 106.324 51.4663 101.406 55.7628L92.4673 63.5782C90.7225 61.6607 92.0461 58.7181 92.9905 56.3213C94.3979 52.7285 94.7066 48.8553 94.6124 45.0407C94.5366 41.9809 93.4535 38.9593 93.5163 35.981C93.6419 30.1062 98.4239 24.3639 104.061 22.5866Z" fill="black"/>
<path d="M104.061 21.8217C107.847 20.6284 112.048 20.8859 115.679 19.2999C120.589 17.1529 123.684 11.9563 128.78 10.2734C131.051 9.52372 133.515 9.55177 135.898 9.79146C143.561 10.5689 150.86 13.3796 156.998 17.9179C162.05 21.6636 166.79 26.771 173.123 27.1713C174.654 27.2682 176.21 27.0718 177.709 27.3855C181.591 28.1963 183.917 32.0951 185.034 35.8C186.326 40.1908 186.629 44.8021 185.922 49.3176C185.215 53.8332 183.515 58.1464 180.937 61.9616C179.504 64.0524 177.756 66.1 177.403 68.5912C177.058 71.034 178.125 73.566 177.503 75.9577C176.979 77.939 175.41 79.4638 173.882 80.8688C168.606 85.7322 163.215 90.4707 157.707 95.0842C154.846 86.2209 159.044 76.6768 158.39 67.4081C158.129 63.7975 156.821 59.8554 153.553 58.1521C150.495 56.561 146.587 57.3871 143.492 55.8572C140.039 54.1615 138.621 50.1455 136.01 47.3662C131.563 42.6234 123.843 42.0115 117.625 44.1533C111.407 46.2952 106.324 50.7014 101.406 54.9979L92.4673 62.8132C90.7225 60.8957 92.0461 57.9532 92.9905 55.5563C94.3979 51.9636 94.7066 48.0903 94.6124 44.2757C94.5366 41.2159 93.4535 38.1943 93.5163 35.2161C93.6419 29.3412 98.4239 23.5989 104.061 21.8217Z" fill="#865A61"/>
</g>
<defs>
<linearGradient id="paint0_linear" x1="141.703" y1="206.997" x2="141.703" y2="6.06355" gradientUnits="userSpaceOnUse">
<stop stop-color="#0C0505" stop-opacity="0.25"/>
<stop offset="0.54" stop-color="#808080" stop-opacity="0.12"/>
<stop offset="1" stop-color="#808080" stop-opacity="0.1"/>
</linearGradient>
<clipPath id="clip0">
<rect width="287" height="207" fill="white"/>
</clipPath>
</defs>
</svg>
